;TYPE=PLATED
;Layer: PTH_Through_Via
;EasyEDA Pro v2.2.43.4, 2025-11-03 20:05:48
;Gerber Generator version 0.3
M48
METRIC,LZ,0000.00000
;Hole size 1 = 0.30500 METRIC
T01C0.30500
%
G05
G90
T01
X13.5765Y-39.751
X9.906Y-19.558
X23.749Y-28.829
X33.655Y-28.194
X43.42795Y-33.08995
X59.055Y-30.607
X59.055Y-24.28041
X44.80984Y-49.25484
X26.46233Y-64.85067
X19.80209Y-65.024
X13.19204Y-65.024
X23.738Y-62.662
X10.668Y-62.865
X17.272Y-62.82981
X11.43Y-33.782
X12.7Y-25.4
X26.289Y-30.861
X36.195Y-30.226
X57.023Y-26.797
X48.26Y-40.767
X57.24545Y-33.24245
X47.371Y-51.181
X11.938Y-71.628
X46.14375Y-49.19175
X17.907Y-70.917
X21.336Y-70.917
X26.289Y-23.368
X32.69073Y-21.08977
X42.545Y-28.194
X35.814Y-50.597
X42.164Y-50.038
X23.39995Y-68.10395
X39.37Y-69.088
X18.923Y-63.41381
X29.01305Y-63.62095
X12.192Y-39.116
X11.43Y-24.257
X21.971Y-20.828
X35.56Y-47.244
X38.862Y-37.338
X38.1Y-23.622
X37.211Y-33.86792
X34.798Y-28.778
X40.513Y-33.274
X47.244Y-31.17857
X56.261Y-45.466
X59.436Y-43.18
X54.864Y-41.275
X62.611Y-26.035
X62.611Y-31.242
X64.643Y-25.019
X62.357Y-38.481
X64.897Y-33.782
X60.325Y-37.211
X64.262Y-45.212
X20.066Y-70.612
X25.019Y-64.313
X16.637Y-64.008
X9.652Y-71.501
X19.177Y-67.945
X18.923Y-70.739
X68.199Y-27.94
X66.929Y-52.197
X64.516Y-54.102
X27.178Y-68.072
X11.81354Y-57.65546
X11.81354Y-47.49546
X12.06754Y-42.66946
X16.89354Y-57.65546
X16.89354Y-52.58091
X16.89354Y-32.67798
X21.97354Y-57.65546
X21.97354Y-52.58091
X21.97354Y-42.66946
X21.97354Y-32.25546
X21.97354Y-22.09546
X27.05354Y-22.09546
X32.13354Y-62.73546
X32.13354Y-57.65546
X30.99054Y-53.09467
X32.13354Y-47.49546
X32.13354Y-42.41546
X32.13354Y-37.33546
X32.13354Y-32.25546
X32.13354Y-27.17546
X32.13354Y-22.09546
X37.21354Y-67.81546
X37.21354Y-62.73546
X37.97554Y-46.47946
X37.21354Y-42.41546
X37.21354Y-37.33546
X42.49097Y-67.81546
X42.29354Y-62.73546
X42.29354Y-42.41546
X41.65854Y-37.58946
X41.65854Y-27.30246
X42.29354Y-22.09546
X47.37354Y-67.81546
X47.37354Y-62.73546
X47.33905Y-42.44995
X51.81854Y-66.54546
X52.45354Y-52.57546
X52.45354Y-47.49546
X52.34514Y-37.22706
X52.45354Y-32.25546
X52.45354Y-27.17546
X52.45354Y-22.09546
X56.39054Y-66.54546
X57.53354Y-52.57546
X57.53354Y-47.49546
X61.34354Y-66.54546
X62.61354Y-57.65546
X62.61354Y-47.49546
X62.61354Y-32.25546
X62.61354Y-22.09546
X66.55054Y-66.54546
X67.69354Y-57.65546
X16.86814Y-47.52086
X16.86814Y-42.69486
X21.94814Y-62.76086
X21.94814Y-47.52086
X37.18814Y-57.68086
X42.26814Y-57.68086
X41.7636Y-32.8493
X47.34814Y-57.68086
X52.42814Y-57.68086
X57.50814Y-57.68086
X62.58814Y-42.44086
X62.58814Y-37.36086
X11.90529Y-54.42166
X15.621Y-54.737
X20.574Y-55.88
X51.816Y-71.628
X56.388Y-71.628
X61.31666Y-71.628
X66.421Y-71.628
X15.113Y-34.671
X15.113Y-27.83827
X15.875Y-24.257
X14.097Y-25.527
X16.764Y-26.67
X16.969Y-40.07795
X14.97988Y-40.07795
X15.05194Y-42.672
X15.875Y-46.101
X17.526Y-44.831
X10.16Y-41.021
X10.16Y-44.81196
X10.16Y-49.16902
X49.022Y-28.956
X45.847Y-27.051
X46.99Y-37.338
X50.546Y-28.575
X50.165Y-21.717
X46.228Y-41.5415
X50.927Y-45.085
X54.102Y-46.355
M30