G04 Layer: DrillDrawingLayer*
G04 EasyEDA Pro v2.2.43.4, 2025-11-03 20:05:48*
G04 Gerber Generator version 0.3*
G04 Scale: 100 percent, Rotated: No, Reflected: No*
G04 Dimensions in millimeters*
G04 Leading zeros omitted, absolute positions, 4 integers and 5 decimals*
G04 Generated by one-click*
%FSLAX45Y45*%
%MOMM*%
%AMIconRect*4,1,4,0.2,-0.2,-0.2,-0.2,-0.2,0.2,0.2,0.2,0.2,-0.2,0*4,0,4,0.166667,-0.166667,0.166667,0.166667,-0.166667,0.166667,-0.166667,-0.166667,0.166667,-0.166667,0*%
%AMIconTriangle*4,1,3,-0.242567,0.171767,0.242567,0.171767,0,-0.2706,-0.242567,0.171767,0*4,0,3,-0.189767,0.1386,0,-0.1953,0.190167,0.1386,-0.189767,0.1386,0*%
%AMIconStar6*4,1,12,0.0862,0.1492,0.213233,0.123367,0.172367,0,0.213233,-0.1229,0.0862,-0.148733,0,-0.245767,-0.085767,-0.148733,-0.213267,-0.1229,-0.171933,0,-0.213267,0.1229,-0.085767,0.1492,0,0.245767,0.0862,0.1492,0*4,0,12,-0.000333,0.195333,-0.064333,0.122667,-0.169667,0.097667,-0.138333,-0.005333,-0.169667,-0.098,-0.064333,-0.122667,-0.000333,-0.195667,0.064333,-0.122667,0.169667,-0.098,0.138667,0.005,0.169667,0.098,0.064333,0.122333,-0.000333,0.195333,0*%
%AMIconStar4*4,1,8,-0.222667,0.222667,0,0.144667,0.222667,0.222667,0.144667,0,0.222667,-0.222667,0,-0.144667,-0.217433,-0.222667,-0.144667,0,-0.222667,0.222667,0*4,0,8,0.166667,-0.166667,0.108,0,0.166667,0.166667,0,0.108,-0.166667,0.166667,-0.108,0,-0.166667,-0.166667,0,-0.108,0.166667,-0.166667,0*%
%AMIconPlus*4,1,12,0.124,-0.2,-0.124,-0.2,-0.124,-0.124,-0.2,-0.124,-0.2,0.124,-0.124,0.124,-0.124,0.2,0.124,0.2,0.124,0.124,0.2,0.124,0.2,-0.124,0.124,-0.124,0.124,-0.2,0*4,0,12,0.090667,-0.166667,0.090667,-0.090667,0.166667,-0.090667,0.166667,0.090667,0.090667,0.090667,0.090667,0.166667,-0.090667,0.166667,-0.090667,0.090667,-0.166667,0.090667,-0.166667,-0.090667,-0.090667,-0.090667,-0.090667,-0.166667,0.090667,-0.166667,0*%
%AMIconX*4,1,16,0.2,-0.2,0.054533,-0.2,0,-0.145467,-0.054533,-0.2,-0.2,-0.2,-0.2,-0.054533,-0.145467,0,-0.2,0.054533,-0.2,0.2,-0.054533,0.2,0,0.145467,0.054533,0.2,0.2,0.2,0.2,0.054533,0.145467,0,0.2,-0.054533,0.2,-0.2,0*4,0,16,0.1668,-0.1664,0.1668,-0.068467,0.097933,0.000067,0.1668,0.068467,0.1668,0.1665,0.068467,0.1665,0,0.097933,-0.068467,0.1665,-0.1668,0.1665,-0.1668,0.068467,-0.097933,0.000067,-0.1668,-0.068467,-0.1668,-0.1664,-0.068467,-0.1664,0,-0.097933,0.068467,-0.1664,0.1668,-0.1664,0*%
%ADD10IconRect*%
%ADD11C,0.44X0.373333*%
%ADD12IconTriangle*%
%ADD13IconStar6*%
%ADD14IconStar4*%
%ADD15IconPlus*%
%ADD16IconX*%
G75*


G04 Drill Drawing Start*
G54D10*
G01X1124153Y-5163500D03*
G54D11*
G01X1564259Y-5643499D03*
G01X1914271Y-4643501D03*
G54D12*
G01X1814195Y-4903508D03*
G01X2254123Y-5593512D03*
G54D13*
G01X2730500Y-5509134D03*
G01X2730500Y-5161154D03*
G01X2730500Y-4813300D03*
G01X6565900Y-5638800D03*
G01X6972300Y-5638800D03*
G54D14*
G01X5553913Y-5080010D03*
G01X5803913Y-5080010D03*
G01X6053912Y-5080010D03*
G01X6654790Y-4796612D03*
G01X6654790Y-4546613D03*
G01X6654790Y-4296613D03*
G01X6654790Y-3729812D03*
G01X6654790Y-3479813D03*
G01X6654790Y-3229813D03*
G54D15*
G01X1866900Y-3209099D03*
G01X1866900Y-2959100D03*
G01X1866900Y-2709100D03*
G01X3403587Y-6765087D03*
G01X3403587Y-6515087D03*
G01X3403587Y-6265088D03*
G01X4051300Y-6765099D03*
G01X4051300Y-6515100D03*
G01X4051300Y-6265100D03*
G01X4436301Y-1993900D03*
G01X4686300Y-1993900D03*
G01X4936300Y-1993900D03*
G01X5528501Y-1993900D03*
G01X5778500Y-1993900D03*
G01X6028500Y-1993900D03*
G01X6654800Y-2654287D03*
G01X6654800Y-2400287D03*
G01X6654800Y-2146287D03*
G54D16*
G01X965200Y-7150100D03*
G01X990600Y-1955800D03*
G01X1016000Y-4916902D03*
G01X1016000Y-4481196D03*
G01X1016000Y-4102100D03*
G01X1066800Y-6286500D03*
G01X1143000Y-3378200D03*
G01X1143000Y-2425700D03*
G01X1181354Y-5765546D03*
G01X1181354Y-4749546D03*
G01X1190529Y-5442166D03*
G01X1193800Y-7162800D03*
G01X1206754Y-4266946D03*
G01X1219200Y-3911600D03*
G01X1270000Y-2540000D03*
G01X1319204Y-6502400D03*
G01X1357650Y-3975100D03*
G01X1409700Y-2552700D03*
G01X1497988Y-4007795D03*
G01X1505194Y-4267200D03*
G01X1511300Y-3467100D03*
G01X1511300Y-2783827D03*
G01X1562100Y-5473700D03*
G01X1587500Y-4610100D03*
G01X1587500Y-2425700D03*
G01X1663700Y-6400800D03*
G01X1676400Y-2667000D03*
G01X1686814Y-4752086D03*
G01X1686814Y-4269486D03*
G01X1689354Y-5765546D03*
G01X1689354Y-5258091D03*
G01X1689354Y-3267798D03*
G01X1696900Y-4007795D03*
G01X1727200Y-6282981D03*
G01X1752600Y-4483100D03*
G01X1790700Y-7091700D03*
G01X1892300Y-7073900D03*
G01X1892300Y-6341381D03*
G01X1917700Y-6794500D03*
G01X1980209Y-6502400D03*
G01X2006600Y-7061200D03*
G01X2057400Y-5588000D03*
G01X2133600Y-7091700D03*
G01X2194814Y-6276086D03*
G01X2194814Y-4752086D03*
G01X2197100Y-2082800D03*
G01X2197354Y-5765546D03*
G01X2197354Y-5258091D03*
G01X2197354Y-4266946D03*
G01X2197354Y-3225546D03*
G01X2197354Y-2209546D03*
G01X2339995Y-6810395D03*
G01X2373800Y-6266200D03*
G01X2374900Y-2882900D03*
G01X2501900Y-6431300D03*
G01X2628900Y-3086100D03*
G01X2628900Y-2336800D03*
G01X2646233Y-6485067D03*
G01X2705354Y-2209546D03*
G01X2717800Y-6807200D03*
G01X2901305Y-6362095D03*
G01X3099054Y-5309467D03*
G01X3213354Y-6273546D03*
G01X3213354Y-5765546D03*
G01X3213354Y-4749546D03*
G01X3213354Y-4241546D03*
G01X3213354Y-3733546D03*
G01X3213354Y-3225546D03*
G01X3213354Y-2717546D03*
G01X3213354Y-2209546D03*
G01X3269073Y-2108977D03*
G01X3365500Y-2819400D03*
G01X3479800Y-2877800D03*
G01X3556000Y-4724400D03*
G01X3581400Y-5059700D03*
G01X3619500Y-3022600D03*
G01X3718814Y-5768086D03*
G01X3721100Y-3386792D03*
G01X3721354Y-6781546D03*
G01X3721354Y-6273546D03*
G01X3721354Y-4241546D03*
G01X3721354Y-3733546D03*
G01X3797554Y-4647946D03*
G01X3810000Y-2362200D03*
G01X3886200Y-3733800D03*
G01X3937000Y-6908800D03*
G01X4051300Y-3327400D03*
G01X4165854Y-3758946D03*
G01X4165854Y-2730246D03*
G01X4176360Y-3284930D03*
G01X4216400Y-5003800D03*
G01X4226814Y-5768086D03*
G01X4229354Y-6273546D03*
G01X4229354Y-4241546D03*
G01X4229354Y-2209546D03*
G01X4249097Y-6781546D03*
G01X4254500Y-2819400D03*
G01X4342795Y-3308995D03*
G01X4480984Y-4925484D03*
G01X4584700Y-2705100D03*
G01X4614375Y-4919175D03*
G01X4622800Y-4154150D03*
G01X4699000Y-3733800D03*
G01X4724400Y-3117857D03*
G01X4733905Y-4244995D03*
G01X4734814Y-5768086D03*
G01X4737100Y-5118100D03*
G01X4737354Y-6781546D03*
G01X4737354Y-6273546D03*
G01X4826000Y-4076700D03*
G01X4902200Y-2895600D03*
G01X5016500Y-2171700D03*
G01X5054600Y-2857500D03*
G01X5092700Y-4508500D03*
G01X5181600Y-7162800D03*
G01X5181854Y-6654546D03*
G01X5234514Y-3722706D03*
G01X5242814Y-5768086D03*
G01X5245354Y-5257546D03*
G01X5245354Y-4749546D03*
G01X5245354Y-3225546D03*
G01X5245354Y-2717546D03*
G01X5245354Y-2209546D03*
G01X5410200Y-4635500D03*
G01X5486400Y-4127500D03*
G01X5626100Y-4546600D03*
G01X5638800Y-7162800D03*
G01X5639054Y-6654546D03*
G01X5702300Y-2679700D03*
G01X5724545Y-3324245D03*
G01X5750814Y-5768086D03*
G01X5753354Y-5257546D03*
G01X5753354Y-4749546D03*
G01X5905500Y-3060700D03*
G01X5905500Y-2428041D03*
G01X5943600Y-4318000D03*
G01X6032500Y-3721100D03*
G01X6131666Y-7162800D03*
G01X6134354Y-6654546D03*
G01X6235700Y-3848100D03*
G01X6258814Y-4244086D03*
G01X6258814Y-3736086D03*
G01X6261100Y-3124200D03*
G01X6261100Y-2603500D03*
G01X6261354Y-5765546D03*
G01X6261354Y-4749546D03*
G01X6261354Y-3225546D03*
G01X6261354Y-2209546D03*
G01X6426200Y-4521200D03*
G01X6451600Y-5410200D03*
G01X6464300Y-2501900D03*
G01X6489700Y-3378200D03*
G01X6642100Y-7162800D03*
G01X6655054Y-6654546D03*
G01X6692900Y-5219700D03*
G01X6769354Y-5765546D03*
G01X6819900Y-2794000D03*
G04 Drill Drawing End*

M02*

