G04 Layer: BottomSilkscreenLayer*
G04 EasyEDA Pro v2.2.43.4, 2025-11-03 20:05:48*
G04 Gerber Generator version 0.3*
G04 Scale: 100 percent, Rotated: No, Reflected: No*
G04 Dimensions in millimeters*
G04 Leading zeros omitted, absolute positions, 4 integers and 5 decimals*
G04 Generated by one-click*
%FSLAX45Y45*%
%MOMM*%
%ADD10C,0.1524*%
%ADD11C,0.6144*%
G75*


G04 Text Start*
G54D10*
G01X2959608Y-4919980D02*
G01X2869692Y-4885690D01*
G01X2959608Y-4851400D02*
G01X2869692Y-4885690D01*
G01X2946908Y-4776978D02*
G01X2869692Y-4776978D01*
G01X2908300Y-4815586D02*
G01X2908300Y-4738370D01*
G01X2925572Y-5224018D02*
G01X2934208Y-5228336D01*
G01X2942844Y-5236718D01*
G01X2946908Y-5245354D01*
G01X2946908Y-5262626D01*
G01X2942844Y-5271008D01*
G01X2934208Y-5279644D01*
G01X2925572Y-5283962D01*
G01X2912618Y-5288280D01*
G01X2891282Y-5288280D01*
G01X2878328Y-5283962D01*
G01X2869946Y-5279644D01*
G01X2861310Y-5271008D01*
G01X2856992Y-5262626D01*
G01X2856992Y-5245354D01*
G01X2861310Y-5236718D01*
G01X2869946Y-5228336D01*
G01X2878328Y-5224018D01*
G01X2891282Y-5224018D01*
G01X2891282Y-5245354D02*
G01X2891282Y-5224018D01*
G01X2946908Y-5188204D02*
G01X2856992Y-5188204D01*
G01X2946908Y-5188204D02*
G01X2856992Y-5128260D01*
G01X2946908Y-5128260D02*
G01X2856992Y-5128260D01*
G01X2946908Y-5092446D02*
G01X2856992Y-5092446D01*
G01X2946908Y-5092446D02*
G01X2946908Y-5062474D01*
G01X2942844Y-5049520D01*
G01X2934208Y-5040884D01*
G01X2925572Y-5036820D01*
G01X2912618Y-5032502D01*
G01X2891282Y-5032502D01*
G01X2878328Y-5036820D01*
G01X2869946Y-5040884D01*
G01X2861310Y-5049520D01*
G01X2856992Y-5062474D01*
G01X2856992Y-5092446D01*
G01X2959608Y-5593080D02*
G01X2869692Y-5558790D01*
G01X2959608Y-5524500D02*
G01X2869692Y-5558790D01*
G01X2908300Y-5488686D02*
G01X2908300Y-5411470D01*
G04 Text End*

M02*

