G04 Layer: TopSolderMaskLayer*
G04 EasyEDA Pro v2.2.43.4, 2025-11-03 20:05:48*
G04 Gerber Generator version 0.3*
G04 Scale: 100 percent, Rotated: No, Reflected: No*
G04 Dimensions in millimeters*
G04 Leading zeros omitted, absolute positions, 4 integers and 5 decimals*
G04 Generated by one-click*
%FSLAX45Y45*%
%MOMM*%
%AMRoundRect*1,1,$1,$2,$3*1,1,$1,$4,$5*1,1,$1,0-$2,0-$3*1,1,$1,0-$4,0-$5*20,1,$1,$2,$3,$4,$5,0*20,1,$1,$4,$5,0-$2,0-$3,0*20,1,$1,0-$2,0-$3,0-$4,0-$5,0*20,1,$1,0-$4,0-$5,$2,$3,0*4,1,4,$2,$3,$4,$5,0-$2,0-$3,0-$4,0-$5,$2,$3,0*%
%ADD10C,1.6256*%
%ADD11RoundRect,0.09549X-0.86705X-0.74556X-0.86705X0.74556*%
%ADD12RoundRect,0.08771X-0.40199X0.27695X0.40199X0.27695*%
%ADD13RoundRect,0.08771X-0.27695X-0.40199X-0.27695X0.40199*%
%ADD14RoundRect,0.09131X-0.40514X0.45514X0.40514X0.45514*%
%ADD15RoundRect,0.09138X-0.43711X-0.40835X-0.43711X0.40835*%
%ADD16RoundRect,0.09138X-0.40835X0.43711X0.40835X0.43711*%
%ADD17O,1.85161X1.5016*%
%ADD18O,1.5016X1.85161*%
%ADD19C,0.6040*%
%ADD20C,0.6016*%
%ADD21O,0.68961X2.1466*%
%ADD22O,2.1466X0.68961*%
%ADD23O,1.4016X2.1016*%
%ADD24O,2.1016X1.1016*%
%ADD25O,2.1016X1.4016*%
G75*


G04 Pad Start*
G54D10*
G01X2730500Y-4813300D03*
G01X2730500Y-5161154D03*
G01X2730500Y-5509134D03*
G01X6972300Y-5638800D03*
G01X6565900Y-5638800D03*
G54D11*
G01X3424458Y-3854077D03*
G01X3424458Y-3535561D03*
G01X3748418Y-3536577D03*
G01X3748418Y-3855093D03*
G54D12*
G01X4818583Y-2988208D03*
G01X4927600Y-2988208D03*
G01X4534146Y-2996949D03*
G01X4425130Y-2996949D03*
G01X5985408Y-4203700D03*
G01X5876392Y-4203700D03*
G01X5667908Y-4203700D03*
G01X5558892Y-4203700D03*
G54D13*
G01X5727700Y-3813708D03*
G01X5727700Y-3704692D03*
G01X5880100Y-3813708D03*
G01X5880100Y-3704692D03*
G54D14*
G01X4205168Y-4874095D03*
G01X4065163Y-4874095D03*
G01X4210202Y-5194300D03*
G01X4070198Y-5194300D03*
G54D15*
G01X2298700Y-2185264D03*
G01X2298700Y-2335936D03*
G01X2489200Y-2335936D03*
G01X2489200Y-2185264D03*
G01X1727200Y-2185264D03*
G01X1727200Y-2335936D03*
G01X1918564Y-2336800D03*
G01X1918564Y-2186127D03*
G01X1713636Y-3744773D03*
G01X1713636Y-3594100D03*
G01X2107983Y-2181821D03*
G01X2107983Y-2332493D03*
G01X1904140Y-3591521D03*
G01X1904140Y-3742193D03*
G01X2095500Y-3745636D03*
G01X2095500Y-3594964D03*
G01X3683000Y-2121764D03*
G01X3683000Y-2272436D03*
G01X3452520Y-2274879D03*
G01X3452520Y-2124206D03*
G01X4898466Y-2622290D03*
G01X4898466Y-2772962D03*
G01X4695538Y-2767485D03*
G01X4695538Y-2616812D03*
G01X4492338Y-2616812D03*
G01X4492338Y-2767485D03*
G54D16*
G01X6059347Y-4008232D03*
G01X5908674Y-4008232D03*
G01X5712409Y-4013200D03*
G01X5561736Y-4013200D03*
G01X5710851Y-4636726D03*
G01X5560178Y-4636726D03*
G01X6057036Y-4635500D03*
G01X5906364Y-4635500D03*
G01X5906364Y-4419600D03*
G01X6057036Y-4419600D03*
G01X5563464Y-4419600D03*
G01X5714136Y-4419600D03*
G01X1726336Y-6934200D03*
G01X1575664Y-6934200D03*
G01X1232764Y-6934200D03*
G01X1383436Y-6934200D03*
G01X889864Y-6934200D03*
G01X1040536Y-6934200D03*
G01X2729636Y-6934200D03*
G01X2578964Y-6934200D03*
G01X2248764Y-6934200D03*
G01X2399436Y-6934200D03*
G01X2065270Y-6936689D03*
G01X1914597Y-6936689D03*
G54D17*
G01X6654797Y-3729802D03*
G01X6654797Y-3479815D03*
G01X6654797Y-3229803D03*
G54D10*
G01X1866900Y-2959113D03*
G01X1866900Y-2709100D03*
G01X1866900Y-3209099D03*
G01X4686313Y-1993900D03*
G01X4436301Y-1993900D03*
G01X4936300Y-1993900D03*
G01X5778513Y-1993900D03*
G01X5528501Y-1993900D03*
G01X6028500Y-1993900D03*
G01X6654800Y-2400300D03*
G01X6654800Y-2146300D03*
G01X6654800Y-2654300D03*
G54D18*
G01X6053902Y-5080003D03*
G01X5803915Y-5080003D03*
G01X5553903Y-5080003D03*
G54D17*
G01X6654797Y-4796602D03*
G01X6654797Y-4546615D03*
G01X6654797Y-4296603D03*
G54D10*
G01X3403587Y-6515100D03*
G01X3403587Y-6265088D03*
G01X3403587Y-6765087D03*
G01X4051300Y-6515113D03*
G01X4051300Y-6265100D03*
G01X4051300Y-6765099D03*
G54D16*
G01X3847236Y-5194300D03*
G01X3696564Y-5194300D03*
G01X3841954Y-4885512D03*
G01X3691282Y-4885512D03*
G01X3353664Y-4889500D03*
G01X3504336Y-4889500D03*
G54D20*
G01X850900Y-2400300D03*
G01X1917700Y-1879600D03*
G01X2508780Y-3561392D03*
G01X850900Y-3467100D03*
G01X3987800Y-3556000D03*
G01X5089238Y-4406649D03*
G01X6540019Y-5284373D03*
G01X2980280Y-6552932D03*
G54D21*
G01X1397000Y-2161159D03*
G01X1270000Y-2161159D03*
G01X1143000Y-2161159D03*
G01X1016000Y-2161159D03*
G01X1397000Y-2715641D03*
G01X1270000Y-2715641D03*
G01X1143000Y-2715641D03*
G01X1016000Y-2715641D03*
G01X2755900Y-2707259D03*
G01X2628900Y-2707259D03*
G01X2501900Y-2707259D03*
G01X2374900Y-2707259D03*
G01X2755900Y-3261741D03*
G01X2628900Y-3261741D03*
G01X2501900Y-3261741D03*
G01X2374900Y-3261741D03*
G01X1017490Y-3765434D03*
G01X1144490Y-3765434D03*
G01X1271490Y-3765434D03*
G01X1398490Y-3765434D03*
G01X1017490Y-3210952D03*
G01X1144490Y-3210952D03*
G01X1271490Y-3210952D03*
G01X1398490Y-3210952D03*
G01X3746500Y-2643759D03*
G01X3619500Y-2643759D03*
G01X3492500Y-2643759D03*
G01X3365500Y-2643759D03*
G01X3746500Y-3198241D03*
G01X3619500Y-3198241D03*
G01X3492500Y-3198241D03*
G01X3365500Y-3198241D03*
G01X4876800Y-3354959D03*
G01X4749800Y-3354959D03*
G01X4622800Y-3354959D03*
G01X4495800Y-3354959D03*
G01X4876800Y-3909441D03*
G01X4749800Y-3909441D03*
G01X4622800Y-3909441D03*
G01X4495800Y-3909441D03*
G54D22*
G01X6081141Y-3441700D03*
G01X6081141Y-3314700D03*
G01X6081141Y-3187700D03*
G01X6081141Y-3060700D03*
G01X5526659Y-3441700D03*
G01X5526659Y-3314700D03*
G01X5526659Y-3187700D03*
G01X5526659Y-3060700D03*
G01X6081141Y-2806700D03*
G01X6081141Y-2679700D03*
G01X6081141Y-2552700D03*
G01X6081141Y-2425700D03*
G01X5526659Y-2806700D03*
G01X5526659Y-2679700D03*
G01X5526659Y-2552700D03*
G01X5526659Y-2425700D03*
G54D21*
G01X939800Y-6665341D03*
G01X1066800Y-6665341D03*
G01X1193800Y-6665341D03*
G01X1320800Y-6665341D03*
G01X939800Y-6110859D03*
G01X1066800Y-6110859D03*
G01X1193800Y-6110859D03*
G01X1320800Y-6110859D03*
G01X1600200Y-6665341D03*
G01X1727200Y-6665341D03*
G01X1854200Y-6665341D03*
G01X1981200Y-6665341D03*
G01X1600200Y-6110859D03*
G01X1727200Y-6110859D03*
G01X1854200Y-6110859D03*
G01X1981200Y-6110859D03*
G01X2247900Y-6665341D03*
G01X2374900Y-6665341D03*
G01X2501900Y-6665341D03*
G01X2628900Y-6665341D03*
G01X2247900Y-6110859D03*
G01X2374900Y-6110859D03*
G01X2501900Y-6110859D03*
G01X2628900Y-6110859D03*
G01X4864100Y-4751959D03*
G01X4737100Y-4751959D03*
G01X4610100Y-4751959D03*
G01X4483100Y-4751959D03*
G01X4864100Y-5306441D03*
G01X4737100Y-5306441D03*
G01X4610100Y-5306441D03*
G01X4483100Y-5306441D03*
G54D23*
G01X1124077Y-5163500D03*
G54D24*
G01X1564259Y-5643499D03*
G01X1914271Y-4643501D03*
G54D23*
G01X2254123Y-5593499D03*
G54D25*
G01X1814195Y-4903500D03*
G54D15*
G01X3264220Y-5251066D03*
G01X3264220Y-5100394D03*
G01X3457090Y-5096281D03*
G01X3457090Y-5246954D03*
G54D20*
G01X1528497Y-2956998D03*
G01X1525297Y-3209398D03*
G01X4610100Y-2273300D03*
G01X3512897Y-7185997D03*
G01X3269997Y-7187597D03*
G01X4927600Y-2273300D03*
G01X7010400Y-3225800D03*
G01X7011595Y-3480899D03*
G01X5701895Y-2275999D03*
G01X5330394Y-2366499D03*
G01X7009995Y-2398198D03*
G01X7008395Y-2623598D03*
G01X5595596Y-5414397D03*
G01X6978296Y-4768298D03*
G01X6565900Y-5130800D03*
G01X4190696Y-7182796D03*
G01X3927197Y-7184396D03*
G04 Pad End*

M02*

