G04 Layer: TopPasteMaskLayer*
G04 EasyEDA Pro v2.2.43.4, 2025-11-03 20:05:48*
G04 Gerber Generator version 0.3*
G04 Scale: 100 percent, Rotated: No, Reflected: No*
G04 Dimensions in millimeters*
G04 Leading zeros omitted, absolute positions, 4 integers and 5 decimals*
G04 Generated by one-click*
%FSLAX45Y45*%
%MOMM*%
%ADD10R,0.8X0.9*%
%ADD11C,0.5*%
%ADD12O,0.58801X2.045*%
%ADD13O,2.045X0.58801*%
%ADD14C,0.3512*%
G75*


G04 PolygonModel Start*
G36*
G01X3348058Y-3779820D02*
G01X3385083Y-3779820D01*
G01X3395083Y-3789820D01*
G01X3395083Y-3820310D01*
G01X3405083Y-3830310D01*
G01X3443834Y-3830310D01*
G01X3453834Y-3820310D01*
G01X3453834Y-3789820D01*
G01X3463834Y-3779820D01*
G01X3500859Y-3779820D01*
G01X3510859Y-3789820D01*
G01X3510859Y-3918318D01*
G01X3500859Y-3928318D01*
G01X3348058Y-3928318D01*
G01X3338058Y-3918318D01*
G01X3338058Y-3789820D01*
G01X3348058Y-3779820D01*
G37*
G36*
G01X3348058Y-3609818D02*
G01X3385083Y-3609818D01*
G01X3395083Y-3599818D01*
G01X3395083Y-3569327D01*
G01X3405083Y-3559327D01*
G01X3443834Y-3559327D01*
G01X3453834Y-3569327D01*
G01X3453834Y-3599818D01*
G01X3463834Y-3609818D01*
G01X3500859Y-3609818D01*
G01X3510859Y-3599818D01*
G01X3510859Y-3471319D01*
G01X3500859Y-3461319D01*
G01X3348058Y-3461319D01*
G01X3338058Y-3471319D01*
G01X3338058Y-3599818D01*
G01X3348058Y-3609818D01*
G37*
G36*
G01X3824818Y-3610834D02*
G01X3787793Y-3610834D01*
G01X3777793Y-3600834D01*
G01X3777793Y-3570343D01*
G01X3767793Y-3560343D01*
G01X3729043Y-3560343D01*
G01X3719043Y-3570343D01*
G01X3719043Y-3600834D01*
G01X3709043Y-3610834D01*
G01X3672017Y-3610834D01*
G01X3662017Y-3600834D01*
G01X3662017Y-3472335D01*
G01X3672017Y-3462335D01*
G01X3824818Y-3462335D01*
G01X3834818Y-3472335D01*
G01X3834818Y-3600834D01*
G01X3824818Y-3610834D01*
G37*
G36*
G01X3824818Y-3780836D02*
G01X3787793Y-3780836D01*
G01X3777793Y-3790836D01*
G01X3777793Y-3821326D01*
G01X3767793Y-3831326D01*
G01X3729043Y-3831326D01*
G01X3719043Y-3821326D01*
G01X3719043Y-3790836D01*
G01X3709043Y-3780836D01*
G01X3672017Y-3780836D01*
G01X3662017Y-3790836D01*
G01X3662017Y-3919334D01*
G01X3672017Y-3929334D01*
G01X3824818Y-3929334D01*
G01X3834818Y-3919334D01*
G01X3834818Y-3790836D01*
G01X3824818Y-3780836D01*
G37*
G36*
G01X4891095Y-3010710D02*
G01X4891095Y-2965709D01*
G01X4898093Y-2960710D01*
G01X4946094Y-2960710D01*
G01X4951095Y-2965709D01*
G01X4951095Y-3010710D01*
G01X4946094Y-3015709D01*
G01X4898093Y-3015709D01*
G01X4891095Y-3010710D01*
G37*
G36*
G01X4795093Y-3010710D02*
G01X4795093Y-2965709D01*
G01X4800095Y-2960710D01*
G01X4848093Y-2960710D01*
G01X4855093Y-2965709D01*
G01X4855093Y-3010710D01*
G01X4848093Y-3015709D01*
G01X4800095Y-3015709D01*
G01X4795093Y-3010710D01*
G37*
G36*
G01X4461634Y-2974447D02*
G01X4461634Y-3019448D01*
G01X4454637Y-3024447D01*
G01X4406636Y-3024447D01*
G01X4401635Y-3019448D01*
G01X4401635Y-2974447D01*
G01X4406636Y-2969448D01*
G01X4454637Y-2969448D01*
G01X4461634Y-2974447D01*
G37*
G36*
G01X4557636Y-2974447D02*
G01X4557636Y-3019448D01*
G01X4552635Y-3024447D01*
G01X4504637Y-3024447D01*
G01X4497636Y-3019448D01*
G01X4497636Y-2974447D01*
G01X4504637Y-2969448D01*
G01X4552635Y-2969448D01*
G01X4557636Y-2974447D01*
G37*
G36*
G01X5912896Y-4181198D02*
G01X5912896Y-4226199D01*
G01X5905899Y-4231198D01*
G01X5857898Y-4231198D01*
G01X5852897Y-4226199D01*
G01X5852897Y-4181198D01*
G01X5857898Y-4176199D01*
G01X5905899Y-4176199D01*
G01X5912896Y-4181198D01*
G37*
G36*
G01X6008898Y-4181198D02*
G01X6008898Y-4226199D01*
G01X6003897Y-4231198D01*
G01X5955899Y-4231198D01*
G01X5948898Y-4226199D01*
G01X5948898Y-4181198D01*
G01X5955899Y-4176199D01*
G01X6003897Y-4176199D01*
G01X6008898Y-4181198D01*
G37*
G36*
G01X5595396Y-4181198D02*
G01X5595396Y-4226199D01*
G01X5588399Y-4231198D01*
G01X5540398Y-4231198D01*
G01X5535397Y-4226199D01*
G01X5535397Y-4181198D01*
G01X5540398Y-4176199D01*
G01X5588399Y-4176199D01*
G01X5595396Y-4181198D01*
G37*
G36*
G01X5691398Y-4181198D02*
G01X5691398Y-4226199D01*
G01X5686397Y-4231198D01*
G01X5638399Y-4231198D01*
G01X5631398Y-4226199D01*
G01X5631398Y-4181198D01*
G01X5638399Y-4176199D01*
G01X5686397Y-4176199D01*
G01X5691398Y-4181198D01*
G37*
G36*
G01X5750202Y-3741196D02*
G01X5705201Y-3741196D01*
G01X5700202Y-3734199D01*
G01X5700202Y-3686198D01*
G01X5705201Y-3681197D01*
G01X5750202Y-3681197D01*
G01X5755201Y-3686198D01*
G01X5755201Y-3734199D01*
G01X5750202Y-3741196D01*
G37*
G36*
G01X5750202Y-3837198D02*
G01X5705201Y-3837198D01*
G01X5700202Y-3832197D01*
G01X5700202Y-3784199D01*
G01X5705201Y-3777198D01*
G01X5750202Y-3777198D01*
G01X5755201Y-3784199D01*
G01X5755201Y-3832197D01*
G01X5750202Y-3837198D01*
G37*
G36*
G01X5902602Y-3741196D02*
G01X5857601Y-3741196D01*
G01X5852602Y-3734199D01*
G01X5852602Y-3686198D01*
G01X5857601Y-3681197D01*
G01X5902602Y-3681197D01*
G01X5907601Y-3686198D01*
G01X5907601Y-3734199D01*
G01X5902602Y-3741196D01*
G37*
G36*
G01X5902602Y-3837198D02*
G01X5857601Y-3837198D01*
G01X5852602Y-3832197D01*
G01X5852602Y-3784199D01*
G01X5857601Y-3777198D01*
G01X5902602Y-3777198D01*
G01X5907601Y-3784199D01*
G01X5907601Y-3832197D01*
G01X5902602Y-3837198D01*
G37*
G36*
G01X2253701Y-2141098D02*
G01X2253701Y-2221098D01*
G01X2258703Y-2226099D01*
G01X2281499Y-2226099D01*
G01X2281499Y-2189099D01*
G01X2314499Y-2189099D01*
G01X2314499Y-2226099D01*
G01X2338702Y-2226099D01*
G01X2343701Y-2221098D01*
G01X2343701Y-2141098D01*
G01X2338702Y-2136099D01*
G01X2258703Y-2136099D01*
G01X2253701Y-2141098D01*
G37*
G36*
G01X2343699Y-2380102D02*
G01X2343699Y-2300102D01*
G01X2338697Y-2295101D01*
G01X2315901Y-2295101D01*
G01X2315901Y-2332101D01*
G01X2282901Y-2332101D01*
G01X2282901Y-2295101D01*
G01X2258698Y-2295101D01*
G01X2253699Y-2300102D01*
G01X2253699Y-2380102D01*
G01X2258698Y-2385101D01*
G01X2338697Y-2385101D01*
G01X2343699Y-2380102D01*
G37*
G36*
G01X2534199Y-2380102D02*
G01X2534199Y-2300102D01*
G01X2529197Y-2295101D01*
G01X2506401Y-2295101D01*
G01X2506401Y-2332101D01*
G01X2473401Y-2332101D01*
G01X2473401Y-2295101D01*
G01X2449198Y-2295101D01*
G01X2444199Y-2300102D01*
G01X2444199Y-2380102D01*
G01X2449198Y-2385101D01*
G01X2529197Y-2385101D01*
G01X2534199Y-2380102D01*
G37*
G36*
G01X2444201Y-2141098D02*
G01X2444201Y-2221098D01*
G01X2449203Y-2226099D01*
G01X2471999Y-2226099D01*
G01X2471999Y-2189099D01*
G01X2504999Y-2189099D01*
G01X2504999Y-2226099D01*
G01X2529202Y-2226099D01*
G01X2534201Y-2221098D01*
G01X2534201Y-2141098D01*
G01X2529202Y-2136099D01*
G01X2449203Y-2136099D01*
G01X2444201Y-2141098D01*
G37*
G36*
G01X1682201Y-2141098D02*
G01X1682201Y-2221098D01*
G01X1687203Y-2226099D01*
G01X1709999Y-2226099D01*
G01X1709999Y-2189099D01*
G01X1742999Y-2189099D01*
G01X1742999Y-2226099D01*
G01X1767202Y-2226099D01*
G01X1772201Y-2221098D01*
G01X1772201Y-2141098D01*
G01X1767202Y-2136099D01*
G01X1687203Y-2136099D01*
G01X1682201Y-2141098D01*
G37*
G36*
G01X1772199Y-2380102D02*
G01X1772199Y-2300102D01*
G01X1767197Y-2295101D01*
G01X1744401Y-2295101D01*
G01X1744401Y-2332101D01*
G01X1711401Y-2332101D01*
G01X1711401Y-2295101D01*
G01X1687198Y-2295101D01*
G01X1682199Y-2300102D01*
G01X1682199Y-2380102D01*
G01X1687198Y-2385101D01*
G01X1767197Y-2385101D01*
G01X1772199Y-2380102D01*
G37*
G36*
G01X1963562Y-2380966D02*
G01X1963562Y-2300966D01*
G01X1958561Y-2295964D01*
G01X1935764Y-2295964D01*
G01X1935764Y-2332965D01*
G01X1902765Y-2332965D01*
G01X1902765Y-2295964D01*
G01X1878561Y-2295964D01*
G01X1873562Y-2300966D01*
G01X1873562Y-2380966D01*
G01X1878561Y-2385964D01*
G01X1958561Y-2385964D01*
G01X1963562Y-2380966D01*
G37*
G36*
G01X1873565Y-2141962D02*
G01X1873565Y-2221962D01*
G01X1878566Y-2226963D01*
G01X1901363Y-2226963D01*
G01X1901363Y-2189963D01*
G01X1934362Y-2189963D01*
G01X1934362Y-2226963D01*
G01X1958566Y-2226963D01*
G01X1963565Y-2221962D01*
G01X1963565Y-2141962D01*
G01X1958566Y-2136963D01*
G01X1878566Y-2136963D01*
G01X1873565Y-2141962D01*
G37*
G36*
G01X1758635Y-3788938D02*
G01X1758635Y-3708938D01*
G01X1753634Y-3703937D01*
G01X1730837Y-3703937D01*
G01X1730837Y-3740937D01*
G01X1697838Y-3740937D01*
G01X1697838Y-3703937D01*
G01X1673634Y-3703937D01*
G01X1668635Y-3708938D01*
G01X1668635Y-3788938D01*
G01X1673634Y-3793937D01*
G01X1753634Y-3793937D01*
G01X1758635Y-3788938D01*
G37*
G36*
G01X1668638Y-3549934D02*
G01X1668638Y-3629934D01*
G01X1673639Y-3634936D01*
G01X1696436Y-3634936D01*
G01X1696436Y-3597935D01*
G01X1729435Y-3597935D01*
G01X1729435Y-3634936D01*
G01X1753639Y-3634936D01*
G01X1758638Y-3629934D01*
G01X1758638Y-3549934D01*
G01X1753639Y-3544936D01*
G01X1673639Y-3544936D01*
G01X1668638Y-3549934D01*
G37*
G36*
G01X2062984Y-2137655D02*
G01X2062984Y-2217655D01*
G01X2067985Y-2222656D01*
G01X2090782Y-2222656D01*
G01X2090782Y-2185656D01*
G01X2123782Y-2185656D01*
G01X2123782Y-2222656D01*
G01X2147985Y-2222656D01*
G01X2152984Y-2217655D01*
G01X2152984Y-2137655D01*
G01X2147985Y-2132656D01*
G01X2067985Y-2132656D01*
G01X2062984Y-2137655D01*
G37*
G36*
G01X2152981Y-2376659D02*
G01X2152981Y-2296659D01*
G01X2147980Y-2291658D01*
G01X2125184Y-2291658D01*
G01X2125184Y-2328658D01*
G01X2092184Y-2328658D01*
G01X2092184Y-2291658D01*
G01X2067980Y-2291658D01*
G01X2062982Y-2296659D01*
G01X2062982Y-2376659D01*
G01X2067980Y-2381658D01*
G01X2147980Y-2381658D01*
G01X2152981Y-2376659D01*
G37*
G36*
G01X1859142Y-3547355D02*
G01X1859142Y-3627355D01*
G01X1864143Y-3632356D01*
G01X1886939Y-3632356D01*
G01X1886939Y-3595356D01*
G01X1919939Y-3595356D01*
G01X1919939Y-3632356D01*
G01X1944143Y-3632356D01*
G01X1949141Y-3627355D01*
G01X1949141Y-3547355D01*
G01X1944143Y-3542356D01*
G01X1864143Y-3542356D01*
G01X1859142Y-3547355D01*
G37*
G36*
G01X1949139Y-3786359D02*
G01X1949139Y-3706359D01*
G01X1944138Y-3701358D01*
G01X1921341Y-3701358D01*
G01X1921341Y-3738358D01*
G01X1888341Y-3738358D01*
G01X1888341Y-3701358D01*
G01X1864138Y-3701358D01*
G01X1859139Y-3706359D01*
G01X1859139Y-3786359D01*
G01X1864138Y-3791358D01*
G01X1944138Y-3791358D01*
G01X1949139Y-3786359D01*
G37*
G36*
G01X2140499Y-3789802D02*
G01X2140499Y-3709802D01*
G01X2135497Y-3704801D01*
G01X2112701Y-3704801D01*
G01X2112701Y-3741801D01*
G01X2079701Y-3741801D01*
G01X2079701Y-3704801D01*
G01X2055498Y-3704801D01*
G01X2050499Y-3709802D01*
G01X2050499Y-3789802D01*
G01X2055498Y-3794801D01*
G01X2135497Y-3794801D01*
G01X2140499Y-3789802D01*
G37*
G36*
G01X2050501Y-3550798D02*
G01X2050501Y-3630798D01*
G01X2055503Y-3635799D01*
G01X2078299Y-3635799D01*
G01X2078299Y-3598799D01*
G01X2111299Y-3598799D01*
G01X2111299Y-3635799D01*
G01X2135502Y-3635799D01*
G01X2140501Y-3630798D01*
G01X2140501Y-3550798D01*
G01X2135502Y-3545799D01*
G01X2055503Y-3545799D01*
G01X2050501Y-3550798D01*
G37*
G36*
G01X3638001Y-2077598D02*
G01X3638001Y-2157598D01*
G01X3643003Y-2162599D01*
G01X3665799Y-2162599D01*
G01X3665799Y-2125599D01*
G01X3698799Y-2125599D01*
G01X3698799Y-2162599D01*
G01X3723002Y-2162599D01*
G01X3728001Y-2157598D01*
G01X3728001Y-2077598D01*
G01X3723002Y-2072599D01*
G01X3643003Y-2072599D01*
G01X3638001Y-2077598D01*
G37*
G36*
G01X3727999Y-2316602D02*
G01X3727999Y-2236602D01*
G01X3722997Y-2231601D01*
G01X3700201Y-2231601D01*
G01X3700201Y-2268601D01*
G01X3667201Y-2268601D01*
G01X3667201Y-2231601D01*
G01X3642998Y-2231601D01*
G01X3637999Y-2236602D01*
G01X3637999Y-2316602D01*
G01X3642998Y-2321601D01*
G01X3722997Y-2321601D01*
G01X3727999Y-2316602D01*
G37*
G36*
G01X3497519Y-2319044D02*
G01X3497519Y-2239044D01*
G01X3492518Y-2234043D01*
G01X3469721Y-2234043D01*
G01X3469721Y-2271043D01*
G01X3436722Y-2271043D01*
G01X3436722Y-2234043D01*
G01X3412518Y-2234043D01*
G01X3407519Y-2239044D01*
G01X3407519Y-2319044D01*
G01X3412518Y-2324043D01*
G01X3492518Y-2324043D01*
G01X3497519Y-2319044D01*
G37*
G36*
G01X3407522Y-2080040D02*
G01X3407522Y-2160040D01*
G01X3412523Y-2165041D01*
G01X3435320Y-2165041D01*
G01X3435320Y-2128041D01*
G01X3468319Y-2128041D01*
G01X3468319Y-2165041D01*
G01X3492523Y-2165041D01*
G01X3497522Y-2160040D01*
G01X3497522Y-2080040D01*
G01X3492523Y-2075042D01*
G01X3412523Y-2075042D01*
G01X3407522Y-2080040D01*
G37*
G36*
G01X4853468Y-2578124D02*
G01X4853468Y-2658124D01*
G01X4858469Y-2663125D01*
G01X4881265Y-2663125D01*
G01X4881265Y-2626125D01*
G01X4914265Y-2626125D01*
G01X4914265Y-2663125D01*
G01X4938469Y-2663125D01*
G01X4943467Y-2658124D01*
G01X4943467Y-2578124D01*
G01X4938469Y-2573125D01*
G01X4858469Y-2573125D01*
G01X4853468Y-2578124D01*
G37*
G36*
G01X4943465Y-2817128D02*
G01X4943465Y-2737128D01*
G01X4938464Y-2732127D01*
G01X4915667Y-2732127D01*
G01X4915667Y-2769127D01*
G01X4882667Y-2769127D01*
G01X4882667Y-2732127D01*
G01X4858464Y-2732127D01*
G01X4853465Y-2737128D01*
G01X4853465Y-2817128D01*
G01X4858464Y-2822127D01*
G01X4938464Y-2822127D01*
G01X4943465Y-2817128D01*
G37*
G36*
G01X4740537Y-2811650D02*
G01X4740537Y-2731651D01*
G01X4735535Y-2726649D01*
G01X4712739Y-2726649D01*
G01X4712739Y-2763650D01*
G01X4679739Y-2763650D01*
G01X4679739Y-2726649D01*
G01X4655536Y-2726649D01*
G01X4650537Y-2731651D01*
G01X4650537Y-2811650D01*
G01X4655536Y-2816649D01*
G01X4735535Y-2816649D01*
G01X4740537Y-2811650D01*
G37*
G36*
G01X4650539Y-2572647D02*
G01X4650539Y-2652646D01*
G01X4655541Y-2657648D01*
G01X4678337Y-2657648D01*
G01X4678337Y-2620648D01*
G01X4711337Y-2620648D01*
G01X4711337Y-2657648D01*
G01X4735540Y-2657648D01*
G01X4740539Y-2652646D01*
G01X4740539Y-2572647D01*
G01X4735540Y-2567648D01*
G01X4655541Y-2567648D01*
G01X4650539Y-2572647D01*
G37*
G36*
G01X4447339Y-2572647D02*
G01X4447339Y-2652646D01*
G01X4452341Y-2657648D01*
G01X4475137Y-2657648D01*
G01X4475137Y-2620648D01*
G01X4508137Y-2620648D01*
G01X4508137Y-2657648D01*
G01X4532340Y-2657648D01*
G01X4537339Y-2652646D01*
G01X4537339Y-2572647D01*
G01X4532340Y-2567648D01*
G01X4452341Y-2567648D01*
G01X4447339Y-2572647D01*
G37*
G36*
G01X4537337Y-2811650D02*
G01X4537337Y-2731651D01*
G01X4532335Y-2726649D01*
G01X4509539Y-2726649D01*
G01X4509539Y-2763650D01*
G01X4476539Y-2763650D01*
G01X4476539Y-2726649D01*
G01X4452336Y-2726649D01*
G01X4447337Y-2731651D01*
G01X4447337Y-2811650D01*
G01X4452336Y-2816649D01*
G01X4532335Y-2816649D01*
G01X4537337Y-2811650D01*
G37*
G36*
G01X6103512Y-3963233D02*
G01X6023512Y-3963233D01*
G01X6018511Y-3968234D01*
G01X6018511Y-3991031D01*
G01X6055511Y-3991031D01*
G01X6055511Y-4024031D01*
G01X6018511Y-4024031D01*
G01X6018511Y-4048234D01*
G01X6023512Y-4053233D01*
G01X6103512Y-4053233D01*
G01X6108511Y-4048234D01*
G01X6108511Y-3968234D01*
G01X6103512Y-3963233D01*
G37*
G36*
G01X5864508Y-4053230D02*
G01X5944508Y-4053230D01*
G01X5949509Y-4048229D01*
G01X5949509Y-4025433D01*
G01X5912509Y-4025433D01*
G01X5912509Y-3992433D01*
G01X5949509Y-3992433D01*
G01X5949509Y-3968229D01*
G01X5944508Y-3963231D01*
G01X5864508Y-3963231D01*
G01X5859509Y-3968229D01*
G01X5859509Y-4048229D01*
G01X5864508Y-4053230D01*
G37*
G36*
G01X5756575Y-3968201D02*
G01X5676575Y-3968201D01*
G01X5671574Y-3973203D01*
G01X5671574Y-3995999D01*
G01X5708574Y-3995999D01*
G01X5708574Y-4028999D01*
G01X5671574Y-4028999D01*
G01X5671574Y-4053202D01*
G01X5676575Y-4058201D01*
G01X5756575Y-4058201D01*
G01X5761573Y-4053202D01*
G01X5761573Y-3973203D01*
G01X5756575Y-3968201D01*
G37*
G36*
G01X5517571Y-4058199D02*
G01X5597571Y-4058199D01*
G01X5602572Y-4053197D01*
G01X5602572Y-4030401D01*
G01X5565572Y-4030401D01*
G01X5565572Y-3997401D01*
G01X5602572Y-3997401D01*
G01X5602572Y-3973198D01*
G01X5597571Y-3968199D01*
G01X5517571Y-3968199D01*
G01X5512572Y-3973198D01*
G01X5512572Y-4053197D01*
G01X5517571Y-4058199D01*
G37*
G36*
G01X5755016Y-4591727D02*
G01X5675017Y-4591727D01*
G01X5670015Y-4596728D01*
G01X5670015Y-4619525D01*
G01X5707016Y-4619525D01*
G01X5707016Y-4652524D01*
G01X5670015Y-4652524D01*
G01X5670015Y-4676728D01*
G01X5675017Y-4681727D01*
G01X5755016Y-4681727D01*
G01X5760015Y-4676728D01*
G01X5760015Y-4596728D01*
G01X5755016Y-4591727D01*
G37*
G36*
G01X5516013Y-4681724D02*
G01X5596012Y-4681724D01*
G01X5601014Y-4676723D01*
G01X5601014Y-4653926D01*
G01X5564014Y-4653926D01*
G01X5564014Y-4620927D01*
G01X5601014Y-4620927D01*
G01X5601014Y-4596723D01*
G01X5596012Y-4591724D01*
G01X5516013Y-4591724D01*
G01X5511014Y-4596723D01*
G01X5511014Y-4676723D01*
G01X5516013Y-4681724D01*
G37*
G36*
G01X6101202Y-4590501D02*
G01X6021202Y-4590501D01*
G01X6016201Y-4595503D01*
G01X6016201Y-4618299D01*
G01X6053201Y-4618299D01*
G01X6053201Y-4651299D01*
G01X6016201Y-4651299D01*
G01X6016201Y-4675502D01*
G01X6021202Y-4680501D01*
G01X6101202Y-4680501D01*
G01X6106201Y-4675502D01*
G01X6106201Y-4595503D01*
G01X6101202Y-4590501D01*
G37*
G36*
G01X5862198Y-4680499D02*
G01X5942198Y-4680499D01*
G01X5947199Y-4675497D01*
G01X5947199Y-4652701D01*
G01X5910199Y-4652701D01*
G01X5910199Y-4619701D01*
G01X5947199Y-4619701D01*
G01X5947199Y-4595498D01*
G01X5942198Y-4590499D01*
G01X5862198Y-4590499D01*
G01X5857199Y-4595498D01*
G01X5857199Y-4675497D01*
G01X5862198Y-4680499D01*
G37*
G36*
G01X5862198Y-4464599D02*
G01X5942198Y-4464599D01*
G01X5947199Y-4459597D01*
G01X5947199Y-4436801D01*
G01X5910199Y-4436801D01*
G01X5910199Y-4403801D01*
G01X5947199Y-4403801D01*
G01X5947199Y-4379598D01*
G01X5942198Y-4374599D01*
G01X5862198Y-4374599D01*
G01X5857199Y-4379598D01*
G01X5857199Y-4459597D01*
G01X5862198Y-4464599D01*
G37*
G36*
G01X6101202Y-4374601D02*
G01X6021202Y-4374601D01*
G01X6016201Y-4379603D01*
G01X6016201Y-4402399D01*
G01X6053201Y-4402399D01*
G01X6053201Y-4435399D01*
G01X6016201Y-4435399D01*
G01X6016201Y-4459602D01*
G01X6021202Y-4464601D01*
G01X6101202Y-4464601D01*
G01X6106201Y-4459602D01*
G01X6106201Y-4379603D01*
G01X6101202Y-4374601D01*
G37*
G36*
G01X5519298Y-4464599D02*
G01X5599298Y-4464599D01*
G01X5604299Y-4459597D01*
G01X5604299Y-4436801D01*
G01X5567299Y-4436801D01*
G01X5567299Y-4403801D01*
G01X5604299Y-4403801D01*
G01X5604299Y-4379598D01*
G01X5599298Y-4374599D01*
G01X5519298Y-4374599D01*
G01X5514299Y-4379598D01*
G01X5514299Y-4459597D01*
G01X5519298Y-4464599D01*
G37*
G36*
G01X5758302Y-4374601D02*
G01X5678302Y-4374601D01*
G01X5673301Y-4379603D01*
G01X5673301Y-4402399D01*
G01X5710301Y-4402399D01*
G01X5710301Y-4435399D01*
G01X5673301Y-4435399D01*
G01X5673301Y-4459602D01*
G01X5678302Y-4464601D01*
G01X5758302Y-4464601D01*
G01X5763301Y-4459602D01*
G01X5763301Y-4379603D01*
G01X5758302Y-4374601D01*
G37*
G36*
G01X1770502Y-6889201D02*
G01X1690502Y-6889201D01*
G01X1685501Y-6894203D01*
G01X1685501Y-6916999D01*
G01X1722501Y-6916999D01*
G01X1722501Y-6949999D01*
G01X1685501Y-6949999D01*
G01X1685501Y-6974202D01*
G01X1690502Y-6979201D01*
G01X1770502Y-6979201D01*
G01X1775501Y-6974202D01*
G01X1775501Y-6894203D01*
G01X1770502Y-6889201D01*
G37*
G36*
G01X1531498Y-6979199D02*
G01X1611498Y-6979199D01*
G01X1616499Y-6974197D01*
G01X1616499Y-6951401D01*
G01X1579499Y-6951401D01*
G01X1579499Y-6918401D01*
G01X1616499Y-6918401D01*
G01X1616499Y-6894198D01*
G01X1611498Y-6889199D01*
G01X1531498Y-6889199D01*
G01X1526499Y-6894198D01*
G01X1526499Y-6974197D01*
G01X1531498Y-6979199D01*
G37*
G36*
G01X1188598Y-6979199D02*
G01X1268598Y-6979199D01*
G01X1273599Y-6974197D01*
G01X1273599Y-6951401D01*
G01X1236599Y-6951401D01*
G01X1236599Y-6918401D01*
G01X1273599Y-6918401D01*
G01X1273599Y-6894198D01*
G01X1268598Y-6889199D01*
G01X1188598Y-6889199D01*
G01X1183599Y-6894198D01*
G01X1183599Y-6974197D01*
G01X1188598Y-6979199D01*
G37*
G36*
G01X1427602Y-6889201D02*
G01X1347602Y-6889201D01*
G01X1342601Y-6894203D01*
G01X1342601Y-6916999D01*
G01X1379601Y-6916999D01*
G01X1379601Y-6949999D01*
G01X1342601Y-6949999D01*
G01X1342601Y-6974202D01*
G01X1347602Y-6979201D01*
G01X1427602Y-6979201D01*
G01X1432601Y-6974202D01*
G01X1432601Y-6894203D01*
G01X1427602Y-6889201D01*
G37*
G36*
G01X845698Y-6979199D02*
G01X925698Y-6979199D01*
G01X930699Y-6974197D01*
G01X930699Y-6951401D01*
G01X893699Y-6951401D01*
G01X893699Y-6918401D01*
G01X930699Y-6918401D01*
G01X930699Y-6894198D01*
G01X925698Y-6889199D01*
G01X845698Y-6889199D01*
G01X840699Y-6894198D01*
G01X840699Y-6974197D01*
G01X845698Y-6979199D01*
G37*
G36*
G01X1084702Y-6889201D02*
G01X1004702Y-6889201D01*
G01X999701Y-6894203D01*
G01X999701Y-6916999D01*
G01X1036701Y-6916999D01*
G01X1036701Y-6949999D01*
G01X999701Y-6949999D01*
G01X999701Y-6974202D01*
G01X1004702Y-6979201D01*
G01X1084702Y-6979201D01*
G01X1089701Y-6974202D01*
G01X1089701Y-6894203D01*
G01X1084702Y-6889201D01*
G37*
G36*
G01X2773802Y-6889201D02*
G01X2693802Y-6889201D01*
G01X2688801Y-6894203D01*
G01X2688801Y-6916999D01*
G01X2725801Y-6916999D01*
G01X2725801Y-6949999D01*
G01X2688801Y-6949999D01*
G01X2688801Y-6974202D01*
G01X2693802Y-6979201D01*
G01X2773802Y-6979201D01*
G01X2778801Y-6974202D01*
G01X2778801Y-6894203D01*
G01X2773802Y-6889201D01*
G37*
G36*
G01X2534798Y-6979199D02*
G01X2614798Y-6979199D01*
G01X2619799Y-6974197D01*
G01X2619799Y-6951401D01*
G01X2582799Y-6951401D01*
G01X2582799Y-6918401D01*
G01X2619799Y-6918401D01*
G01X2619799Y-6894198D01*
G01X2614798Y-6889199D01*
G01X2534798Y-6889199D01*
G01X2529799Y-6894198D01*
G01X2529799Y-6974197D01*
G01X2534798Y-6979199D01*
G37*
G36*
G01X2204598Y-6979199D02*
G01X2284598Y-6979199D01*
G01X2289599Y-6974197D01*
G01X2289599Y-6951401D01*
G01X2252599Y-6951401D01*
G01X2252599Y-6918401D01*
G01X2289599Y-6918401D01*
G01X2289599Y-6894198D01*
G01X2284598Y-6889199D01*
G01X2204598Y-6889199D01*
G01X2199599Y-6894198D01*
G01X2199599Y-6974197D01*
G01X2204598Y-6979199D01*
G37*
G36*
G01X2443602Y-6889201D02*
G01X2363602Y-6889201D01*
G01X2358601Y-6894203D01*
G01X2358601Y-6916999D01*
G01X2395601Y-6916999D01*
G01X2395601Y-6949999D01*
G01X2358601Y-6949999D01*
G01X2358601Y-6974202D01*
G01X2363602Y-6979201D01*
G01X2443602Y-6979201D01*
G01X2448601Y-6974202D01*
G01X2448601Y-6894203D01*
G01X2443602Y-6889201D01*
G37*
G36*
G01X2109436Y-6891691D02*
G01X2029436Y-6891691D01*
G01X2024435Y-6896692D01*
G01X2024435Y-6919488D01*
G01X2061435Y-6919488D01*
G01X2061435Y-6952488D01*
G01X2024435Y-6952488D01*
G01X2024435Y-6976692D01*
G01X2029436Y-6981690D01*
G01X2109436Y-6981690D01*
G01X2114434Y-6976692D01*
G01X2114434Y-6896692D01*
G01X2109436Y-6891691D01*
G37*
G36*
G01X1870432Y-6981688D02*
G01X1950432Y-6981688D01*
G01X1955433Y-6976687D01*
G01X1955433Y-6953890D01*
G01X1918433Y-6953890D01*
G01X1918433Y-6920890D01*
G01X1955433Y-6920890D01*
G01X1955433Y-6896687D01*
G01X1950432Y-6891688D01*
G01X1870432Y-6891688D01*
G01X1865433Y-6896687D01*
G01X1865433Y-6976687D01*
G01X1870432Y-6981688D01*
G37*
G36*
G01X3891402Y-5149301D02*
G01X3811402Y-5149301D01*
G01X3806401Y-5154303D01*
G01X3806401Y-5177099D01*
G01X3843401Y-5177099D01*
G01X3843401Y-5210099D01*
G01X3806401Y-5210099D01*
G01X3806401Y-5234302D01*
G01X3811402Y-5239301D01*
G01X3891402Y-5239301D01*
G01X3896401Y-5234302D01*
G01X3896401Y-5154303D01*
G01X3891402Y-5149301D01*
G37*
G36*
G01X3652398Y-5239299D02*
G01X3732398Y-5239299D01*
G01X3737399Y-5234297D01*
G01X3737399Y-5211501D01*
G01X3700399Y-5211501D01*
G01X3700399Y-5178501D01*
G01X3737399Y-5178501D01*
G01X3737399Y-5154298D01*
G01X3732398Y-5149299D01*
G01X3652398Y-5149299D01*
G01X3647399Y-5154298D01*
G01X3647399Y-5234297D01*
G01X3652398Y-5239299D01*
G37*
G36*
G01X3886120Y-4840514D02*
G01X3806120Y-4840514D01*
G01X3801119Y-4845515D01*
G01X3801119Y-4868311D01*
G01X3838119Y-4868311D01*
G01X3838119Y-4901311D01*
G01X3801119Y-4901311D01*
G01X3801119Y-4925515D01*
G01X3806120Y-4930513D01*
G01X3886120Y-4930513D01*
G01X3891119Y-4925515D01*
G01X3891119Y-4845515D01*
G01X3886120Y-4840514D01*
G37*
G36*
G01X3647116Y-4930511D02*
G01X3727116Y-4930511D01*
G01X3732117Y-4925510D01*
G01X3732117Y-4902713D01*
G01X3695117Y-4902713D01*
G01X3695117Y-4869713D01*
G01X3732117Y-4869713D01*
G01X3732117Y-4845510D01*
G01X3727116Y-4840511D01*
G01X3647116Y-4840511D01*
G01X3642117Y-4845510D01*
G01X3642117Y-4925510D01*
G01X3647116Y-4930511D01*
G37*
G36*
G01X3309498Y-4934499D02*
G01X3389498Y-4934499D01*
G01X3394499Y-4929497D01*
G01X3394499Y-4906701D01*
G01X3357499Y-4906701D01*
G01X3357499Y-4873701D01*
G01X3394499Y-4873701D01*
G01X3394499Y-4849498D01*
G01X3389498Y-4844499D01*
G01X3309498Y-4844499D01*
G01X3304499Y-4849498D01*
G01X3304499Y-4929497D01*
G01X3309498Y-4934499D01*
G37*
G36*
G01X3548502Y-4844501D02*
G01X3468502Y-4844501D01*
G01X3463501Y-4849503D01*
G01X3463501Y-4872299D01*
G01X3500501Y-4872299D01*
G01X3500501Y-4905299D01*
G01X3463501Y-4905299D01*
G01X3463501Y-4929502D01*
G01X3468502Y-4934501D01*
G01X3548502Y-4934501D01*
G01X3553501Y-4929502D01*
G01X3553501Y-4849503D01*
G01X3548502Y-4844501D01*
G37*
G36*
G01X3309219Y-5295232D02*
G01X3309219Y-5215232D01*
G01X3304217Y-5210231D01*
G01X3281421Y-5210231D01*
G01X3281421Y-5247231D01*
G01X3248421Y-5247231D01*
G01X3248421Y-5210231D01*
G01X3224218Y-5210231D01*
G01X3219219Y-5215232D01*
G01X3219219Y-5295232D01*
G01X3224218Y-5300231D01*
G01X3304217Y-5300231D01*
G01X3309219Y-5295232D01*
G37*
G36*
G01X3219221Y-5056228D02*
G01X3219221Y-5136228D01*
G01X3224223Y-5141229D01*
G01X3247019Y-5141229D01*
G01X3247019Y-5104229D01*
G01X3280019Y-5104229D01*
G01X3280019Y-5141229D01*
G01X3304223Y-5141229D01*
G01X3309221Y-5136228D01*
G01X3309221Y-5056228D01*
G01X3304223Y-5051229D01*
G01X3224223Y-5051229D01*
G01X3219221Y-5056228D01*
G37*
G36*
G01X3412091Y-5052116D02*
G01X3412091Y-5132116D01*
G01X3417092Y-5137117D01*
G01X3439889Y-5137117D01*
G01X3439889Y-5100117D01*
G01X3472889Y-5100117D01*
G01X3472889Y-5137117D01*
G01X3497092Y-5137117D01*
G01X3502091Y-5132116D01*
G01X3502091Y-5052116D01*
G01X3497092Y-5047117D01*
G01X3417092Y-5047117D01*
G01X3412091Y-5052116D01*
G37*
G36*
G01X3502089Y-5291120D02*
G01X3502089Y-5211120D01*
G01X3497087Y-5206119D01*
G01X3474291Y-5206119D01*
G01X3474291Y-5243119D01*
G01X3441291Y-5243119D01*
G01X3441291Y-5206119D01*
G01X3417087Y-5206119D01*
G01X3412089Y-5211120D01*
G01X3412089Y-5291120D01*
G01X3417087Y-5296118D01*
G01X3497087Y-5296118D01*
G01X3502089Y-5291120D01*
G37*

G04 Pad Start*
G54D10*
G01X4205168Y-4874095D03*
G01X4065163Y-4874095D03*
G01X4210202Y-5194300D03*
G01X4070198Y-5194300D03*
G54D11*
G01X850900Y-2400300D03*
G01X1917700Y-1879600D03*
G01X2508780Y-3561392D03*
G01X850900Y-3467100D03*
G01X3987800Y-3556000D03*
G01X5089238Y-4406649D03*
G01X6540019Y-5284373D03*
G01X2980280Y-6552932D03*
G54D12*
G01X1397000Y-2161159D03*
G01X1270000Y-2161159D03*
G01X1143000Y-2161159D03*
G01X1016000Y-2161159D03*
G01X1397000Y-2715641D03*
G01X1270000Y-2715641D03*
G01X1143000Y-2715641D03*
G01X1016000Y-2715641D03*
G01X2755900Y-2707259D03*
G01X2628900Y-2707259D03*
G01X2501900Y-2707259D03*
G01X2374900Y-2707259D03*
G01X2755900Y-3261741D03*
G01X2628900Y-3261741D03*
G01X2501900Y-3261741D03*
G01X2374900Y-3261741D03*
G01X1017490Y-3765434D03*
G01X1144490Y-3765434D03*
G01X1271490Y-3765434D03*
G01X1398490Y-3765434D03*
G01X1017490Y-3210952D03*
G01X1144490Y-3210952D03*
G01X1271490Y-3210952D03*
G01X1398490Y-3210952D03*
G01X3746500Y-2643759D03*
G01X3619500Y-2643759D03*
G01X3492500Y-2643759D03*
G01X3365500Y-2643759D03*
G01X3746500Y-3198241D03*
G01X3619500Y-3198241D03*
G01X3492500Y-3198241D03*
G01X3365500Y-3198241D03*
G01X4876800Y-3354959D03*
G01X4749800Y-3354959D03*
G01X4622800Y-3354959D03*
G01X4495800Y-3354959D03*
G01X4876800Y-3909441D03*
G01X4749800Y-3909441D03*
G01X4622800Y-3909441D03*
G01X4495800Y-3909441D03*
G54D13*
G01X6081141Y-3441700D03*
G01X6081141Y-3314700D03*
G01X6081141Y-3187700D03*
G01X6081141Y-3060700D03*
G01X5526659Y-3441700D03*
G01X5526659Y-3314700D03*
G01X5526659Y-3187700D03*
G01X5526659Y-3060700D03*
G01X6081141Y-2806700D03*
G01X6081141Y-2679700D03*
G01X6081141Y-2552700D03*
G01X6081141Y-2425700D03*
G01X5526659Y-2806700D03*
G01X5526659Y-2679700D03*
G01X5526659Y-2552700D03*
G01X5526659Y-2425700D03*
G54D12*
G01X939800Y-6665341D03*
G01X1066800Y-6665341D03*
G01X1193800Y-6665341D03*
G01X1320800Y-6665341D03*
G01X939800Y-6110859D03*
G01X1066800Y-6110859D03*
G01X1193800Y-6110859D03*
G01X1320800Y-6110859D03*
G01X1600200Y-6665341D03*
G01X1727200Y-6665341D03*
G01X1854200Y-6665341D03*
G01X1981200Y-6665341D03*
G01X1600200Y-6110859D03*
G01X1727200Y-6110859D03*
G01X1854200Y-6110859D03*
G01X1981200Y-6110859D03*
G01X2247900Y-6665341D03*
G01X2374900Y-6665341D03*
G01X2501900Y-6665341D03*
G01X2628900Y-6665341D03*
G01X2247900Y-6110859D03*
G01X2374900Y-6110859D03*
G01X2501900Y-6110859D03*
G01X2628900Y-6110859D03*
G01X4864100Y-4751959D03*
G01X4737100Y-4751959D03*
G01X4610100Y-4751959D03*
G01X4483100Y-4751959D03*
G01X4864100Y-5306441D03*
G01X4737100Y-5306441D03*
G01X4610100Y-5306441D03*
G01X4483100Y-5306441D03*
G54D11*
G01X1528497Y-2956998D03*
G01X1525297Y-3209398D03*
G01X4610100Y-2273300D03*
G01X3512897Y-7185997D03*
G01X3269997Y-7187597D03*
G01X4927600Y-2273300D03*
G01X7010400Y-3225800D03*
G01X7011595Y-3480899D03*
G01X5701895Y-2275999D03*
G01X5330394Y-2366499D03*
G01X7009995Y-2398198D03*
G01X7008395Y-2623598D03*
G01X5595596Y-5414397D03*
G01X6978296Y-4768298D03*
G01X6565900Y-5130800D03*
G01X4190696Y-7182796D03*
G01X3927197Y-7184396D03*
G04 Pad End*

M02*

