G04 Layer: TopSilkscreenLayer*
G04 EasyEDA Pro v2.2.43.4, 2025-11-03 20:05:48*
G04 Gerber Generator version 0.3*
G04 Scale: 100 percent, Rotated: No, Reflected: No*
G04 Dimensions in millimeters*
G04 Leading zeros omitted, absolute positions, 4 integers and 5 decimals*
G04 Generated by one-click*
%FSLAX45Y45*%
%MOMM*%
%ADD10C,0.1524*%
%ADD11C,0.2032*%
%ADD12C,0.127*%
%ADD13C,0.254*%
%ADD14C,0.15199*%
%ADD15C,0.3017*%
%ADD16C,0.3*%
G75*


G04 Image Start*
G36*
G01X6747933Y-6553200D02*
G01X5054600Y-6553200D01*
G01X5054600Y-6484144D01*
G01X5133471Y-6484144D01*
G01X5133943Y-6486179D01*
G01X5134416Y-6488215D01*
G01X5135611Y-6489487D01*
G01X5136805Y-6490758D01*
G01X5138259Y-6490758D01*
G01X5140450Y-6491817D01*
G01X5142640Y-6492875D01*
G01X5142640Y-6492875D01*
G01X5179453Y-6492875D01*
G01X5182246Y-6491626D01*
G01X5185040Y-6490378D01*
G01X5186797Y-6487319D01*
G01X5191260Y-6487319D01*
G01X5192295Y-6489468D01*
G01X5193330Y-6491617D01*
G01X5194263Y-6492200D01*
G01X5194263Y-6492200D01*
G01X5195197Y-6492783D01*
G01X5197766Y-6490494D01*
G01X5198679Y-6489057D01*
G01X5199592Y-6487621D01*
G01X5199592Y-6482027D01*
G01X5203710Y-6482027D01*
G01X5205942Y-6484043D01*
G01X5205942Y-6487411D01*
G01X5208191Y-6489494D01*
G01X5210440Y-6491578D01*
G01X5210440Y-6491578D01*
G01X5213646Y-6492226D01*
G01X5216853Y-6492875D01*
G01X5224494Y-6492873D01*
G01X5232135Y-6492871D01*
G01X5237339Y-6491004D01*
G01X5237966Y-6489161D01*
G01X5238593Y-6487319D01*
G01X5237522Y-6484937D01*
G01X5236090Y-6484937D01*
G01X5235171Y-6484491D01*
G01X5234252Y-6484044D01*
G01X5233105Y-6483455D01*
G01X5231958Y-6482866D01*
G01X5227397Y-6483188D01*
G01X5222837Y-6483510D01*
G01X5219946Y-6482816D01*
G01X5217054Y-6482123D01*
G01X5217054Y-6480562D01*
G01X5218265Y-6476521D01*
G01X5221445Y-6475412D01*
G01X5227024Y-6475412D01*
G01X5227361Y-6476945D01*
G01X5227698Y-6478478D01*
G01X5229490Y-6480039D01*
G01X5231606Y-6481118D01*
G01X5235046Y-6480413D01*
G01X5238485Y-6479709D01*
G01X5239508Y-6478363D01*
G01X5240531Y-6477017D01*
G01X5240490Y-6476132D01*
G01X5244422Y-6476132D01*
G01X5244732Y-6481603D01*
G01X5245042Y-6487074D01*
G01X5246164Y-6488650D01*
G01X5247287Y-6490227D01*
G01X5248707Y-6490580D01*
G01X5250127Y-6490933D01*
G01X5250127Y-6490933D01*
G01X5251863Y-6491904D01*
G01X5253599Y-6492875D01*
G01X5262975Y-6492868D01*
G01X5272352Y-6492861D01*
G01X5274540Y-6492273D01*
G01X5275341Y-6489664D01*
G01X5276141Y-6487055D01*
G01X5275263Y-6486261D01*
G01X5274385Y-6485467D01*
G01X5257837Y-6485467D01*
G01X5253982Y-6482082D01*
G01X5254218Y-6479242D01*
G01X5254453Y-6476402D01*
G01X5255872Y-6474981D01*
G01X5257292Y-6473560D01*
G01X5265351Y-6473252D01*
G01X5273410Y-6472944D01*
G01X5275659Y-6472242D01*
G01X5277496Y-6471669D01*
G01X5280049Y-6471669D01*
G01X5280776Y-6472086D01*
G01X5281502Y-6472502D01*
G01X5282688Y-6474787D01*
G01X5283873Y-6477072D01*
G01X5283863Y-6482195D01*
G01X5283853Y-6487319D01*
G01X5284632Y-6488642D01*
G01X5285411Y-6489965D01*
G01X5285411Y-6489965D01*
G01X5287812Y-6491441D01*
G01X5290213Y-6492918D01*
G01X5290453Y-6492610D01*
G01X5291854Y-6490183D01*
G01X5293254Y-6487755D01*
G01X5293254Y-6486892D01*
G01X5301721Y-6486892D01*
G01X5303319Y-6490096D01*
G01X5306129Y-6492906D01*
G01X5309105Y-6490055D01*
G01X5309598Y-6488422D01*
G01X5310092Y-6486790D01*
G01X5310392Y-6481605D01*
G01X5310692Y-6476420D01*
G01X5311366Y-6475753D01*
G01X5312040Y-6475085D01*
G01X5313841Y-6474190D01*
G01X5315642Y-6473296D01*
G01X5317545Y-6473293D01*
G01X5319448Y-6473290D01*
G01X5321413Y-6472744D01*
G01X5323378Y-6472198D01*
G01X5323967Y-6471245D01*
G01X5328973Y-6471245D01*
G01X5328996Y-6479017D01*
G01X5329018Y-6486790D01*
G01X5330026Y-6488377D01*
G01X5331034Y-6489965D01*
G01X5331034Y-6489965D01*
G01X5331166Y-6490217D01*
G01X5338493Y-6492875D01*
G01X5354093Y-6492875D01*
G01X5356614Y-6492239D01*
G01X5359135Y-6491604D01*
G01X5363369Y-6488633D01*
G01X5364824Y-6487992D01*
G01X5366279Y-6487351D01*
G01X5366279Y-6486892D01*
G01X5370513Y-6486892D01*
G01X5372111Y-6490096D01*
G01X5372111Y-6490096D01*
G01X5373513Y-6491498D01*
G01X5374915Y-6492900D01*
G01X5377528Y-6490494D01*
G01X5378979Y-6487088D01*
G01X5379085Y-6478323D01*
G01X5379451Y-6477000D01*
G01X5379817Y-6475677D01*
G01X5382176Y-6474435D01*
G01X5384535Y-6473193D01*
G01X5390279Y-6473387D01*
G01X5396023Y-6473581D01*
G01X5397026Y-6474820D01*
G01X5398029Y-6476059D01*
G01X5398029Y-6487066D01*
G01X5400237Y-6491763D01*
G01X5401490Y-6492803D01*
G01X5404091Y-6491484D01*
G01X5406692Y-6490166D01*
G01X5407875Y-6488788D01*
G01X5409059Y-6487411D01*
G01X5408954Y-6485275D01*
G01X5413221Y-6485275D01*
G01X5413563Y-6487097D01*
G01X5413563Y-6487097D01*
G01X5413905Y-6488919D01*
G01X5417365Y-6492922D01*
G01X5420043Y-6489965D01*
G01X5420748Y-6489032D01*
G01X5421452Y-6488100D01*
G01X5421353Y-6479507D01*
G01X5421320Y-6476625D01*
G01X5425546Y-6476625D01*
G01X5425546Y-6481600D01*
G01X5426373Y-6483258D01*
G01X5427200Y-6484916D01*
G01X5428192Y-6485529D01*
G01X5428192Y-6487411D01*
G01X5430467Y-6489544D01*
G01X5432742Y-6491676D01*
G01X5434833Y-6492073D01*
G01X5436923Y-6492470D01*
G01X5445570Y-6492698D01*
G01X5445570Y-6492698D01*
G01X5454218Y-6492925D01*
G01X5455278Y-6491710D01*
G01X5456338Y-6490494D01*
G01X5457941Y-6487411D01*
G01X5456733Y-6486500D01*
G01X5455525Y-6485588D01*
G01X5447083Y-6485374D01*
G01X5438640Y-6485159D01*
G01X5437387Y-6483593D01*
G01X5436134Y-6482027D01*
G01X5436134Y-6481725D01*
G01X5487988Y-6481725D01*
G01X5487988Y-6487653D01*
G01X5488588Y-6488809D01*
G01X5489189Y-6489965D01*
G01X5490917Y-6491629D01*
G01X5495864Y-6492875D01*
G01X5495864Y-6492875D01*
G01X5511989Y-6492875D01*
G01X5515240Y-6491853D01*
G01X5516563Y-6491584D01*
G01X5517885Y-6491315D01*
G01X5519362Y-6490031D01*
G01X5520838Y-6488747D01*
G01X5521956Y-6482027D01*
G01X5521626Y-6477078D01*
G01X5521493Y-6475075D01*
G01X5525029Y-6475075D01*
G01X5525029Y-6487583D01*
G01X5526088Y-6487583D01*
G01X5526088Y-6489077D01*
G01X5527716Y-6490447D01*
G01X5529344Y-6491817D01*
G01X5533903Y-6491817D01*
G01X5535840Y-6488906D01*
G01X5536185Y-6477794D01*
G01X5536414Y-6476701D01*
G01X5536642Y-6475608D01*
G01X5537645Y-6474452D01*
G01X5538647Y-6473296D01*
G01X5550253Y-6473296D01*
G01X5554193Y-6476735D01*
G01X5554156Y-6486790D01*
G01X5555060Y-6488512D01*
G01X5555965Y-6490235D01*
G01X5556901Y-6490532D01*
G01X5557838Y-6490830D01*
G01X5557838Y-6491817D01*
G01X5559337Y-6491817D01*
G01X5559337Y-6491817D01*
G01X5559569Y-6492478D01*
G01X5559801Y-6493140D01*
G01X5562128Y-6490494D01*
G01X5563658Y-6487088D01*
G01X5563658Y-6477684D01*
G01X5563323Y-6474472D01*
G01X5563283Y-6474090D01*
G01X5568685Y-6474090D01*
G01X5568685Y-6486619D01*
G01X5571331Y-6488698D01*
G01X5572215Y-6489423D01*
G01X5573100Y-6490147D01*
G01X5574332Y-6490835D01*
G01X5575565Y-6491523D01*
G01X5580327Y-6492828D01*
G01X5588669Y-6492852D01*
G01X5588669Y-6492852D01*
G01X5597010Y-6492875D01*
G01X5597929Y-6492408D01*
G01X5598848Y-6491942D01*
G01X5604020Y-6489965D01*
G01X5605022Y-6488112D01*
G01X5606024Y-6486260D01*
G01X5605876Y-6473420D01*
G01X5605729Y-6460734D01*
G01X5635041Y-6460734D01*
G01X5636257Y-6462120D01*
G01X5637472Y-6463506D01*
G01X5638533Y-6464421D01*
G01X5639594Y-6465335D01*
G01X5645261Y-6465347D01*
G01X5650928Y-6465358D01*
G01X5655623Y-6468194D01*
G01X5656262Y-6470329D01*
G01X5656902Y-6472464D01*
G01X5656719Y-6479891D01*
G01X5656535Y-6487319D01*
G01X5657762Y-6489465D01*
G01X5658988Y-6491612D01*
G01X5659950Y-6492213D01*
G01X5659950Y-6492213D01*
G01X5660912Y-6492813D01*
G01X5662953Y-6490609D01*
G01X5664994Y-6488405D01*
G01X5665013Y-6487319D01*
G01X5688438Y-6487319D01*
G01X5690210Y-6489351D01*
G01X5691981Y-6491383D01*
G01X5694363Y-6491955D01*
G01X5696744Y-6492526D01*
G01X5707910Y-6492720D01*
G01X5707910Y-6492720D01*
G01X5719076Y-6492914D01*
G01X5719968Y-6490079D01*
G01X5720836Y-6487319D01*
G01X5727348Y-6487319D01*
G01X5728322Y-6488976D01*
G01X5729297Y-6490634D01*
G01X5730747Y-6491182D01*
G01X5732198Y-6491731D01*
G01X5732198Y-6491731D01*
G01X5735059Y-6492354D01*
G01X5736407Y-6490054D01*
G01X5737754Y-6487755D01*
G01X5737754Y-6486790D01*
G01X5742252Y-6486790D01*
G01X5743422Y-6488430D01*
G01X5744592Y-6490069D01*
G01X5747126Y-6491013D01*
G01X5747126Y-6491013D01*
G01X5749660Y-6491956D01*
G01X5750666Y-6492875D01*
G01X5771927Y-6492875D01*
G01X5773425Y-6490011D01*
G01X5774923Y-6487147D01*
G01X5773807Y-6485949D01*
G01X5772691Y-6484751D01*
G01X5772162Y-6483085D01*
G01X5755965Y-6483458D01*
G01X5755266Y-6482615D01*
G01X5754566Y-6481772D01*
G01X5755024Y-6478725D01*
G01X5755481Y-6475677D01*
G01X5762423Y-6475677D01*
G01X5764244Y-6477151D01*
G01X5766065Y-6478625D01*
G01X5767252Y-6479622D01*
G01X5768440Y-6480619D01*
G01X5771553Y-6481302D01*
G01X5774524Y-6479381D01*
G01X5775702Y-6478058D01*
G01X5776879Y-6476735D01*
G01X5776879Y-6476684D01*
G01X5777706Y-6476684D01*
G01X5778997Y-6476991D01*
G01X5780287Y-6477297D01*
G01X5781266Y-6480985D01*
G01X5782245Y-6484673D01*
G01X5782858Y-6487319D01*
G01X5785157Y-6489507D01*
G01X5787456Y-6491696D01*
G01X5789460Y-6492072D01*
G01X5789460Y-6492072D01*
G01X5791465Y-6492447D01*
G01X5808927Y-6492845D01*
G01X5811693Y-6489435D01*
G01X5812421Y-6487109D01*
G01X5810938Y-6486351D01*
G01X5809456Y-6485592D01*
G01X5801315Y-6485368D01*
G01X5793174Y-6485143D01*
G01X5791902Y-6483664D01*
G01X5790630Y-6482186D01*
G01X5791338Y-6475677D01*
G01X5791498Y-6475475D01*
G01X5818717Y-6475475D01*
G01X5818717Y-6483050D01*
G01X5819616Y-6485449D01*
G01X5820516Y-6487848D01*
G01X5824547Y-6491702D01*
G01X5826526Y-6492072D01*
G01X5828506Y-6492441D01*
G01X5836708Y-6492698D01*
G01X5836708Y-6492698D01*
G01X5844910Y-6492955D01*
G01X5846763Y-6492412D01*
G01X5848615Y-6491869D01*
G01X5851260Y-6491315D01*
G01X5852757Y-6490014D01*
G01X5854253Y-6488712D01*
G01X5855006Y-6486212D01*
G01X5855758Y-6483711D01*
G01X5855758Y-6482292D01*
G01X5857501Y-6482292D01*
G01X5858306Y-6482292D01*
G01X5859684Y-6487669D01*
G01X5861440Y-6489210D01*
G01X5863196Y-6490752D01*
G01X5865228Y-6491788D01*
G01X5867259Y-6492825D01*
G01X5868653Y-6490265D01*
G01X5870046Y-6487705D01*
G01X5870046Y-6476195D01*
G01X5871390Y-6474746D01*
G01X5872735Y-6473296D01*
G01X5877930Y-6473296D01*
G01X5880629Y-6476835D01*
G01X5880629Y-6487757D01*
G01X5881525Y-6489787D01*
G01X5882420Y-6491817D01*
G01X5888339Y-6491817D01*
G01X5890154Y-6488743D01*
G01X5890167Y-6484062D01*
G01X5890179Y-6479381D01*
G01X5891058Y-6475606D01*
G01X5893035Y-6473296D01*
G01X5894373Y-6473299D01*
G01X5895710Y-6473302D01*
G01X5897689Y-6473851D01*
G01X5899667Y-6474400D01*
G01X5900202Y-6475401D01*
G01X5900738Y-6476401D01*
G01X5900738Y-6487066D01*
G01X5902945Y-6491763D01*
G01X5903604Y-6492310D01*
G01X5903604Y-6492310D01*
G01X5904263Y-6492857D01*
G01X5906866Y-6491223D01*
G01X5909469Y-6489590D01*
G01X5911784Y-6487461D01*
G01X5911743Y-6486677D01*
G01X5916007Y-6486677D01*
G01X5916317Y-6487914D01*
G01X5916628Y-6489151D01*
G01X5918282Y-6491036D01*
G01X5918282Y-6491036D01*
G01X5919936Y-6492920D01*
G01X5921235Y-6491707D01*
G01X5922534Y-6490494D01*
G01X5923277Y-6489065D01*
G01X5924021Y-6487636D01*
G01X5924051Y-6483773D01*
G01X5924082Y-6479910D01*
G01X5924457Y-6477794D01*
G01X5924833Y-6475677D01*
G01X5929048Y-6473381D01*
G01X5930106Y-6473356D01*
G01X5931165Y-6473331D01*
G01X5932278Y-6474261D01*
G01X5933391Y-6475192D01*
G01X5934661Y-6477566D01*
G01X5934769Y-6482989D01*
G01X5934878Y-6488411D01*
G01X5935931Y-6489488D01*
G01X5936985Y-6490566D01*
G01X5939037Y-6491742D01*
G01X5941088Y-6492918D01*
G01X5941302Y-6492610D01*
G01X5944129Y-6488806D01*
G01X5944206Y-6480969D01*
G01X5944612Y-6478113D01*
G01X5945018Y-6475258D01*
G01X5946873Y-6473902D01*
G01X5949001Y-6473542D01*
G01X5951130Y-6473182D01*
G01X5952285Y-6473800D01*
G01X5953440Y-6474418D01*
G01X5954096Y-6475469D01*
G01X5954752Y-6476520D01*
G01X5954759Y-6481867D01*
G01X5954765Y-6487214D01*
G01X5955451Y-6488854D01*
G01X5956136Y-6490494D01*
G01X5957623Y-6491678D01*
G01X5962680Y-6492219D01*
G01X5965465Y-6487467D01*
G01X5965469Y-6486898D01*
G01X5969285Y-6486898D01*
G01X5970757Y-6488828D01*
G01X5972229Y-6490758D01*
G01X5974343Y-6490758D01*
G01X5974343Y-6490758D01*
G01X5976533Y-6491817D01*
G01X5978724Y-6492875D01*
G01X5993931Y-6492875D01*
G01X5996415Y-6492308D01*
G01X5998898Y-6491741D01*
G01X6001684Y-6490243D01*
G01X6003371Y-6488781D01*
G01X6005058Y-6487319D01*
G01X6011448Y-6487319D01*
G01X6012214Y-6488974D01*
G01X6012981Y-6490630D01*
G01X6012981Y-6490630D01*
G01X6014205Y-6491780D01*
G01X6015429Y-6492930D01*
G01X6019800Y-6487963D01*
G01X6019800Y-6477460D01*
G01X6020347Y-6476438D01*
G01X6020894Y-6475416D01*
G01X6022972Y-6474356D01*
G01X6025050Y-6473296D01*
G01X6035616Y-6473296D01*
G01X6037003Y-6474488D01*
G01X6038389Y-6475681D01*
G01X6039164Y-6488962D01*
G01X6040385Y-6490938D01*
G01X6041606Y-6492913D01*
G01X6042212Y-6492475D01*
G01X6042819Y-6492037D01*
G01X6044935Y-6491337D01*
G01X6047052Y-6490637D01*
G01X6050559Y-6487319D01*
G01X6049876Y-6475677D01*
G01X6049100Y-6473955D01*
G01X6048635Y-6472925D01*
G01X6053138Y-6472925D01*
G01X6053138Y-6487679D01*
G01X6054592Y-6489703D01*
G01X6056047Y-6491727D01*
G01X6056969Y-6492303D01*
G01X6056969Y-6492303D01*
G01X6057891Y-6492878D01*
G01X6059515Y-6490636D01*
G01X6061139Y-6488394D01*
G01X6060918Y-6475837D01*
G01X6065838Y-6475837D01*
G01X6065838Y-6483329D01*
G01X6066658Y-6485324D01*
G01X6067478Y-6487319D01*
G01X6072828Y-6491552D01*
G01X6075550Y-6492191D01*
G01X6078273Y-6492830D01*
G01X6086475Y-6492852D01*
G01X6086475Y-6492852D01*
G01X6094677Y-6492874D01*
G01X6097588Y-6487692D01*
G01X6097588Y-6487319D01*
G01X6102880Y-6487319D01*
G01X6103706Y-6487848D01*
G01X6104532Y-6488377D01*
G01X6107542Y-6490644D01*
G01X6107542Y-6490644D01*
G01X6110552Y-6492910D01*
G01X6120871Y-6492759D01*
G01X6131190Y-6492608D01*
G01X6133674Y-6491419D01*
G01X6136159Y-6490229D01*
G01X6136585Y-6490213D01*
G01X6137010Y-6490196D01*
G01X6138916Y-6487577D01*
G01X6139373Y-6480833D01*
G01X6139830Y-6474090D01*
G01X6140637Y-6471973D01*
G01X6141150Y-6471629D01*
G01X6141662Y-6471286D01*
G01X6141497Y-6471200D01*
G01X6142567Y-6471200D01*
G01X6144012Y-6473439D01*
G01X6145458Y-6475677D01*
G01X6146007Y-6488377D01*
G01X6146648Y-6489495D01*
G01X6147289Y-6490613D01*
G01X6148764Y-6491172D01*
G01X6150240Y-6491731D01*
G01X6151607Y-6492026D01*
G01X6151607Y-6492026D01*
G01X6152974Y-6492322D01*
G01X6154121Y-6490027D01*
G01X6155267Y-6487732D01*
G01X6155267Y-6476805D01*
G01X6157478Y-6472237D01*
G01X6162613Y-6472237D01*
G01X6162926Y-6471731D01*
G01X6163239Y-6471224D01*
G01X6160758Y-6470156D01*
G01X6163733Y-6470156D01*
G01X6163733Y-6488294D01*
G01X6166151Y-6490611D01*
G01X6166151Y-6490611D01*
G01X6168570Y-6492928D01*
G01X6170107Y-6490994D01*
G01X6171644Y-6489059D01*
G01X6171988Y-6487227D01*
G01X6172331Y-6485395D01*
G01X6172100Y-6477890D01*
G01X6172031Y-6475677D01*
G01X6176698Y-6475677D01*
G01X6176716Y-6479646D01*
G01X6176734Y-6483615D01*
G01X6177113Y-6485471D01*
G01X6177492Y-6487327D01*
G01X6184106Y-6491777D01*
G01X6188869Y-6492849D01*
G01X6197437Y-6492862D01*
G01X6197437Y-6492862D01*
G01X6206004Y-6492875D01*
G01X6206286Y-6492418D01*
G01X6206569Y-6491962D01*
G01X6209021Y-6491275D01*
G01X6211473Y-6490589D01*
G01X6212673Y-6489294D01*
G01X6213874Y-6487999D01*
G01X6215203Y-6480231D01*
G01X6214868Y-6477690D01*
G01X6214824Y-6477352D01*
G01X6218100Y-6477352D01*
G01X6218555Y-6486790D01*
G01X6219813Y-6489303D01*
G01X6221071Y-6491817D01*
G01X6227113Y-6491817D01*
G01X6227967Y-6490017D01*
G01X6228821Y-6488217D01*
G01X6228821Y-6478127D01*
G01X6229329Y-6476791D01*
G01X6229837Y-6475455D01*
G01X6231996Y-6473296D01*
G01X6237684Y-6473304D01*
G01X6243373Y-6473313D01*
G01X6245131Y-6474862D01*
G01X6246889Y-6476412D01*
G01X6247156Y-6488531D01*
G01X6247910Y-6489282D01*
G01X6248665Y-6490034D01*
G01X6251046Y-6491413D01*
G01X6251046Y-6491413D01*
G01X6253427Y-6492793D01*
G01X6254081Y-6492070D01*
G01X6254736Y-6491347D01*
G01X6256966Y-6487069D01*
G01X6256761Y-6483085D01*
G01X6285369Y-6483085D01*
G01X6286116Y-6487646D01*
G01X6290121Y-6491691D01*
G01X6294173Y-6492483D01*
G01X6313433Y-6492698D01*
G01X6313433Y-6492698D01*
G01X6332693Y-6492913D01*
G01X6333943Y-6491739D01*
G01X6335193Y-6490565D01*
G01X6336189Y-6488877D01*
G01X6336954Y-6487579D01*
G01X6340540Y-6487579D01*
G01X6341772Y-6487889D01*
G01X6343004Y-6488198D01*
G01X6344084Y-6489346D01*
G01X6345164Y-6490494D01*
G01X6345164Y-6490494D01*
G01X6346574Y-6491552D01*
G01X6348446Y-6493032D01*
G01X6349225Y-6492027D01*
G01X6350004Y-6491023D01*
G01X6350754Y-6489435D01*
G01X6351505Y-6487848D01*
G01X6351719Y-6481869D01*
G01X6351933Y-6475890D01*
G01X6353073Y-6474750D01*
G01X6354213Y-6473610D01*
G01X6359310Y-6473387D01*
G01X6364407Y-6473164D01*
G01X6367257Y-6474133D01*
G01X6370106Y-6475102D01*
G01X6370720Y-6477037D01*
G01X6370848Y-6482200D01*
G01X6370976Y-6487364D01*
G01X6372170Y-6489488D01*
G01X6373363Y-6491612D01*
G01X6374334Y-6492218D01*
G01X6375305Y-6492825D01*
G01X6377180Y-6491057D01*
G01X6379054Y-6489289D01*
G01X6379379Y-6487997D01*
G01X6379703Y-6486706D01*
G01X6379479Y-6480927D01*
G01X6379304Y-6476410D01*
G01X6382279Y-6476410D01*
G01X6382279Y-6482440D01*
G01X6383205Y-6483143D01*
G01X6384131Y-6483846D01*
G01X6384818Y-6483862D01*
G01X6385505Y-6483879D01*
G01X6390698Y-6489381D01*
G01X6406841Y-6489213D01*
G01X6408583Y-6490542D01*
G01X6410325Y-6491871D01*
G01X6410325Y-6492848D01*
G01X6408764Y-6493655D01*
G01X6407203Y-6494462D01*
G01X6391110Y-6494462D01*
G01X6387571Y-6497162D01*
G01X6387571Y-6497162D01*
G01X6387571Y-6498308D01*
G01X6390481Y-6500852D01*
G01X6403832Y-6500700D01*
G01X6417182Y-6500548D01*
G01X6418538Y-6499191D01*
G01X6419894Y-6497834D01*
G01X6420659Y-6494958D01*
G01X6421425Y-6492081D01*
G01X6421407Y-6487586D01*
G01X6424492Y-6487586D01*
G01X6425311Y-6488835D01*
G01X6426130Y-6490084D01*
G01X6428778Y-6490950D01*
G01X6431426Y-6491817D01*
G01X6431426Y-6491817D01*
G01X6433943Y-6491817D01*
G01X6435098Y-6489760D01*
G01X6436254Y-6487704D01*
G01X6436254Y-6471871D01*
G01X6440488Y-6471871D01*
G01X6440488Y-6487636D01*
G01X6441345Y-6489329D01*
G01X6442203Y-6491023D01*
G01X6442981Y-6491912D01*
G01X6442981Y-6491912D01*
G01X6443759Y-6492800D01*
G01X6446224Y-6491455D01*
G01X6448690Y-6490111D01*
G01X6449351Y-6489275D01*
G01X6450013Y-6488439D01*
G01X6450018Y-6479381D01*
G01X6451108Y-6475458D01*
G01X6452626Y-6474377D01*
G01X6454145Y-6473296D01*
G01X6465214Y-6473296D01*
G01X6466609Y-6474691D01*
G01X6468004Y-6476086D01*
G01X6468088Y-6478792D01*
G01X6468172Y-6481498D01*
G01X6468044Y-6484186D01*
G01X6467915Y-6486875D01*
G01X6469502Y-6490673D01*
G01X6470473Y-6491172D01*
G01X6471444Y-6491672D01*
G01X6473669Y-6492011D01*
G01X6475894Y-6492351D01*
G01X6477334Y-6489894D01*
G01X6478774Y-6487437D01*
G01X6478779Y-6486648D01*
G01X6482720Y-6486648D01*
G01X6483683Y-6488435D01*
G01X6484646Y-6490223D01*
G01X6487305Y-6491048D01*
G01X6489965Y-6491873D01*
G01X6490884Y-6492374D01*
G01X6491802Y-6492875D01*
G01X6491802Y-6492875D01*
G01X6512780Y-6492875D01*
G01X6513741Y-6490695D01*
G01X6514703Y-6488515D01*
G01X6514703Y-6486161D01*
G01X6513826Y-6484822D01*
G01X6512949Y-6483484D01*
G01X6510453Y-6483199D01*
G01X6507956Y-6482915D01*
G01X6496844Y-6483404D01*
G01X6495971Y-6482696D01*
G01X6495098Y-6481988D01*
G01X6495762Y-6479362D01*
G01X6496427Y-6476735D01*
G01X6499160Y-6476575D01*
G01X6501892Y-6476415D01*
G01X6503216Y-6477988D01*
G01X6504539Y-6479561D01*
G01X6508555Y-6480508D01*
G01X6512571Y-6481454D01*
G01X6516688Y-6477041D01*
G01X6516688Y-6475942D01*
G01X6522425Y-6475942D01*
G01X6522690Y-6479778D01*
G01X6522955Y-6483615D01*
G01X6523314Y-6485563D01*
G01X6523674Y-6487512D01*
G01X6525896Y-6489594D01*
G01X6528117Y-6491676D01*
G01X6530208Y-6492060D01*
G01X6532298Y-6492443D01*
G01X6540742Y-6492697D01*
G01X6540742Y-6492697D01*
G01X6549186Y-6492951D01*
G01X6551996Y-6492067D01*
G01X6554806Y-6491183D01*
G01X6555362Y-6490144D01*
G01X6555919Y-6489105D01*
G01X6555963Y-6487526D01*
G01X6555969Y-6487319D01*
G01X6562945Y-6487319D01*
G01X6563973Y-6490477D01*
G01X6563973Y-6490477D01*
G01X6565635Y-6492146D01*
G01X6568328Y-6491690D01*
G01X6571021Y-6491234D01*
G01X6571900Y-6489391D01*
G01X6572779Y-6487547D01*
G01X6572779Y-6476835D01*
G01X6575479Y-6473296D01*
G01X6581083Y-6473296D01*
G01X6582752Y-6472463D01*
G01X6584421Y-6471631D01*
G01X6584405Y-6471008D01*
G01X6584390Y-6470385D01*
G01X6588577Y-6470385D01*
G01X6588920Y-6472237D01*
G01X6589262Y-6474090D01*
G01X6589627Y-6481762D01*
G01X6589992Y-6489435D01*
G01X6589992Y-6489435D01*
G01X6591028Y-6490626D01*
G01X6592064Y-6491817D01*
G01X6596356Y-6491817D01*
G01X6597665Y-6490920D01*
G01X6598973Y-6490023D01*
G01X6600188Y-6488671D01*
G01X6601403Y-6487319D01*
G01X6601114Y-6485797D01*
G01X6600825Y-6484276D01*
G01X6600825Y-6471294D01*
G01X6600400Y-6470763D01*
G01X6603933Y-6470763D01*
G01X6604265Y-6489115D01*
G01X6606077Y-6490983D01*
G01X6606077Y-6490983D01*
G01X6607889Y-6492851D01*
G01X6608679Y-6492202D01*
G01X6609468Y-6491552D01*
G01X6610967Y-6489488D01*
G01X6612467Y-6487425D01*
G01X6612467Y-6476395D01*
G01X6613128Y-6475772D01*
G01X6613790Y-6475148D01*
G01X6615792Y-6474222D01*
G01X6617794Y-6473296D01*
G01X6627215Y-6473296D01*
G01X6628540Y-6473800D01*
G01X6629865Y-6474304D01*
G01X6630475Y-6475444D01*
G01X6631086Y-6476585D01*
G01X6631215Y-6482086D01*
G01X6631343Y-6487586D01*
G01X6632046Y-6488289D01*
G01X6632046Y-6490229D01*
G01X6632934Y-6490229D01*
G01X6633514Y-6491502D01*
G01X6634094Y-6492774D01*
G01X6636113Y-6492012D01*
G01X6638131Y-6491250D01*
G01X6638951Y-6490970D01*
G01X6639771Y-6490690D01*
G01X6640477Y-6489561D01*
G01X6641182Y-6488431D01*
G01X6641807Y-6482856D01*
G01X6646863Y-6482856D01*
G01X6648205Y-6485505D01*
G01X6649547Y-6488153D01*
G01X6650983Y-6488746D01*
G01X6652419Y-6489340D01*
G01X6660356Y-6489479D01*
G01X6668294Y-6489618D01*
G01X6671884Y-6490514D01*
G01X6672321Y-6491694D01*
G01X6672757Y-6492873D01*
G01X6671584Y-6493620D01*
G01X6670410Y-6494367D01*
G01X6661150Y-6494622D01*
G01X6651890Y-6494876D01*
G01X6650724Y-6495254D01*
G01X6649558Y-6495631D01*
G01X6648004Y-6498003D01*
G01X6648004Y-6498003D01*
G01X6649307Y-6499408D01*
G01X6650610Y-6500812D01*
G01X6677039Y-6500812D01*
G01X6678168Y-6500151D01*
G01X6679296Y-6499490D01*
G01X6680675Y-6498167D01*
G01X6682054Y-6496844D01*
G01X6683031Y-6494659D01*
G01X6684007Y-6492474D01*
G01X6683780Y-6482752D01*
G01X6683553Y-6473031D01*
G01X6682901Y-6471444D01*
G01X6682249Y-6469856D01*
G01X6679182Y-6468401D01*
G01X6676114Y-6466946D01*
G01X6654535Y-6467072D01*
G01X6649387Y-6468295D01*
G01X6648127Y-6469869D01*
G01X6646868Y-6471444D01*
G01X6646865Y-6477150D01*
G01X6646863Y-6482856D01*
G01X6641807Y-6482856D01*
G01X6642024Y-6480921D01*
G01X6641151Y-6473882D01*
G01X6638189Y-6469761D01*
G01X6636043Y-6468486D01*
G01X6633898Y-6467211D01*
G01X6620631Y-6467033D01*
G01X6607365Y-6466855D01*
G01X6605649Y-6468809D01*
G01X6603933Y-6470763D01*
G01X6600400Y-6470763D01*
G01X6599105Y-6469147D01*
G01X6597385Y-6467000D01*
G01X6594670Y-6466973D01*
G01X6591955Y-6466946D01*
G01X6590266Y-6468666D01*
G01X6588577Y-6470385D01*
G01X6584390Y-6470385D01*
G01X6581261Y-6466946D01*
G01X6575829Y-6467008D01*
G01X6570398Y-6467070D01*
G01X6567369Y-6468604D01*
G01X6564341Y-6470138D01*
G01X6563099Y-6472458D01*
G01X6563022Y-6479888D01*
G01X6562945Y-6487319D01*
G01X6555969Y-6487319D01*
G01X6556008Y-6485947D01*
G01X6554977Y-6484916D01*
G01X6549313Y-6482845D01*
G01X6540031Y-6483504D01*
G01X6537592Y-6482822D01*
G01X6535154Y-6482139D01*
G01X6535673Y-6480785D01*
G01X6537035Y-6478628D01*
G01X6538397Y-6476471D01*
G01X6544601Y-6476471D01*
G01X6545209Y-6479509D01*
G01X6547344Y-6480364D01*
G01X6549480Y-6481218D01*
G01X6555052Y-6480032D01*
G01X6557963Y-6476775D01*
G01X6557963Y-6471544D01*
G01X6556667Y-6469846D01*
G01X6555372Y-6468148D01*
G01X6553625Y-6467729D01*
G01X6551877Y-6467311D01*
G01X6531240Y-6467156D01*
G01X6527519Y-6467797D01*
G01X6523954Y-6471282D01*
G01X6523692Y-6473612D01*
G01X6523429Y-6475942D01*
G01X6522425Y-6475942D01*
G01X6516688Y-6475942D01*
G01X6516688Y-6471096D01*
G01X6514695Y-6469063D01*
G01X6512703Y-6467031D01*
G01X6501434Y-6467109D01*
G01X6490165Y-6467188D01*
G01X6489536Y-6467588D01*
G01X6488906Y-6467988D01*
G01X6485952Y-6468004D01*
G01X6483948Y-6469871D01*
G01X6483380Y-6471364D01*
G01X6482813Y-6472857D01*
G01X6482766Y-6479752D01*
G01X6482720Y-6486648D01*
G01X6478779Y-6486648D01*
G01X6478852Y-6475148D01*
G01X6478110Y-6473031D01*
G01X6477368Y-6470915D01*
G01X6476309Y-6469989D01*
G01X6475251Y-6469062D01*
G01X6474303Y-6469062D01*
G01X6472113Y-6468004D01*
G01X6469922Y-6466946D01*
G01X6456660Y-6466966D01*
G01X6443398Y-6466986D01*
G01X6442840Y-6467627D01*
G01X6442283Y-6468269D01*
G01X6441385Y-6470070D01*
G01X6440488Y-6471871D01*
G01X6436254Y-6471871D01*
G01X6436254Y-6471008D01*
G01X6434909Y-6468712D01*
G01X6433564Y-6466417D01*
G01X6433189Y-6466489D01*
G01X6432815Y-6466561D01*
G01X6430169Y-6466995D01*
G01X6428734Y-6467555D01*
G01X6427299Y-6468116D01*
G01X6426101Y-6470574D01*
G01X6424904Y-6473031D01*
G01X6424698Y-6480308D01*
G01X6424492Y-6487586D01*
G01X6421407Y-6487586D01*
G01X6421393Y-6484144D01*
G01X6421360Y-6476206D01*
G01X6420560Y-6470583D01*
G01X6417998Y-6468232D01*
G01X6412361Y-6466946D01*
G01X6391010Y-6467009D01*
G01X6386777Y-6469856D01*
G01X6385036Y-6471444D01*
G01X6383658Y-6473927D01*
G01X6382279Y-6476410D01*
G01X6379304Y-6476410D01*
G01X6379255Y-6475148D01*
G01X6378146Y-6470418D01*
G01X6376735Y-6469293D01*
G01X6375324Y-6468168D01*
G01X6372676Y-6467557D01*
G01X6370028Y-6466946D01*
G01X6347619Y-6466972D01*
G01X6345206Y-6468743D01*
G01X6342793Y-6470514D01*
G01X6341683Y-6476638D01*
G01X6342165Y-6478782D01*
G01X6342647Y-6480927D01*
G01X6342323Y-6482848D01*
G01X6341998Y-6484769D01*
G01X6341269Y-6486174D01*
G01X6340540Y-6487579D01*
G01X6336954Y-6487579D01*
G01X6337184Y-6487190D01*
G01X6335402Y-6485664D01*
G01X6334631Y-6485169D01*
G01X6333860Y-6484673D01*
G01X6298406Y-6484144D01*
G01X6294967Y-6482264D01*
G01X6294967Y-6481488D01*
G01X6296157Y-6480699D01*
G01X6297348Y-6479910D01*
G01X6315126Y-6479752D01*
G01X6332904Y-6479594D01*
G01X6336463Y-6476623D01*
G01X6335469Y-6475105D01*
G01X6334474Y-6473588D01*
G01X6333606Y-6472656D01*
G01X6332738Y-6471723D01*
G01X6315895Y-6471584D01*
G01X6299052Y-6471444D01*
G01X6298340Y-6469062D01*
G01X6297629Y-6466681D01*
G01X6297613Y-6466084D01*
G01X6299483Y-6465192D01*
G01X6301353Y-6464300D01*
G01X6333587Y-6464300D01*
G01X6336809Y-6460928D01*
G01X6334626Y-6458744D01*
G01X6292056Y-6458606D01*
G01X6290921Y-6458837D01*
G01X6289786Y-6459067D01*
G01X6288996Y-6459964D01*
G01X6288206Y-6460860D01*
G01X6286841Y-6463506D01*
G01X6285476Y-6466152D01*
G01X6285423Y-6474619D01*
G01X6285369Y-6483085D01*
G01X6256761Y-6483085D01*
G01X6256586Y-6479684D01*
G01X6256205Y-6472300D01*
G01X6255214Y-6470670D01*
G01X6254223Y-6469041D01*
G01X6251840Y-6468140D01*
G01X6248060Y-6466946D01*
G01X6236192Y-6466988D01*
G01X6224323Y-6467029D01*
G01X6222754Y-6467599D01*
G01X6221185Y-6468168D01*
G01X6220273Y-6469277D01*
G01X6219362Y-6470385D01*
G01X6218731Y-6473869D01*
G01X6218100Y-6477352D01*
G01X6214824Y-6477352D01*
G01X6214533Y-6475148D01*
G01X6214215Y-6473199D01*
G01X6213897Y-6471249D01*
G01X6212495Y-6469694D01*
G01X6211094Y-6468138D01*
G01X6208977Y-6467739D01*
G01X6206860Y-6467341D01*
G01X6195748Y-6467169D01*
G01X6184635Y-6466997D01*
G01X6177548Y-6471665D01*
G01X6176698Y-6475677D01*
G01X6172031Y-6475677D01*
G01X6171868Y-6470385D01*
G01X6170387Y-6468053D01*
G01X6168906Y-6465721D01*
G01X6169150Y-6463191D01*
G01X6169393Y-6460661D01*
G01X6169047Y-6460102D01*
G01X6168702Y-6459543D01*
G01X6167647Y-6460598D01*
G01X6167967Y-6463508D01*
G01X6168287Y-6466417D01*
G01X6167473Y-6466417D01*
G01X6165603Y-6468286D01*
G01X6163733Y-6470156D01*
G01X6160758Y-6470156D01*
G01X6158093Y-6469010D01*
G01X6157134Y-6466837D01*
G01X6156176Y-6464665D01*
G01X6152927Y-6459008D01*
G01X6152356Y-6459083D01*
G01X6150240Y-6459992D01*
G01X6148835Y-6460029D01*
G01X6147430Y-6460067D01*
G01X6144246Y-6466681D01*
G01X6143406Y-6468941D01*
G01X6142567Y-6471200D01*
G01X6141497Y-6471200D01*
G01X6140024Y-6470439D01*
G01X6138386Y-6469592D01*
G01X6137170Y-6469592D01*
G01X6135238Y-6468753D01*
G01X6133306Y-6467915D01*
G01X6132387Y-6467430D01*
G01X6131469Y-6466946D01*
G01X6129212Y-6467064D01*
G01X6126956Y-6467182D01*
G01X6118374Y-6467342D01*
G01X6109792Y-6467501D01*
G01X6107113Y-6471014D01*
G01X6107113Y-6471753D01*
G01X6107652Y-6472392D01*
G01X6108192Y-6473031D01*
G01X6109444Y-6474551D01*
G01X6110697Y-6476071D01*
G01X6118562Y-6476403D01*
G01X6126427Y-6476735D01*
G01X6127694Y-6481867D01*
G01X6127065Y-6482873D01*
G01X6126437Y-6483879D01*
G01X6122728Y-6483849D01*
G01X6119019Y-6483819D01*
G01X6117167Y-6483188D01*
G01X6115315Y-6482556D01*
G01X6114971Y-6478336D01*
G01X6114417Y-6477668D01*
G01X6113862Y-6477000D01*
G01X6109988Y-6477000D01*
G01X6108466Y-6478191D01*
G01X6106943Y-6479381D01*
G01X6105686Y-6480440D01*
G01X6104429Y-6481498D01*
G01X6103655Y-6484408D01*
G01X6102880Y-6487319D01*
G01X6097588Y-6487319D01*
G01X6097588Y-6486783D01*
G01X6094677Y-6485546D01*
G01X6086650Y-6485371D01*
G01X6078622Y-6485197D01*
G01X6077521Y-6483928D01*
G01X6076421Y-6482659D01*
G01X6076421Y-6476557D01*
G01X6077078Y-6474844D01*
G01X6078575Y-6474070D01*
G01X6080073Y-6473296D01*
G01X6094327Y-6473296D01*
G01X6095954Y-6472370D01*
G01X6097581Y-6471444D01*
G01X6097586Y-6470915D01*
G01X6096264Y-6469377D01*
G01X6094942Y-6467840D01*
G01X6094942Y-6466946D01*
G01X6076156Y-6467068D01*
G01X6074253Y-6467439D01*
G01X6072349Y-6467811D01*
G01X6071410Y-6468569D01*
G01X6070471Y-6469327D01*
G01X6069017Y-6470765D01*
G01X6067562Y-6472203D01*
G01X6065838Y-6475837D01*
G01X6060918Y-6475837D01*
G01X6060810Y-6469770D01*
G01X6059293Y-6467783D01*
G01X6057776Y-6465795D01*
G01X6058095Y-6463328D01*
G01X6058414Y-6460860D01*
G01X6057921Y-6460081D01*
G01X6057428Y-6459303D01*
G01X6057081Y-6460207D01*
G01X6056734Y-6461111D01*
G01X6056933Y-6463618D01*
G01X6057133Y-6466126D01*
G01X6055519Y-6467928D01*
G01X6054952Y-6468636D01*
G01X6054386Y-6469344D01*
G01X6053762Y-6471134D01*
G01X6053138Y-6472925D01*
G01X6048635Y-6472925D01*
G01X6048323Y-6472233D01*
G01X6045453Y-6470066D01*
G01X6042584Y-6467899D01*
G01X6040585Y-6467435D01*
G01X6038585Y-6466971D01*
G01X6014773Y-6466978D01*
G01X6013331Y-6468682D01*
G01X6011888Y-6470385D01*
G01X6011791Y-6473031D01*
G01X6011694Y-6475677D01*
G01X6011571Y-6481498D01*
G01X6011448Y-6487319D01*
G01X6005058Y-6487319D01*
G01X6006571Y-6483750D01*
G01X6006571Y-6470727D01*
G01X6003693Y-6469366D01*
G01X6000816Y-6468004D01*
G01X5998797Y-6468004D01*
G01X5997789Y-6469116D01*
G01X5996781Y-6470229D01*
G01X5996606Y-6476174D01*
G01X5996430Y-6482119D01*
G01X5995201Y-6483660D01*
G01X5993972Y-6485202D01*
G01X5981945Y-6485202D01*
G01X5979384Y-6482821D01*
G01X5978684Y-6482821D01*
G01X5978056Y-6471444D01*
G01X5976086Y-6469724D01*
G01X5974115Y-6468004D01*
G01X5972350Y-6468004D01*
G01X5970837Y-6469702D01*
G01X5969325Y-6471400D01*
G01X5969305Y-6479149D01*
G01X5969285Y-6486898D01*
G01X5965469Y-6486898D01*
G01X5965560Y-6475148D01*
G01X5964824Y-6472927D01*
G01X5964087Y-6470707D01*
G01X5960375Y-6468826D01*
G01X5956663Y-6466946D01*
G01X5919433Y-6466946D01*
G01X5916348Y-6470385D01*
G01X5916177Y-6478531D01*
G01X5916007Y-6486677D01*
G01X5911743Y-6486677D01*
G01X5911494Y-6481834D01*
G01X5911204Y-6476206D01*
G01X5909939Y-6474233D01*
G01X5908675Y-6472260D01*
G01X5908675Y-6471349D01*
G01X5904783Y-6467808D01*
G01X5899944Y-6467009D01*
G01X5883010Y-6466982D01*
G01X5866077Y-6466956D01*
G01X5863696Y-6468377D01*
G01X5861315Y-6469798D01*
G01X5860646Y-6470458D01*
G01X5859978Y-6471118D01*
G01X5859635Y-6472868D01*
G01X5859293Y-6474619D01*
G01X5858641Y-6475677D01*
G01X5857990Y-6476735D01*
G01X5857746Y-6479514D01*
G01X5857501Y-6482292D01*
G01X5855758Y-6482292D01*
G01X5855758Y-6475840D01*
G01X5854952Y-6473064D01*
G01X5854145Y-6470289D01*
G01X5852939Y-6469240D01*
G01X5851733Y-6468192D01*
G01X5848630Y-6467569D01*
G01X5845528Y-6466946D01*
G01X5837017Y-6467012D01*
G01X5828506Y-6467078D01*
G01X5824240Y-6467780D01*
G01X5822819Y-6468818D01*
G01X5821398Y-6469856D01*
G01X5820586Y-6471524D01*
G01X5819775Y-6473191D01*
G01X5819775Y-6474821D01*
G01X5818717Y-6475475D01*
G01X5791498Y-6475475D01*
G01X5791855Y-6475025D01*
G01X5792373Y-6474372D01*
G01X5794300Y-6473837D01*
G01X5796227Y-6473302D01*
G01X5808927Y-6473251D01*
G01X5812438Y-6471380D01*
G01X5808927Y-6467000D01*
G01X5800196Y-6467039D01*
G01X5791465Y-6467078D01*
G01X5787198Y-6467780D01*
G01X5785777Y-6468818D01*
G01X5784356Y-6469856D01*
G01X5783545Y-6471524D01*
G01X5782733Y-6473191D01*
G01X5782733Y-6474883D01*
G01X5781308Y-6474883D01*
G01X5779507Y-6475784D01*
G01X5777706Y-6476684D01*
G01X5776879Y-6476684D01*
G01X5776896Y-6474003D01*
G01X5776913Y-6471271D01*
G01X5774531Y-6469241D01*
G01X5772149Y-6467210D01*
G01X5750121Y-6467210D01*
G01X5747015Y-6468147D01*
G01X5745534Y-6468679D01*
G01X5744054Y-6469212D01*
G01X5743156Y-6470857D01*
G01X5742257Y-6472502D01*
G01X5742255Y-6479646D01*
G01X5742252Y-6486790D01*
G01X5737754Y-6486790D01*
G01X5737750Y-6477483D01*
G01X5737746Y-6467210D01*
G01X5736636Y-6460331D01*
G01X5735084Y-6457950D01*
G01X5734435Y-6458011D01*
G01X5733785Y-6458073D01*
G01X5732727Y-6458297D01*
G01X5731669Y-6458520D01*
G01X5730443Y-6458783D01*
G01X5729218Y-6459046D01*
G01X5728374Y-6461012D01*
G01X5727531Y-6462977D01*
G01X5727348Y-6487319D01*
G01X5720836Y-6487319D01*
G01X5720860Y-6487243D01*
G01X5720473Y-6486222D01*
G01X5720086Y-6485202D01*
G01X5719497Y-6484604D01*
G01X5718907Y-6484006D01*
G01X5714206Y-6483136D01*
G01X5709007Y-6483291D01*
G01X5703808Y-6483445D01*
G01X5702260Y-6482804D01*
G01X5700713Y-6482163D01*
G01X5700718Y-6480440D01*
G01X5701889Y-6476206D01*
G01X5703094Y-6475429D01*
G01X5708545Y-6475412D01*
G01X5710762Y-6479169D01*
G01X5714437Y-6480704D01*
G01X5718618Y-6480704D01*
G01X5719444Y-6480387D01*
G01X5720270Y-6480070D01*
G01X5721368Y-6478293D01*
G01X5722466Y-6476517D01*
G01X5721756Y-6470242D01*
G01X5720473Y-6468858D01*
G01X5719191Y-6467475D01*
G01X5717757Y-6467394D01*
G01X5716323Y-6467313D01*
G01X5696693Y-6467210D01*
G01X5694099Y-6467684D01*
G01X5691505Y-6468157D01*
G01X5690176Y-6469390D01*
G01X5688847Y-6470622D01*
G01X5688642Y-6478971D01*
G01X5688438Y-6487319D01*
G01X5665013Y-6487319D01*
G01X5665325Y-6469643D01*
G01X5667276Y-6468012D01*
G01X5669227Y-6466380D01*
G01X5670505Y-6465358D01*
G01X5681866Y-6465358D01*
G01X5683940Y-6463133D01*
G01X5686015Y-6460909D01*
G01X5684500Y-6459697D01*
G01X5682985Y-6458484D01*
G01X5638535Y-6458497D01*
G01X5636788Y-6459616D01*
G01X5635041Y-6460734D01*
G01X5605729Y-6460734D01*
G01X5605727Y-6460580D01*
G01X5604018Y-6458983D01*
G01X5602308Y-6457386D01*
G01X5592850Y-6466872D01*
G01X5584472Y-6467041D01*
G01X5576094Y-6467210D01*
G01X5573453Y-6468839D01*
G01X5570813Y-6470468D01*
G01X5569749Y-6472279D01*
G01X5568685Y-6474090D01*
G01X5563283Y-6474090D01*
G01X5562987Y-6471259D01*
G01X5560139Y-6468142D01*
G01X5558062Y-6467740D01*
G01X5555985Y-6467338D01*
G01X5532173Y-6467038D01*
G01X5530263Y-6467653D01*
G01X5528354Y-6468269D01*
G01X5527487Y-6468994D01*
G01X5526620Y-6469719D01*
G01X5525825Y-6472397D01*
G01X5525029Y-6475075D01*
G01X5521493Y-6475075D01*
G01X5521296Y-6472129D01*
G01X5519828Y-6469290D01*
G01X5517356Y-6468093D01*
G01X5514873Y-6467519D01*
G01X5512390Y-6466946D01*
G01X5508360Y-6467171D01*
G01X5499691Y-6467455D01*
G01X5491021Y-6467740D01*
G01X5490046Y-6469561D01*
G01X5489070Y-6471382D01*
G01X5491082Y-6474559D01*
G01X5493900Y-6475480D01*
G01X5496719Y-6476401D01*
G01X5502010Y-6476453D01*
G01X5507302Y-6476504D01*
G01X5508785Y-6478945D01*
G01X5510267Y-6481386D01*
G01X5509992Y-6482104D01*
G01X5509717Y-6482821D01*
G01X5508096Y-6482821D01*
G01X5508096Y-6483879D01*
G01X5504789Y-6483862D01*
G01X5501481Y-6483844D01*
G01X5499277Y-6482001D01*
G01X5498943Y-6479940D01*
G01X5498608Y-6477879D01*
G01X5497989Y-6477496D01*
G01X5497369Y-6477113D01*
G01X5490918Y-6477698D01*
G01X5490372Y-6478275D01*
G01X5489826Y-6478852D01*
G01X5488907Y-6480289D01*
G01X5487988Y-6481725D01*
G01X5436134Y-6481725D01*
G01X5436132Y-6480026D01*
G01X5436129Y-6478024D01*
G01X5436866Y-6476261D01*
G01X5437603Y-6474497D01*
G01X5439326Y-6473897D01*
G01X5441050Y-6473296D01*
G01X5454564Y-6473296D01*
G01X5456191Y-6472370D01*
G01X5457818Y-6471444D01*
G01X5457825Y-6470798D01*
G01X5456008Y-6468872D01*
G01X5454192Y-6466946D01*
G01X5445293Y-6467007D01*
G01X5436394Y-6467068D01*
G01X5434490Y-6467439D01*
G01X5432587Y-6467811D01*
G01X5431687Y-6468569D01*
G01X5430787Y-6469327D01*
G01X5428680Y-6471423D01*
G01X5428367Y-6472671D01*
G01X5428053Y-6473920D01*
G01X5426800Y-6475273D01*
G01X5425546Y-6476625D01*
G01X5421320Y-6476625D01*
G01X5421253Y-6470915D01*
G01X5419938Y-6468666D01*
G01X5418622Y-6466417D01*
G01X5417472Y-6466417D01*
G01X5417826Y-6463286D01*
G01X5418180Y-6460155D01*
G01X5417626Y-6459813D01*
G01X5417072Y-6459470D01*
G01X5416746Y-6460320D01*
G01X5416420Y-6461170D01*
G01X5416672Y-6463793D01*
G01X5416924Y-6466416D01*
G01X5415422Y-6467662D01*
G01X5414673Y-6469111D01*
G01X5413924Y-6470560D01*
G01X5413221Y-6485275D01*
G01X5408954Y-6485275D01*
G01X5408483Y-6475677D01*
G01X5406964Y-6472974D01*
G01X5405445Y-6470270D01*
G01X5403238Y-6468740D01*
G01X5401031Y-6467210D01*
G01X5374481Y-6466854D01*
G01X5372984Y-6468428D01*
G01X5371486Y-6470003D01*
G01X5371012Y-6472046D01*
G01X5370538Y-6474090D01*
G01X5370525Y-6480491D01*
G01X5370513Y-6486892D01*
G01X5366279Y-6486892D01*
G01X5366279Y-6485678D01*
G01X5366941Y-6485017D01*
G01X5367602Y-6484355D01*
G01X5367543Y-6479853D01*
G01X5367484Y-6475351D01*
G01X5366752Y-6473927D01*
G01X5366021Y-6472502D01*
G01X5364695Y-6471297D01*
G01X5363369Y-6470092D01*
G01X5358606Y-6467210D01*
G01X5348023Y-6467091D01*
G01X5337440Y-6466972D01*
G01X5336381Y-6467451D01*
G01X5335323Y-6467930D01*
G01X5332603Y-6468004D01*
G01X5330788Y-6469625D01*
G01X5328973Y-6471245D01*
G01X5323967Y-6471245D01*
G01X5324007Y-6471181D01*
G01X5323102Y-6469650D01*
G01X5322197Y-6468118D01*
G01X5316361Y-6466946D01*
G01X5310452Y-6467020D01*
G01X5308335Y-6467930D01*
G01X5305623Y-6468004D01*
G01X5304107Y-6469587D01*
G01X5302591Y-6471169D01*
G01X5302194Y-6473952D01*
G01X5301798Y-6476735D01*
G01X5301759Y-6481814D01*
G01X5301721Y-6486892D01*
G01X5301721Y-6486892D01*
G01X5293254Y-6486892D01*
G01X5293254Y-6476370D01*
G01X5295070Y-6473296D01*
G01X5295353Y-6473284D01*
G01X5295635Y-6473272D01*
G01X5296887Y-6472310D01*
G01X5298139Y-6471347D01*
G01X5294506Y-6465179D01*
G01X5290873Y-6459011D01*
G01X5288756Y-6459071D01*
G01X5285052Y-6461523D01*
G01X5283986Y-6463044D01*
G01X5282920Y-6464565D01*
G01X5282316Y-6465887D01*
G01X5281711Y-6467210D01*
G01X5280880Y-6469440D01*
G01X5280049Y-6471669D01*
G01X5277496Y-6471669D01*
G01X5277908Y-6471541D01*
G01X5277908Y-6470674D01*
G01X5276453Y-6469748D01*
G01X5274998Y-6468822D01*
G01X5274733Y-6468486D01*
G01X5274469Y-6468150D01*
G01X5270765Y-6467353D01*
G01X5261769Y-6467198D01*
G01X5252773Y-6467044D01*
G01X5250215Y-6467937D01*
G01X5247657Y-6468829D01*
G01X5245156Y-6471236D01*
G01X5244789Y-6473684D01*
G01X5244422Y-6476132D01*
G01X5240490Y-6476132D01*
G01X5240394Y-6474048D01*
G01X5240256Y-6471079D01*
G01X5238932Y-6469592D01*
G01X5237608Y-6468106D01*
G01X5235665Y-6467690D01*
G01X5233723Y-6467274D01*
G01X5224198Y-6467242D01*
G01X5214673Y-6467210D01*
G01X5209910Y-6467766D01*
G01X5206399Y-6471214D01*
G01X5205798Y-6475148D01*
G01X5205060Y-6476001D01*
G01X5204322Y-6476855D01*
G01X5204016Y-6479441D01*
G01X5203710Y-6482027D01*
G01X5199592Y-6482027D01*
G01X5199592Y-6462082D01*
G01X5198752Y-6460661D01*
G01X5197913Y-6459240D01*
G01X5196402Y-6458373D01*
G01X5194892Y-6457506D01*
G01X5193559Y-6458741D01*
G01X5192226Y-6459976D01*
G01X5191964Y-6461212D01*
G01X5191703Y-6462448D01*
G01X5191260Y-6487319D01*
G01X5186797Y-6487319D01*
G01X5186868Y-6487196D01*
G01X5185954Y-6486378D01*
G01X5185040Y-6485559D01*
G01X5181900Y-6484984D01*
G01X5178760Y-6484408D01*
G01X5146734Y-6484408D01*
G01X5145249Y-6483131D01*
G01X5143765Y-6481853D01*
G01X5145036Y-6480749D01*
G01X5146308Y-6479646D01*
G01X5179144Y-6479646D01*
G01X5182923Y-6478469D01*
G01X5184611Y-6477668D01*
G01X5186300Y-6476867D01*
G01X5185493Y-6475636D01*
G01X5184686Y-6474405D01*
G01X5179276Y-6471708D01*
G01X5146763Y-6471708D01*
G01X5145594Y-6466260D01*
G01X5147321Y-6464352D01*
G01X5164899Y-6464194D01*
G01X5182478Y-6464035D01*
G01X5184459Y-6462524D01*
G01X5186440Y-6461012D01*
G01X5185224Y-6459878D01*
G01X5184007Y-6458744D01*
G01X5162298Y-6458618D01*
G01X5140590Y-6458493D01*
G01X5136432Y-6460007D01*
G01X5135298Y-6461919D01*
G01X5133528Y-6466681D01*
G01X5133499Y-6475412D01*
G01X5133471Y-6484144D01*
G01X5054600Y-6484144D01*
G01X5054600Y-6335779D01*
G01X5129162Y-6335779D01*
G01X5129661Y-6341963D01*
G01X5130160Y-6348148D01*
G01X5134047Y-6359260D01*
G01X5134588Y-6361064D01*
G01X5135129Y-6362868D01*
G01X5136537Y-6365033D01*
G01X5137944Y-6367198D01*
G01X5138341Y-6367374D01*
G01X5138738Y-6367551D01*
G01X5138738Y-6369050D01*
G01X5139681Y-6369050D01*
G01X5140285Y-6371431D01*
G01X5148670Y-6379369D01*
G01X5153290Y-6382958D01*
G01X5156994Y-6384782D01*
G01X5160698Y-6386606D01*
G01X5164402Y-6388578D01*
G01X5165297Y-6388604D01*
G01X5166192Y-6388629D01*
G01X5166770Y-6389565D01*
G01X5171810Y-6390310D01*
G01X5174721Y-6391119D01*
G01X5177631Y-6391928D01*
G01X5183981Y-6393448D01*
G01X5192713Y-6394189D01*
G01X5201444Y-6394930D01*
G01X5343790Y-6394953D01*
G01X5343790Y-6394953D01*
G01X5486135Y-6394977D01*
G01X5487788Y-6393523D01*
G01X5489441Y-6392069D01*
G01X5489773Y-6389687D01*
G01X5490105Y-6387306D01*
G01X5490073Y-6344247D01*
G01X5489487Y-6342494D01*
G01X5488902Y-6340740D01*
G01X5487561Y-6339294D01*
G01X5486220Y-6337848D01*
G01X5343303Y-6337706D01*
G01X5200385Y-6337565D01*
G01X5197355Y-6336053D01*
G01X5194324Y-6334542D01*
G01X5192857Y-6331555D01*
G01X5191390Y-6328569D01*
G01X5191259Y-6285878D01*
G01X5211691Y-6285878D01*
G01X5213136Y-6288173D01*
G01X5214582Y-6290469D01*
G01X5215421Y-6291113D01*
G01X5216260Y-6291758D01*
G01X5216260Y-6291758D01*
G01X5364264Y-6291792D01*
G01X5367031Y-6290987D01*
G01X5369797Y-6290183D01*
G01X5370684Y-6288324D01*
G01X5371571Y-6286464D01*
G01X5371577Y-6283969D01*
G01X5371582Y-6281473D01*
G01X5372370Y-6278875D01*
G01X5373158Y-6276278D01*
G01X5373158Y-6270360D01*
G01X5408613Y-6270360D01*
G01X5408621Y-6273271D01*
G01X5408628Y-6276181D01*
G01X5409435Y-6278498D01*
G01X5410242Y-6280816D01*
G01X5410214Y-6299413D01*
G01X5410186Y-6318010D01*
G01X5411012Y-6320792D01*
G01X5411838Y-6323573D01*
G01X5412335Y-6323265D01*
G01X5412833Y-6322958D01*
G01X5418772Y-6321411D01*
G01X5426340Y-6317396D01*
G01X5428456Y-6316219D01*
G01X5431896Y-6314518D01*
G01X5435335Y-6312818D01*
G01X5436740Y-6311830D01*
G01X5438145Y-6310842D01*
G01X5439289Y-6310842D01*
G01X5443398Y-6308673D01*
G01X5447506Y-6306504D01*
G01X5449094Y-6305719D01*
G01X5450681Y-6304935D01*
G01X5457031Y-6301739D01*
G01X5472906Y-6293683D01*
G01X5488781Y-6285628D01*
G01X5490898Y-6284471D01*
G01X5493808Y-6283025D01*
G01X5496719Y-6281580D01*
G01X5500456Y-6279642D01*
G01X5504193Y-6277703D01*
G01X5505468Y-6276810D01*
G01X5506744Y-6275917D01*
G01X5507934Y-6275917D01*
G01X5510295Y-6277965D01*
G01X5511048Y-6280464D01*
G01X5511800Y-6282964D01*
G01X5511800Y-6323479D01*
G01X5512262Y-6323764D01*
G01X5512262Y-6323764D01*
G01X5512723Y-6324050D01*
G01X5513050Y-6322076D01*
G01X5513376Y-6320102D01*
G01X5513398Y-6300258D01*
G01X5513421Y-6280415D01*
G01X5514703Y-6277797D01*
G01X5515697Y-6275767D01*
G01X5547122Y-6275767D01*
G01X5548511Y-6278137D01*
G01X5549900Y-6280508D01*
G01X5549900Y-6392296D01*
G01X5550745Y-6394785D01*
G01X5551590Y-6397274D01*
G01X5552729Y-6398225D01*
G01X5553869Y-6399177D01*
G01X5579340Y-6399195D01*
G01X5604812Y-6399212D01*
G01X5606552Y-6398481D01*
G01X5608291Y-6397749D01*
G01X5609649Y-6392598D01*
G01X5609673Y-6304159D01*
G01X5609696Y-6215721D01*
G01X5610529Y-6213727D01*
G01X5611362Y-6211733D01*
G01X5612079Y-6211017D01*
G01X5612795Y-6210300D01*
G01X5616946Y-6210300D01*
G01X5618745Y-6210873D01*
G01X5620544Y-6211446D01*
G01X5621602Y-6211893D01*
G01X5622660Y-6212341D01*
G01X5626100Y-6213465D01*
G01X5629540Y-6214589D01*
G01X5632715Y-6216513D01*
G01X5635890Y-6218438D01*
G01X5636066Y-6218867D01*
G01X5636242Y-6219296D01*
G01X5637257Y-6219296D01*
G01X5637896Y-6219792D01*
G01X5638535Y-6220288D01*
G01X5643827Y-6224824D01*
G01X5647318Y-6228542D01*
G01X5650808Y-6232260D01*
G01X5656594Y-6239134D01*
G01X5659267Y-6241253D01*
G01X5661940Y-6243373D01*
G01X5663615Y-6246019D01*
G01X5667640Y-6250371D01*
G01X5670579Y-6253956D01*
G01X5675048Y-6259146D01*
G01X5677429Y-6261894D01*
G01X5679810Y-6264642D01*
G01X5682059Y-6267236D01*
G01X5684308Y-6269831D01*
G01X5685366Y-6271103D01*
G01X5686425Y-6272374D01*
G01X5686425Y-6273200D01*
G01X5687456Y-6273527D01*
G01X5688488Y-6273854D01*
G01X5688809Y-6274868D01*
G01X5689131Y-6275881D01*
G01X5691350Y-6278175D01*
G01X5693569Y-6280469D01*
G01X5696407Y-6284218D01*
G01X5699919Y-6287910D01*
G01X5701118Y-6289454D01*
G01X5702318Y-6290998D01*
G01X5704558Y-6293613D01*
G01X5706798Y-6296229D01*
G01X5709591Y-6299164D01*
G01X5713148Y-6303696D01*
G01X5714471Y-6305101D01*
G01X5715794Y-6306505D01*
G01X5720249Y-6311635D01*
G01X5721851Y-6313684D01*
G01X5723454Y-6315733D01*
G01X5724388Y-6316595D01*
G01X5725323Y-6317456D01*
G01X5727438Y-6320096D01*
G01X5729552Y-6322735D01*
G01X5731140Y-6324402D01*
G01X5733520Y-6327279D01*
G01X5735899Y-6330156D01*
G01X5736959Y-6331443D01*
G01X5738019Y-6332731D01*
G01X5740527Y-6335412D01*
G01X5743035Y-6338094D01*
G01X5743046Y-6338812D01*
G01X5745295Y-6341215D01*
G01X5747544Y-6343617D01*
G01X5750719Y-6347438D01*
G01X5753894Y-6351258D01*
G01X5760798Y-6358202D01*
G01X5761943Y-6358956D01*
G01X5763087Y-6359711D01*
G01X5764037Y-6361473D01*
G01X5764986Y-6363235D01*
G01X5765922Y-6363532D01*
G01X5766858Y-6363830D01*
G01X5766858Y-6364587D01*
G01X5769240Y-6367650D01*
G01X5774531Y-6372902D01*
G01X5779823Y-6378155D01*
G01X5781883Y-6379478D01*
G01X5783943Y-6380801D01*
G01X5786173Y-6383186D01*
G01X5788025Y-6384134D01*
G01X5789877Y-6385082D01*
G01X5791529Y-6386337D01*
G01X5793181Y-6387593D01*
G01X5795762Y-6388903D01*
G01X5798344Y-6390212D01*
G01X5799402Y-6390222D01*
G01X5802842Y-6391964D01*
G01X5806281Y-6393705D01*
G01X5808398Y-6394336D01*
G01X5810515Y-6394966D01*
G01X5813690Y-6395552D01*
G01X5816865Y-6396139D01*
G01X5818981Y-6396631D01*
G01X5821098Y-6397123D01*
G01X5826919Y-6398165D01*
G01X5832740Y-6399206D01*
G01X5868530Y-6399209D01*
G01X5868530Y-6399209D01*
G01X5904321Y-6399212D01*
G01X5905307Y-6397228D01*
G01X5906294Y-6395244D01*
G01X5906294Y-6164527D01*
G01X5953065Y-6164527D01*
G01X5953227Y-6188869D01*
G01X5953390Y-6213210D01*
G01X5954851Y-6215459D01*
G01X5956313Y-6217708D01*
G01X6094767Y-6217708D01*
G01X6097852Y-6221148D01*
G01X6098126Y-6402539D01*
G01X6099451Y-6403767D01*
G01X6100775Y-6404995D01*
G01X6100775Y-6404995D01*
G01X6102753Y-6405577D01*
G01X6104731Y-6406158D01*
G01X6131263Y-6405993D01*
G01X6157794Y-6405827D01*
G01X6159895Y-6403232D01*
G01X6160244Y-6399049D01*
G01X6160593Y-6394867D01*
G01X6160547Y-6216385D01*
G01X6161440Y-6212681D01*
G01X6319330Y-6212681D01*
G01X6319330Y-6339681D01*
G01X6319833Y-6347436D01*
G01X6320335Y-6355191D01*
G01X6321619Y-6358020D01*
G01X6322902Y-6360848D01*
G01X6324369Y-6365006D01*
G01X6325836Y-6369164D01*
G01X6327161Y-6371092D01*
G01X6328485Y-6373019D01*
G01X6329941Y-6375151D01*
G01X6331396Y-6377283D01*
G01X6334901Y-6380839D01*
G01X6338405Y-6384396D01*
G01X6339317Y-6384396D01*
G01X6343744Y-6388095D01*
G01X6345682Y-6388958D01*
G01X6347619Y-6389820D01*
G01X6351852Y-6391807D01*
G01X6356085Y-6393794D01*
G01X6359790Y-6394905D01*
G01X6362171Y-6395251D01*
G01X6364552Y-6395597D01*
G01X6366537Y-6396082D01*
G01X6368521Y-6396567D01*
G01X6370505Y-6397071D01*
G01X6372490Y-6397575D01*
G01X6372490Y-6397575D01*
G01X6378007Y-6398394D01*
G01X6383524Y-6399212D01*
G01X6677069Y-6399212D01*
G01X6679144Y-6397280D01*
G01X6679699Y-6394277D01*
G01X6680254Y-6391275D01*
G01X6680089Y-6369182D01*
G01X6679925Y-6347090D01*
G01X6678993Y-6345425D01*
G01X6678061Y-6343761D01*
G01X6677366Y-6343184D01*
G01X6676670Y-6342607D01*
G01X6533576Y-6342458D01*
G01X6390481Y-6342310D01*
G01X6388629Y-6341509D01*
G01X6386777Y-6340708D01*
G01X6384660Y-6339517D01*
G01X6381485Y-6333331D01*
G01X6381321Y-6278033D01*
G01X6381157Y-6222735D01*
G01X6381817Y-6219825D01*
G01X6382476Y-6216915D01*
G01X6383297Y-6215592D01*
G01X6384118Y-6214269D01*
G01X6385379Y-6212946D01*
G01X6385813Y-6212944D01*
G01X6386248Y-6212941D01*
G01X6391454Y-6210300D01*
G01X6676939Y-6210300D01*
G01X6678173Y-6208316D01*
G01X6679406Y-6206331D01*
G01X6679567Y-6182519D01*
G01X6679727Y-6158706D01*
G01X6678866Y-6155961D01*
G01X6678005Y-6153215D01*
G01X6677169Y-6152521D01*
G01X6676333Y-6151827D01*
G01X6403710Y-6151717D01*
G01X6380427Y-6152541D01*
G01X6375135Y-6153674D01*
G01X6371696Y-6154204D01*
G01X6368256Y-6154734D01*
G01X6365610Y-6155302D01*
G01X6362965Y-6155870D01*
G01X6359593Y-6156667D01*
G01X6356221Y-6157465D01*
G01X6350265Y-6160480D01*
G01X6347566Y-6161538D01*
G01X6344868Y-6162597D01*
G01X6341216Y-6165284D01*
G01X6337565Y-6167971D01*
G01X6334304Y-6171080D01*
G01X6331044Y-6174188D01*
G01X6329215Y-6177756D01*
G01X6328889Y-6178021D01*
G01X6328563Y-6178285D01*
G01X6325838Y-6181990D01*
G01X6323926Y-6187810D01*
G01X6322901Y-6190456D01*
G01X6321538Y-6193631D01*
G01X6320946Y-6195219D01*
G01X6320353Y-6196806D01*
G01X6319842Y-6204744D01*
G01X6319330Y-6212681D01*
G01X6161440Y-6212681D01*
G01X6161523Y-6212339D01*
G01X6163368Y-6210300D01*
G01X6174052Y-6210291D01*
G01X6176744Y-6209967D01*
G01X6179436Y-6209644D01*
G01X6180382Y-6207888D01*
G01X6181328Y-6206131D01*
G01X6181031Y-6203056D01*
G01X6180733Y-6199981D01*
G01X6180173Y-6197392D01*
G01X6179612Y-6194802D01*
G01X6179168Y-6194217D01*
G01X6178724Y-6193631D01*
G01X6176928Y-6187281D01*
G01X6176364Y-6185429D01*
G01X6175800Y-6183577D01*
G01X6174113Y-6179608D01*
G01X6173392Y-6179608D01*
G01X6170172Y-6172867D01*
G01X6168649Y-6171078D01*
G01X6167126Y-6169290D01*
G01X6166293Y-6167967D01*
G01X6165460Y-6166644D01*
G01X6161818Y-6162715D01*
G01X6158177Y-6158787D01*
G01X6150504Y-6153108D01*
G01X6150504Y-6152315D01*
G01X6144419Y-6149232D01*
G01X6143323Y-6148277D01*
G01X6142227Y-6147323D01*
G01X6137502Y-6145428D01*
G01X6132777Y-6143534D01*
G01X6131772Y-6142567D01*
G01X6126284Y-6142567D01*
G01X6125504Y-6143758D01*
G01X6124723Y-6144949D01*
G01X6123207Y-6149711D01*
G01X6121690Y-6154473D01*
G01X6119106Y-6156854D01*
G01X6116522Y-6159235D01*
G01X5957094Y-6159765D01*
G01X5955925Y-6160539D01*
G01X5954757Y-6161314D01*
G01X5953911Y-6162921D01*
G01X5953065Y-6164527D01*
G01X5906294Y-6164527D01*
G01X5906294Y-6156060D01*
G01X5905336Y-6154137D01*
G01X5904379Y-6152213D01*
G01X5899515Y-6151906D01*
G01X5894652Y-6151599D01*
G01X5872732Y-6151623D01*
G01X5850813Y-6151647D01*
G01X5847944Y-6154718D01*
G01X5847526Y-6156447D01*
G01X5847108Y-6158177D01*
G01X5846498Y-6339329D01*
G01X5846233Y-6339542D01*
G01X5845969Y-6339755D01*
G01X5843954Y-6340909D01*
G01X5841940Y-6342062D01*
G01X5836977Y-6342062D01*
G01X5832741Y-6340665D01*
G01X5828506Y-6339267D01*
G01X5825860Y-6337560D01*
G01X5824008Y-6336623D01*
G01X5822156Y-6335686D01*
G01X5816203Y-6331215D01*
G01X5813308Y-6329098D01*
G01X5812102Y-6327848D01*
G01X5809192Y-6324755D01*
G01X5806281Y-6321663D01*
G01X5803802Y-6318766D01*
G01X5801322Y-6315869D01*
G01X5799833Y-6314022D01*
G01X5798344Y-6312176D01*
G01X5795698Y-6309432D01*
G01X5791218Y-6304227D01*
G01X5788819Y-6301110D01*
G01X5786292Y-6298679D01*
G01X5784056Y-6295658D01*
G01X5775590Y-6286385D01*
G01X5775215Y-6285736D01*
G01X5774840Y-6285086D01*
G01X5772834Y-6282974D01*
G01X5770827Y-6280863D01*
G01X5769553Y-6279316D01*
G01X5768278Y-6277769D01*
G01X5764477Y-6273472D01*
G01X5761925Y-6270360D01*
G01X5758232Y-6266127D01*
G01X5755534Y-6263069D01*
G01X5752835Y-6260010D01*
G01X5750586Y-6257596D01*
G01X5748338Y-6255182D01*
G01X5748338Y-6254384D01*
G01X5742781Y-6248522D01*
G01X5740490Y-6245910D01*
G01X5738198Y-6243297D01*
G01X5737844Y-6242794D01*
G01X5737490Y-6242290D01*
G01X5734315Y-6240296D01*
G01X5732727Y-6238181D01*
G01X5729949Y-6235272D01*
G01X5727171Y-6232362D01*
G01X5727171Y-6231553D01*
G01X5723202Y-6227302D01*
G01X5721085Y-6224775D01*
G01X5718175Y-6221410D01*
G01X5715265Y-6218045D01*
G01X5711031Y-6213240D01*
G01X5710502Y-6212515D01*
G01X5709973Y-6211791D01*
G01X5708121Y-6209780D01*
G01X5706269Y-6207770D01*
G01X5703805Y-6204934D01*
G01X5701342Y-6202098D01*
G01X5698352Y-6198658D01*
G01X5695362Y-6195219D01*
G01X5693142Y-6192735D01*
G01X5690923Y-6190251D01*
G01X5688806Y-6187448D01*
G01X5687433Y-6186223D01*
G01X5686797Y-6185504D01*
G01X5686160Y-6184785D01*
G01X5676635Y-6175361D01*
G01X5673990Y-6172922D01*
G01X5669756Y-6169851D01*
G01X5667640Y-6167877D01*
G01X5666052Y-6167060D01*
G01X5664465Y-6166242D01*
G01X5662083Y-6164530D01*
G01X5659702Y-6162819D01*
G01X5657718Y-6161953D01*
G01X5655733Y-6161087D01*
G01X5653934Y-6160294D01*
G01X5652134Y-6159500D01*
G01X5650971Y-6159500D01*
G01X5650971Y-6158566D01*
G01X5642240Y-6155910D01*
G01X5636419Y-6154737D01*
G01X5633244Y-6154149D01*
G01X5630069Y-6153560D01*
G01X5624777Y-6152601D01*
G01X5615252Y-6152118D01*
G01X5605727Y-6151635D01*
G01X5554805Y-6151562D01*
G01X5551884Y-6153861D01*
G01X5549923Y-6158177D01*
G01X5549896Y-6266656D01*
G01X5547688Y-6270278D01*
G01X5547122Y-6275767D01*
G01X5515697Y-6275767D01*
G01X5515985Y-6275179D01*
G01X5515694Y-6272770D01*
G01X5515402Y-6270360D01*
G01X5514395Y-6268117D01*
G01X5513388Y-6265874D01*
G01X5513388Y-6227849D01*
G01X5513067Y-6227015D01*
G01X5512747Y-6226181D01*
G01X5512274Y-6226474D01*
G01X5511800Y-6226767D01*
G01X5511800Y-6264754D01*
G01X5511160Y-6266234D01*
G01X5510519Y-6267715D01*
G01X5509043Y-6269453D01*
G01X5507567Y-6271191D01*
G01X5507511Y-6272628D01*
G01X5507456Y-6274065D01*
G01X5506815Y-6271994D01*
G01X5506174Y-6269924D01*
G01X5503299Y-6268506D01*
G01X5500423Y-6267088D01*
G01X5485077Y-6259194D01*
G01X5482960Y-6257992D01*
G01X5479785Y-6256532D01*
G01X5476610Y-6255072D01*
G01X5472906Y-6252855D01*
G01X5468144Y-6250810D01*
G01X5467615Y-6250252D01*
G01X5451210Y-6242146D01*
G01X5444860Y-6240287D01*
G01X5440098Y-6237807D01*
G01X5439304Y-6237310D01*
G01X5438510Y-6236812D01*
G01X5430573Y-6233078D01*
G01X5427825Y-6231534D01*
G01X5425078Y-6229990D01*
G01X5422666Y-6229069D01*
G01X5420254Y-6228148D01*
G01X5420254Y-6227462D01*
G01X5417180Y-6225646D01*
G01X5411825Y-6225646D01*
G01X5411277Y-6226669D01*
G01X5410729Y-6227693D01*
G01X5410729Y-6264793D01*
G01X5409671Y-6267577D01*
G01X5408613Y-6270360D01*
G01X5373158Y-6270360D01*
G01X5373158Y-6270264D01*
G01X5372370Y-6267666D01*
G01X5371582Y-6265069D01*
G01X5371577Y-6260148D01*
G01X5371571Y-6255227D01*
G01X5369933Y-6252059D01*
G01X5368503Y-6251420D01*
G01X5367073Y-6250781D01*
G01X5291667Y-6250639D01*
G01X5216260Y-6250496D01*
G01X5215067Y-6251332D01*
G01X5213873Y-6252168D01*
G01X5212027Y-6255544D01*
G01X5211859Y-6270711D01*
G01X5211691Y-6285878D01*
G01X5191259Y-6285878D01*
G01X5191231Y-6276700D01*
G01X5191073Y-6224830D01*
G01X5191541Y-6219244D01*
G01X5192009Y-6213658D01*
G01X5193022Y-6211582D01*
G01X5194035Y-6209506D01*
G01X5200915Y-6206121D01*
G01X5486145Y-6206067D01*
G01X5487693Y-6203685D01*
G01X5488356Y-6202460D01*
G01X5489020Y-6201234D01*
G01X5489060Y-6176795D01*
G01X5489100Y-6152356D01*
G01X5487436Y-6149028D01*
G01X5485708Y-6147594D01*
G01X5204619Y-6147510D01*
G01X5192448Y-6148247D01*
G01X5187421Y-6148847D01*
G01X5182394Y-6149447D01*
G01X5179219Y-6150002D01*
G01X5176044Y-6150557D01*
G01X5172075Y-6151394D01*
G01X5168106Y-6152231D01*
G01X5164402Y-6154156D01*
G01X5155935Y-6157566D01*
G01X5155406Y-6158253D01*
G01X5147943Y-6163047D01*
G01X5144623Y-6166357D01*
G01X5141303Y-6169667D01*
G01X5139204Y-6173097D01*
G01X5137104Y-6176527D01*
G01X5135258Y-6178509D01*
G01X5133480Y-6184747D01*
G01X5131703Y-6190985D01*
G01X5131072Y-6192044D01*
G01X5130321Y-6194425D01*
G01X5129570Y-6196806D01*
G01X5129162Y-6335779D01*
G01X5054600Y-6335779D01*
G01X5054600Y-6127431D01*
G01X6132361Y-6127431D01*
G01X6134137Y-6128913D01*
G01X6135912Y-6130396D01*
G01X6137015Y-6130396D01*
G01X6145477Y-6134469D01*
G01X6150322Y-6136291D01*
G01X6151799Y-6137560D01*
G01X6153277Y-6138830D01*
G01X6154801Y-6139504D01*
G01X6156325Y-6140179D01*
G01X6156325Y-6140979D01*
G01X6157779Y-6140979D01*
G01X6160094Y-6143096D01*
G01X6162410Y-6145212D01*
G01X6163281Y-6145212D01*
G01X6168714Y-6150240D01*
G01X6172838Y-6154412D01*
G01X6176963Y-6158584D01*
G01X6176963Y-6159438D01*
G01X6182254Y-6165486D01*
G01X6182254Y-6166750D01*
G01X6183729Y-6168813D01*
G01X6185204Y-6170877D01*
G01X6186375Y-6172892D01*
G01X6187546Y-6174906D01*
G01X6187548Y-6175538D01*
G01X6187550Y-6176169D01*
G01X6189568Y-6180156D01*
G01X6191586Y-6184142D01*
G01X6192196Y-6187299D01*
G01X6192807Y-6190456D01*
G01X6194459Y-6199452D01*
G01X6195368Y-6203082D01*
G01X6196277Y-6206711D01*
G01X6196277Y-6206711D01*
G01X6198324Y-6208561D01*
G01X6200370Y-6210410D01*
G01X6224852Y-6209899D01*
G01X6225977Y-6209526D01*
G01X6227102Y-6209153D01*
G01X6227829Y-6207781D01*
G01X6228556Y-6206410D01*
G01X6228483Y-6200815D01*
G01X6228409Y-6195219D01*
G01X6226637Y-6188869D01*
G01X6224754Y-6181460D01*
G01X6224063Y-6178285D01*
G01X6223373Y-6175110D01*
G01X6219296Y-6166786D01*
G01X6219296Y-6165409D01*
G01X6217302Y-6160756D01*
G01X6216533Y-6159988D01*
G01X6215764Y-6159219D01*
G01X6214007Y-6155523D01*
G01X6212249Y-6151827D01*
G01X6210508Y-6150240D01*
G01X6208597Y-6147152D01*
G01X6206685Y-6144065D01*
G01X6203574Y-6140647D01*
G01X6202593Y-6139149D01*
G01X6201612Y-6137652D01*
G01X6197904Y-6134024D01*
G01X6194196Y-6130396D01*
G01X6193613Y-6130396D01*
G01X6191241Y-6128145D01*
G01X6188869Y-6125894D01*
G01X6184106Y-6122224D01*
G01X6183313Y-6121377D01*
G01X6182519Y-6120531D01*
G01X6178838Y-6118490D01*
G01X6175717Y-6115666D01*
G01X6172323Y-6113960D01*
G01X6168928Y-6112254D01*
G01X6167521Y-6111105D01*
G01X6166115Y-6109956D01*
G01X6163469Y-6108977D01*
G01X6160823Y-6107998D01*
G01X6155002Y-6104847D01*
G01X6147065Y-6102278D01*
G01X6141609Y-6101683D01*
G01X6138863Y-6106033D01*
G01X6138849Y-6106970D01*
G01X6138836Y-6107906D01*
G01X6136732Y-6112134D01*
G01X6134629Y-6116361D01*
G01X6134629Y-6118414D01*
G01X6133652Y-6121665D01*
G01X6133006Y-6124548D01*
G01X6132361Y-6127431D01*
G01X5054600Y-6127431D01*
G01X5054600Y-6083512D01*
G01X6146800Y-6083512D01*
G01X6146800Y-6085959D01*
G01X6149685Y-6087804D01*
G01X6152570Y-6089650D01*
G01X6153679Y-6089650D01*
G01X6153679Y-6090514D01*
G01X6159103Y-6092303D01*
G01X6164527Y-6094092D01*
G01X6167280Y-6095840D01*
G01X6170033Y-6097587D01*
G01X6170943Y-6097587D01*
G01X6173291Y-6098705D01*
G01X6175640Y-6099822D01*
G01X6177756Y-6101698D01*
G01X6180719Y-6103129D01*
G01X6183682Y-6104560D01*
G01X6185217Y-6105826D01*
G01X6186752Y-6107092D01*
G01X6187297Y-6107499D01*
G01X6187842Y-6107906D01*
G01X6189678Y-6108927D01*
G01X6191515Y-6109948D01*
G01X6193631Y-6112193D01*
G01X6195748Y-6113719D01*
G01X6197865Y-6115245D01*
G01X6199452Y-6116681D01*
G01X6201040Y-6118117D01*
G01X6207654Y-6124722D01*
G01X6214269Y-6131327D01*
G01X6217805Y-6135299D01*
G01X6219391Y-6137878D01*
G01X6220978Y-6140456D01*
G01X6221895Y-6141115D01*
G01X6222812Y-6141773D01*
G01X6224298Y-6144830D01*
G01X6225784Y-6147886D01*
G01X6227302Y-6149797D01*
G01X6228821Y-6151708D01*
G01X6228821Y-6152635D01*
G01X6230286Y-6155671D01*
G01X6231752Y-6158706D01*
G01X6232635Y-6160029D01*
G01X6233517Y-6161352D01*
G01X6234357Y-6163998D01*
G01X6235196Y-6166644D01*
G01X6237018Y-6172465D01*
G01X6237710Y-6172994D01*
G01X6239303Y-6178285D01*
G01X6239878Y-6181196D01*
G01X6240453Y-6184106D01*
G01X6242046Y-6194690D01*
G01X6243183Y-6200510D01*
G01X6244167Y-6204337D01*
G01X6244167Y-6206561D01*
G01X6244167Y-6206561D01*
G01X6246036Y-6208430D01*
G01X6247906Y-6210300D01*
G01X6258825Y-6210300D01*
G01X6260985Y-6208735D01*
G01X6263145Y-6207170D01*
G01X6263485Y-6204899D01*
G01X6263824Y-6202627D01*
G01X6262954Y-6195483D01*
G01X6262084Y-6188340D01*
G01X6261626Y-6184900D01*
G01X6261168Y-6181460D01*
G01X6260586Y-6178107D01*
G01X6260004Y-6174753D01*
G01X6258986Y-6172551D01*
G01X6257969Y-6170348D01*
G01X6256440Y-6165585D01*
G01X6255541Y-6161896D01*
G01X6254642Y-6158206D01*
G01X6253732Y-6157050D01*
G01X6252823Y-6155894D01*
G01X6249331Y-6146863D01*
G01X6248448Y-6145906D01*
G01X6247565Y-6144948D01*
G01X6245631Y-6140914D01*
G01X6243696Y-6136880D01*
G01X6243005Y-6136151D01*
G01X6242315Y-6135423D01*
G01X6240315Y-6132512D01*
G01X6238316Y-6129602D01*
G01X6232975Y-6122723D01*
G01X6231030Y-6120373D01*
G01X6229085Y-6118022D01*
G01X6222206Y-6110571D01*
G01X6216915Y-6105416D01*
G01X6215077Y-6104016D01*
G01X6213238Y-6102615D01*
G01X6211637Y-6101027D01*
G01X6210035Y-6099440D01*
G01X6205273Y-6096313D01*
G01X6204215Y-6095193D01*
G01X6203156Y-6094073D01*
G01X6201320Y-6093052D01*
G01X6199484Y-6092031D01*
G01X6198939Y-6091624D01*
G01X6198394Y-6091217D01*
G01X6196868Y-6089959D01*
G01X6195343Y-6088702D01*
G01X6191841Y-6086960D01*
G01X6188340Y-6085219D01*
G01X6187953Y-6084590D01*
G01X6187567Y-6083961D01*
G01X6181460Y-6081525D01*
G01X6176169Y-6078225D01*
G01X6173523Y-6077273D01*
G01X6170877Y-6076321D01*
G01X6169210Y-6075577D01*
G01X6167542Y-6074833D01*
G01X6166379Y-6074833D01*
G01X6166379Y-6074033D01*
G01X6163469Y-6072810D01*
G01X6157485Y-6071129D01*
G01X6152256Y-6071129D01*
G01X6150679Y-6072981D01*
G01X6150125Y-6074569D01*
G01X6149571Y-6076156D01*
G01X6148606Y-6079331D01*
G01X6147641Y-6082506D01*
G01X6146800Y-6083512D01*
G01X5054600Y-6083512D01*
G01X5054600Y-6045200D01*
G01X6747933Y-6045200D01*
G01X6747933Y-6553200D01*
G37*
G36*
G01X5845231Y-6484353D02*
G01X5842954Y-6484973D01*
G01X5840677Y-6485593D01*
G01X5835397Y-6485308D01*
G01X5830116Y-6485024D01*
G01X5828925Y-6483530D01*
G01X5827733Y-6482036D01*
G01X5828060Y-6479121D01*
G01X5828387Y-6476206D01*
G01X5829324Y-6474378D01*
G01X5832740Y-6473391D01*
G01X5841912Y-6473296D01*
G01X5844261Y-6474303D01*
G01X5846610Y-6475309D01*
G01X5846951Y-6476198D01*
G01X5847292Y-6477087D01*
G01X5847292Y-6482292D01*
G01X5845231Y-6484353D01*
G37*
G36*
G01X5593643Y-6485202D02*
G01X5581631Y-6485558D01*
G01X5580028Y-6483842D01*
G01X5578425Y-6482126D01*
G01X5578715Y-6481372D01*
G01X5579004Y-6480618D01*
G01X5579004Y-6476084D01*
G01X5580101Y-6474690D01*
G01X5581198Y-6473296D01*
G01X5592355Y-6473296D01*
G01X5594940Y-6474703D01*
G01X5597525Y-6476110D01*
G01X5597525Y-6482238D01*
G01X5593643Y-6485202D01*
G37*
G36*
G01X5356138Y-6479159D02*
G01X5356336Y-6482662D01*
G01X5353531Y-6485467D01*
G01X5342414Y-6485467D01*
G01X5339127Y-6483767D01*
G01X5338076Y-6482788D01*
G01X5337025Y-6481809D01*
G01X5337353Y-6479416D01*
G01X5337681Y-6477023D01*
G01X5338314Y-6476009D01*
G01X5338947Y-6474995D01*
G01X5340575Y-6474214D01*
G01X5342202Y-6473433D01*
G01X5353579Y-6473296D01*
G01X5355940Y-6475656D01*
G01X5356138Y-6479159D01*
G37*
G36*
G01X6204006Y-6483823D02*
G01X6202417Y-6484645D01*
G01X6200828Y-6485467D01*
G01X6190278Y-6485467D01*
G01X6188565Y-6484809D01*
G01X6187791Y-6483312D01*
G01X6187017Y-6481815D01*
G01X6187017Y-6477598D01*
G01X6188059Y-6474855D01*
G01X6188729Y-6474096D01*
G01X6189398Y-6473336D01*
G01X6195503Y-6473316D01*
G01X6201609Y-6473296D01*
G01X6203391Y-6474783D01*
G01X6205172Y-6476271D01*
G01X6205536Y-6479101D01*
G01X6205899Y-6481931D01*
G01X6204006Y-6483823D01*
G37*
G36*
G01X6409717Y-6480051D02*
G01X6407998Y-6480977D01*
G01X6406279Y-6481902D01*
G01X6396098Y-6481139D01*
G01X6395298Y-6479918D01*
G01X6394498Y-6478698D01*
G01X6394180Y-6477429D01*
G01X6393861Y-6476160D01*
G01X6396114Y-6473296D01*
G01X6407480Y-6473296D01*
G01X6409723Y-6474379D01*
G01X6411965Y-6475463D01*
G01X6412272Y-6476263D01*
G01X6412579Y-6477063D01*
G01X6411148Y-6478557D01*
G01X6409717Y-6480051D01*
G37*
G36*
G01X6663470Y-6481758D02*
G01X6660764Y-6481762D01*
G01X6657713Y-6479381D01*
G01X6656563Y-6478058D01*
G01X6655413Y-6476735D01*
G01X6657114Y-6474847D01*
G01X6659827Y-6473408D01*
G01X6671204Y-6473296D01*
G01X6673137Y-6475229D01*
G01X6673773Y-6476887D01*
G01X6671693Y-6481091D01*
G01X6666177Y-6481753D01*
G01X6663470Y-6481758D01*
G37*
G04 Image End*

G04 Text Start*
G54D10*
G01X858520Y-4342892D02*
G01X858520Y-4432808D01*
G01X894334Y-4372864D02*
G01X894334Y-4432808D01*
G01X894334Y-4389882D02*
G01X907288Y-4377182D01*
G01X915670Y-4372864D01*
G01X928624Y-4372864D01*
G01X937260Y-4377182D01*
G01X941578Y-4389882D01*
G01X941578Y-4432808D01*
G01X1024636Y-4385564D02*
G01X1020318Y-4377182D01*
G01X1007364Y-4372864D01*
G01X994664Y-4372864D01*
G01X981710Y-4377182D01*
G01X977392Y-4385564D01*
G01X981710Y-4394200D01*
G01X990346Y-4398518D01*
G01X1011682Y-4402836D01*
G01X1020318Y-4407154D01*
G01X1024636Y-4415536D01*
G01X1024636Y-4419854D01*
G01X1020318Y-4428490D01*
G01X1007364Y-4432808D01*
G01X994664Y-4432808D01*
G01X981710Y-4428490D01*
G01X977392Y-4419854D01*
G01X1073404Y-4342892D02*
G01X1073404Y-4415536D01*
G01X1077722Y-4428490D01*
G01X1086104Y-4432808D01*
G01X1094740Y-4432808D01*
G01X1060450Y-4372864D02*
G01X1090422Y-4372864D01*
G01X1130554Y-4372864D02*
G01X1130554Y-4432808D01*
G01X1130554Y-4398518D02*
G01X1134872Y-4385564D01*
G01X1143508Y-4377182D01*
G01X1151890Y-4372864D01*
G01X1164844Y-4372864D01*
G01X1200658Y-4372864D02*
G01X1200658Y-4415536D01*
G01X1204976Y-4428490D01*
G01X1213612Y-4432808D01*
G01X1226312Y-4432808D01*
G01X1234948Y-4428490D01*
G01X1247902Y-4415536D01*
G01X1247902Y-4372864D02*
G01X1247902Y-4432808D01*
G01X1283716Y-4372864D02*
G01X1283716Y-4432808D01*
G01X1283716Y-4389882D02*
G01X1296670Y-4377182D01*
G01X1305052Y-4372864D01*
G01X1318006Y-4372864D01*
G01X1326642Y-4377182D01*
G01X1330960Y-4389882D01*
G01X1330960Y-4432808D01*
G01X1330960Y-4389882D02*
G01X1343660Y-4377182D01*
G01X1352296Y-4372864D01*
G01X1365250Y-4372864D01*
G01X1373632Y-4377182D01*
G01X1377950Y-4389882D01*
G01X1377950Y-4432808D01*
G01X1413764Y-4398518D02*
G01X1465326Y-4398518D01*
G01X1465326Y-4389882D01*
G01X1461008Y-4381246D01*
G01X1456690Y-4377182D01*
G01X1448054Y-4372864D01*
G01X1435100Y-4372864D01*
G01X1426718Y-4377182D01*
G01X1418082Y-4385564D01*
G01X1413764Y-4398518D01*
G01X1413764Y-4407154D01*
G01X1418082Y-4419854D01*
G01X1426718Y-4428490D01*
G01X1435100Y-4432808D01*
G01X1448054Y-4432808D01*
G01X1456690Y-4428490D01*
G01X1465326Y-4419854D01*
G01X1501140Y-4372864D02*
G01X1501140Y-4432808D01*
G01X1501140Y-4389882D02*
G01X1514094Y-4377182D01*
G01X1522476Y-4372864D01*
G01X1535430Y-4372864D01*
G01X1544066Y-4377182D01*
G01X1548384Y-4389882D01*
G01X1548384Y-4432808D01*
G01X1597152Y-4342892D02*
G01X1597152Y-4415536D01*
G01X1601470Y-4428490D01*
G01X1609852Y-4432808D01*
G01X1618488Y-4432808D01*
G01X1584198Y-4372864D02*
G01X1614170Y-4372864D01*
G01X1705864Y-4372864D02*
G01X1705864Y-4432808D01*
G01X1705864Y-4385564D02*
G01X1697228Y-4377182D01*
G01X1688592Y-4372864D01*
G01X1675638Y-4372864D01*
G01X1667256Y-4377182D01*
G01X1658620Y-4385564D01*
G01X1654302Y-4398518D01*
G01X1654302Y-4407154D01*
G01X1658620Y-4419854D01*
G01X1667256Y-4428490D01*
G01X1675638Y-4432808D01*
G01X1688592Y-4432808D01*
G01X1697228Y-4428490D01*
G01X1705864Y-4419854D01*
G01X1754632Y-4342892D02*
G01X1754632Y-4415536D01*
G01X1758950Y-4428490D01*
G01X1767332Y-4432808D01*
G01X1775968Y-4432808D01*
G01X1741678Y-4372864D02*
G01X1771650Y-4372864D01*
G01X1811782Y-4342892D02*
G01X1816100Y-4346956D01*
G01X1820418Y-4342892D01*
G01X1816100Y-4338574D01*
G01X1811782Y-4342892D01*
G01X1816100Y-4372864D02*
G01X1816100Y-4432808D01*
G01X1877568Y-4372864D02*
G01X1869186Y-4377182D01*
G01X1860550Y-4385564D01*
G01X1856232Y-4398518D01*
G01X1856232Y-4407154D01*
G01X1860550Y-4419854D01*
G01X1869186Y-4428490D01*
G01X1877568Y-4432808D01*
G01X1890522Y-4432808D01*
G01X1899158Y-4428490D01*
G01X1907794Y-4419854D01*
G01X1911858Y-4407154D01*
G01X1911858Y-4398518D01*
G01X1907794Y-4385564D01*
G01X1899158Y-4377182D01*
G01X1890522Y-4372864D01*
G01X1877568Y-4372864D01*
G01X1947672Y-4372864D02*
G01X1947672Y-4432808D01*
G01X1947672Y-4389882D02*
G01X1960626Y-4377182D01*
G01X1969008Y-4372864D01*
G01X1981962Y-4372864D01*
G01X1990598Y-4377182D01*
G01X1994916Y-4389882D01*
G01X1994916Y-4432808D01*
G01X2161032Y-4342892D02*
G01X2126742Y-4432808D01*
G01X2161032Y-4342892D02*
G01X2195322Y-4432808D01*
G01X2139696Y-4402836D02*
G01X2182368Y-4402836D01*
G01X2231136Y-4372864D02*
G01X2231136Y-4432808D01*
G01X2231136Y-4389882D02*
G01X2244090Y-4377182D01*
G01X2252472Y-4372864D01*
G01X2265426Y-4372864D01*
G01X2274062Y-4377182D01*
G01X2278380Y-4389882D01*
G01X2278380Y-4432808D01*
G01X2278380Y-4389882D02*
G01X2291080Y-4377182D01*
G01X2299716Y-4372864D01*
G01X2312670Y-4372864D01*
G01X2321052Y-4377182D01*
G01X2325370Y-4389882D01*
G01X2325370Y-4432808D01*
G01X2361184Y-4372864D02*
G01X2361184Y-4462780D01*
G01X2361184Y-4385564D02*
G01X2369820Y-4377182D01*
G01X2378456Y-4372864D01*
G01X2391156Y-4372864D01*
G01X2399792Y-4377182D01*
G01X2408428Y-4385564D01*
G01X2412746Y-4398518D01*
G01X2412746Y-4407154D01*
G01X2408428Y-4419854D01*
G01X2399792Y-4428490D01*
G01X2391156Y-4432808D01*
G01X2378456Y-4432808D01*
G01X2369820Y-4428490D01*
G01X2361184Y-4419854D01*
G01X2448560Y-4342892D02*
G01X2448560Y-4432808D01*
G01X2484374Y-4342892D02*
G01X2488692Y-4346956D01*
G01X2493010Y-4342892D01*
G01X2488692Y-4338574D01*
G01X2484374Y-4342892D01*
G01X2488692Y-4372864D02*
G01X2488692Y-4432808D01*
G01X2563114Y-4342892D02*
G01X2554478Y-4342892D01*
G01X2546096Y-4346956D01*
G01X2541778Y-4359910D01*
G01X2541778Y-4432808D01*
G01X2528824Y-4372864D02*
G01X2558796Y-4372864D01*
G01X2598928Y-4342892D02*
G01X2603246Y-4346956D01*
G01X2607564Y-4342892D01*
G01X2603246Y-4338574D01*
G01X2598928Y-4342892D01*
G01X2603246Y-4372864D02*
G01X2603246Y-4432808D01*
G01X2643378Y-4398518D02*
G01X2694940Y-4398518D01*
G01X2694940Y-4389882D01*
G01X2690622Y-4381246D01*
G01X2686304Y-4377182D01*
G01X2677668Y-4372864D01*
G01X2664714Y-4372864D01*
G01X2656332Y-4377182D01*
G01X2647696Y-4385564D01*
G01X2643378Y-4398518D01*
G01X2643378Y-4407154D01*
G01X2647696Y-4419854D01*
G01X2656332Y-4428490D01*
G01X2664714Y-4432808D01*
G01X2677668Y-4432808D01*
G01X2686304Y-4428490D01*
G01X2694940Y-4419854D01*
G01X2730754Y-4372864D02*
G01X2730754Y-4432808D01*
G01X2730754Y-4398518D02*
G01X2735072Y-4385564D01*
G01X2743708Y-4377182D01*
G01X2752090Y-4372864D01*
G01X2765044Y-4372864D01*
G01X3271520Y-4342892D02*
G01X3271520Y-4432808D01*
G01X3331464Y-4342892D02*
G01X3331464Y-4432808D01*
G01X3271520Y-4385564D02*
G01X3331464Y-4385564D01*
G01X3367278Y-4342892D02*
G01X3371596Y-4346956D01*
G01X3375914Y-4342892D01*
G01X3371596Y-4338574D01*
G01X3367278Y-4342892D01*
G01X3371596Y-4372864D02*
G01X3371596Y-4432808D01*
G01X3463290Y-4372864D02*
G01X3463290Y-4441444D01*
G01X3458972Y-4454144D01*
G01X3454654Y-4458462D01*
G01X3446018Y-4462780D01*
G01X3433064Y-4462780D01*
G01X3424682Y-4458462D01*
G01X3463290Y-4385564D02*
G01X3454654Y-4377182D01*
G01X3446018Y-4372864D01*
G01X3433064Y-4372864D01*
G01X3424682Y-4377182D01*
G01X3416046Y-4385564D01*
G01X3411728Y-4398518D01*
G01X3411728Y-4407154D01*
G01X3416046Y-4419854D01*
G01X3424682Y-4428490D01*
G01X3433064Y-4432808D01*
G01X3446018Y-4432808D01*
G01X3454654Y-4428490D01*
G01X3463290Y-4419854D01*
G01X3499104Y-4342892D02*
G01X3499104Y-4432808D01*
G01X3499104Y-4389882D02*
G01X3512058Y-4377182D01*
G01X3520440Y-4372864D01*
G01X3533394Y-4372864D01*
G01X3542030Y-4377182D01*
G01X3546348Y-4389882D01*
G01X3546348Y-4432808D01*
G01X3582162Y-4372864D02*
G01X3582162Y-4462780D01*
G01X3582162Y-4385564D02*
G01X3590798Y-4377182D01*
G01X3599434Y-4372864D01*
G01X3612134Y-4372864D01*
G01X3620770Y-4377182D01*
G01X3629406Y-4385564D01*
G01X3633724Y-4398518D01*
G01X3633724Y-4407154D01*
G01X3629406Y-4419854D01*
G01X3620770Y-4428490D01*
G01X3612134Y-4432808D01*
G01X3599434Y-4432808D01*
G01X3590798Y-4428490D01*
G01X3582162Y-4419854D01*
G01X3721100Y-4372864D02*
G01X3721100Y-4432808D01*
G01X3721100Y-4385564D02*
G01X3712464Y-4377182D01*
G01X3703828Y-4372864D01*
G01X3690874Y-4372864D01*
G01X3682492Y-4377182D01*
G01X3673856Y-4385564D01*
G01X3669538Y-4398518D01*
G01X3669538Y-4407154D01*
G01X3673856Y-4419854D01*
G01X3682492Y-4428490D01*
G01X3690874Y-4432808D01*
G01X3703828Y-4432808D01*
G01X3712464Y-4428490D01*
G01X3721100Y-4419854D01*
G01X3804158Y-4385564D02*
G01X3799840Y-4377182D01*
G01X3786886Y-4372864D01*
G01X3774186Y-4372864D01*
G01X3761232Y-4377182D01*
G01X3756914Y-4385564D01*
G01X3761232Y-4394200D01*
G01X3769868Y-4398518D01*
G01X3791204Y-4402836D01*
G01X3799840Y-4407154D01*
G01X3804158Y-4415536D01*
G01X3804158Y-4419854D01*
G01X3799840Y-4428490D01*
G01X3786886Y-4432808D01*
G01X3774186Y-4432808D01*
G01X3761232Y-4428490D01*
G01X3756914Y-4419854D01*
G01X3887216Y-4385564D02*
G01X3882898Y-4377182D01*
G01X3869944Y-4372864D01*
G01X3857244Y-4372864D01*
G01X3844290Y-4377182D01*
G01X3839972Y-4385564D01*
G01X3844290Y-4394200D01*
G01X3852926Y-4398518D01*
G01X3874262Y-4402836D01*
G01X3882898Y-4407154D01*
G01X3887216Y-4415536D01*
G01X3887216Y-4419854D01*
G01X3882898Y-4428490D01*
G01X3869944Y-4432808D01*
G01X3857244Y-4432808D01*
G01X3844290Y-4428490D01*
G01X3839972Y-4419854D01*
G01X4389120Y-4342892D02*
G01X4389120Y-4432808D01*
G01X4389120Y-4432808D02*
G01X4440682Y-4432808D01*
G01X4497832Y-4372864D02*
G01X4489450Y-4377182D01*
G01X4480814Y-4385564D01*
G01X4476496Y-4398518D01*
G01X4476496Y-4407154D01*
G01X4480814Y-4419854D01*
G01X4489450Y-4428490D01*
G01X4497832Y-4432808D01*
G01X4510786Y-4432808D01*
G01X4519422Y-4428490D01*
G01X4528058Y-4419854D01*
G01X4532122Y-4407154D01*
G01X4532122Y-4398518D01*
G01X4528058Y-4385564D01*
G01X4519422Y-4377182D01*
G01X4510786Y-4372864D01*
G01X4497832Y-4372864D01*
G01X4567936Y-4372864D02*
G01X4585208Y-4432808D01*
G01X4602226Y-4372864D02*
G01X4585208Y-4432808D01*
G01X4602226Y-4372864D02*
G01X4619498Y-4432808D01*
G01X4636516Y-4372864D02*
G01X4619498Y-4432808D01*
G01X4672330Y-4372864D02*
G01X4672330Y-4462780D01*
G01X4672330Y-4385564D02*
G01X4680966Y-4377182D01*
G01X4689602Y-4372864D01*
G01X4702302Y-4372864D01*
G01X4710938Y-4377182D01*
G01X4719574Y-4385564D01*
G01X4723892Y-4398518D01*
G01X4723892Y-4407154D01*
G01X4719574Y-4419854D01*
G01X4710938Y-4428490D01*
G01X4702302Y-4432808D01*
G01X4689602Y-4432808D01*
G01X4680966Y-4428490D01*
G01X4672330Y-4419854D01*
G01X4811268Y-4372864D02*
G01X4811268Y-4432808D01*
G01X4811268Y-4385564D02*
G01X4802632Y-4377182D01*
G01X4793996Y-4372864D01*
G01X4781042Y-4372864D01*
G01X4772660Y-4377182D01*
G01X4764024Y-4385564D01*
G01X4759706Y-4398518D01*
G01X4759706Y-4407154D01*
G01X4764024Y-4419854D01*
G01X4772660Y-4428490D01*
G01X4781042Y-4432808D01*
G01X4793996Y-4432808D01*
G01X4802632Y-4428490D01*
G01X4811268Y-4419854D01*
G01X4894326Y-4385564D02*
G01X4890008Y-4377182D01*
G01X4877054Y-4372864D01*
G01X4864354Y-4372864D01*
G01X4851400Y-4377182D01*
G01X4847082Y-4385564D01*
G01X4851400Y-4394200D01*
G01X4860036Y-4398518D01*
G01X4881372Y-4402836D01*
G01X4890008Y-4407154D01*
G01X4894326Y-4415536D01*
G01X4894326Y-4419854D01*
G01X4890008Y-4428490D01*
G01X4877054Y-4432808D01*
G01X4864354Y-4432808D01*
G01X4851400Y-4428490D01*
G01X4847082Y-4419854D01*
G01X4977384Y-4385564D02*
G01X4973066Y-4377182D01*
G01X4960112Y-4372864D01*
G01X4947412Y-4372864D01*
G01X4934458Y-4377182D01*
G01X4930140Y-4385564D01*
G01X4934458Y-4394200D01*
G01X4943094Y-4398518D01*
G01X4964430Y-4402836D01*
G01X4973066Y-4407154D01*
G01X4977384Y-4415536D01*
G01X4977384Y-4419854D01*
G01X4973066Y-4428490D01*
G01X4960112Y-4432808D01*
G01X4947412Y-4432808D01*
G01X4934458Y-4428490D01*
G01X4930140Y-4419854D01*
G01X5951220Y-5587492D02*
G01X5951220Y-5677408D01*
G01X5951220Y-5587492D02*
G01X6011164Y-5677408D01*
G01X6011164Y-5587492D02*
G01X6011164Y-5677408D01*
G01X6068314Y-5617464D02*
G01X6059932Y-5621782D01*
G01X6051296Y-5630164D01*
G01X6046978Y-5643118D01*
G01X6046978Y-5651754D01*
G01X6051296Y-5664454D01*
G01X6059932Y-5673090D01*
G01X6068314Y-5677408D01*
G01X6081268Y-5677408D01*
G01X6089904Y-5673090D01*
G01X6098540Y-5664454D01*
G01X6102604Y-5651754D01*
G01X6102604Y-5643118D01*
G01X6098540Y-5630164D01*
G01X6089904Y-5621782D01*
G01X6081268Y-5617464D01*
G01X6068314Y-5617464D01*
G01X6151372Y-5587492D02*
G01X6151372Y-5660136D01*
G01X6155690Y-5673090D01*
G01X6164072Y-5677408D01*
G01X6172708Y-5677408D01*
G01X6138418Y-5617464D02*
G01X6168390Y-5617464D01*
G01X6260084Y-5630164D02*
G01X6251448Y-5621782D01*
G01X6242812Y-5617464D01*
G01X6229858Y-5617464D01*
G01X6221476Y-5621782D01*
G01X6212840Y-5630164D01*
G01X6208522Y-5643118D01*
G01X6208522Y-5651754D01*
G01X6212840Y-5664454D01*
G01X6221476Y-5673090D01*
G01X6229858Y-5677408D01*
G01X6242812Y-5677408D01*
G01X6251448Y-5673090D01*
G01X6260084Y-5664454D01*
G01X6295898Y-5587492D02*
G01X6295898Y-5677408D01*
G01X6295898Y-5634482D02*
G01X6308852Y-5621782D01*
G01X6317234Y-5617464D01*
G01X6330188Y-5617464D01*
G01X6338824Y-5621782D01*
G01X6343142Y-5634482D01*
G01X6343142Y-5677408D01*
G01X3957320Y-5587492D02*
G01X3957320Y-5677408D01*
G01X3957320Y-5587492D02*
G01X3995928Y-5587492D01*
G01X4008882Y-5591556D01*
G01X4012946Y-5595874D01*
G01X4017264Y-5604510D01*
G01X4017264Y-5613146D01*
G01X4012946Y-5621782D01*
G01X4008882Y-5625846D01*
G01X3995928Y-5630164D01*
G01X3957320Y-5630164D01*
G01X3987292Y-5630164D02*
G01X4017264Y-5677408D01*
G01X4053078Y-5587492D02*
G01X4053078Y-5677408D01*
G01X4053078Y-5677408D02*
G01X4104640Y-5677408D01*
G01X4140454Y-5587492D02*
G01X4140454Y-5677408D01*
G01X4140454Y-5587492D02*
G01X4170426Y-5587492D01*
G01X4183380Y-5591556D01*
G01X4192016Y-5600192D01*
G01X4196080Y-5608828D01*
G01X4200398Y-5621782D01*
G01X4200398Y-5643118D01*
G01X4196080Y-5656072D01*
G01X4192016Y-5664454D01*
G01X4183380Y-5673090D01*
G01X4170426Y-5677408D01*
G01X4140454Y-5677408D01*
G01X4469892Y-6993636D02*
G01X4461256Y-7002018D01*
G01X4457192Y-7014972D01*
G01X4457192Y-7032244D01*
G01X4461256Y-7044944D01*
G01X4469892Y-7053580D01*
G01X4478528Y-7053580D01*
G01X4487164Y-7049262D01*
G01X4491482Y-7044944D01*
G01X4495546Y-7036308D01*
G01X4504182Y-7010654D01*
G01X4508500Y-7002018D01*
G01X4512818Y-6997954D01*
G01X4521454Y-6993636D01*
G01X4534154Y-6993636D01*
G01X4542790Y-7002018D01*
G01X4547108Y-7014972D01*
G01X4547108Y-7032244D01*
G01X4542790Y-7044944D01*
G01X4534154Y-7053580D01*
G01X4487164Y-6957822D02*
G01X4529836Y-6957822D01*
G01X4542790Y-6953504D01*
G01X4547108Y-6944868D01*
G01X4547108Y-6932168D01*
G01X4542790Y-6923532D01*
G01X4529836Y-6910578D01*
G01X4487164Y-6910578D02*
G01X4547108Y-6910578D01*
G01X4487164Y-6874764D02*
G01X4547108Y-6874764D01*
G01X4504182Y-6874764D02*
G01X4491482Y-6861810D01*
G01X4487164Y-6853428D01*
G01X4487164Y-6840474D01*
G01X4491482Y-6831838D01*
G01X4504182Y-6827520D01*
G01X4547108Y-6827520D01*
G01X4504182Y-6827520D02*
G01X4491482Y-6814820D01*
G01X4487164Y-6806184D01*
G01X4487164Y-6793230D01*
G01X4491482Y-6784848D01*
G01X4504182Y-6780530D01*
G01X4547108Y-6780530D01*
G01X4487164Y-6744716D02*
G01X4547108Y-6744716D01*
G01X4504182Y-6744716D02*
G01X4491482Y-6731762D01*
G01X4487164Y-6723380D01*
G01X4487164Y-6710426D01*
G01X4491482Y-6701790D01*
G01X4504182Y-6697472D01*
G01X4547108Y-6697472D01*
G01X4504182Y-6697472D02*
G01X4491482Y-6684772D01*
G01X4487164Y-6676136D01*
G01X4487164Y-6663182D01*
G01X4491482Y-6654800D01*
G01X4504182Y-6650482D01*
G01X4547108Y-6650482D01*
G01X4457192Y-6614668D02*
G01X4461256Y-6610350D01*
G01X4457192Y-6606032D01*
G01X4452874Y-6610350D01*
G01X4457192Y-6614668D01*
G01X4487164Y-6610350D02*
G01X4547108Y-6610350D01*
G01X4487164Y-6570218D02*
G01X4547108Y-6570218D01*
G01X4504182Y-6570218D02*
G01X4491482Y-6557264D01*
G01X4487164Y-6548882D01*
G01X4487164Y-6535928D01*
G01X4491482Y-6527292D01*
G01X4504182Y-6522974D01*
G01X4547108Y-6522974D01*
G01X4487164Y-6435598D02*
G01X4555744Y-6435598D01*
G01X4568444Y-6439916D01*
G01X4572762Y-6444234D01*
G01X4577080Y-6452870D01*
G01X4577080Y-6465824D01*
G01X4572762Y-6474206D01*
G01X4499864Y-6435598D02*
G01X4491482Y-6444234D01*
G01X4487164Y-6452870D01*
G01X4487164Y-6465824D01*
G01X4491482Y-6474206D01*
G01X4499864Y-6482842D01*
G01X4512818Y-6487160D01*
G01X4521454Y-6487160D01*
G01X4534154Y-6482842D01*
G01X4542790Y-6474206D01*
G01X4547108Y-6465824D01*
G01X4547108Y-6452870D01*
G01X4542790Y-6444234D01*
G01X4534154Y-6435598D01*
G01X4457192Y-6269482D02*
G01X4547108Y-6303772D01*
G01X4457192Y-6269482D02*
G01X4547108Y-6235192D01*
G01X4517136Y-6290818D02*
G01X4517136Y-6248146D01*
G01X4487164Y-6199378D02*
G01X4547108Y-6199378D01*
G01X4504182Y-6199378D02*
G01X4491482Y-6186424D01*
G01X4487164Y-6178042D01*
G01X4487164Y-6165088D01*
G01X4491482Y-6156452D01*
G01X4504182Y-6152134D01*
G01X4547108Y-6152134D01*
G01X4504182Y-6152134D02*
G01X4491482Y-6139434D01*
G01X4487164Y-6130798D01*
G01X4487164Y-6117844D01*
G01X4491482Y-6109462D01*
G01X4504182Y-6105144D01*
G01X4547108Y-6105144D01*
G01X4487164Y-6069330D02*
G01X4577080Y-6069330D01*
G01X4499864Y-6069330D02*
G01X4491482Y-6060694D01*
G01X4487164Y-6052058D01*
G01X4487164Y-6039358D01*
G01X4491482Y-6030722D01*
G01X4499864Y-6022086D01*
G01X4512818Y-6017768D01*
G01X4521454Y-6017768D01*
G01X4534154Y-6022086D01*
G01X4542790Y-6030722D01*
G01X4547108Y-6039358D01*
G01X4547108Y-6052058D01*
G01X4542790Y-6060694D01*
G01X4534154Y-6069330D01*
G54D11*
G01X5067300Y-6827520D02*
G01X5049520Y-6836410D01*
G01X5031740Y-6854190D01*
G01X5022850Y-6871970D01*
G01X5013960Y-6898640D01*
G01X5013960Y-6943090D01*
G01X5022850Y-6969760D01*
G01X5031740Y-6987540D01*
G01X5049520Y-7005320D01*
G01X5067300Y-7014210D01*
G01X5102860Y-7014210D01*
G01X5120640Y-7005320D01*
G01X5138420Y-6987540D01*
G01X5147310Y-6969760D01*
G01X5156200Y-6943090D01*
G01X5156200Y-6898640D01*
G01X5147310Y-6871970D01*
G01X5138420Y-6854190D01*
G01X5120640Y-6836410D01*
G01X5102860Y-6827520D01*
G01X5067300Y-6827520D01*
G01X5219192Y-6827520D02*
G01X5219192Y-7014210D01*
G01X5219192Y-6925310D02*
G01X5245862Y-6898640D01*
G01X5263642Y-6889750D01*
G01X5290312Y-6889750D01*
G01X5308092Y-6898640D01*
G01X5316982Y-6925310D01*
G01X5316982Y-7014210D01*
G01X5379974Y-6889750D02*
G01X5379974Y-7014210D01*
G01X5379974Y-6925310D02*
G01X5406644Y-6898640D01*
G01X5424424Y-6889750D01*
G01X5451094Y-6889750D01*
G01X5468874Y-6898640D01*
G01X5477764Y-6925310D01*
G01X5477764Y-7014210D01*
G01X5477764Y-6925310D02*
G01X5504434Y-6898640D01*
G01X5522214Y-6889750D01*
G01X5548884Y-6889750D01*
G01X5566664Y-6898640D01*
G01X5575554Y-6925310D01*
G01X5575554Y-7014210D01*
G01X5638546Y-6827520D02*
G01X5647436Y-6836410D01*
G01X5656326Y-6827520D01*
G01X5647436Y-6818630D01*
G01X5638546Y-6827520D01*
G01X5647436Y-6889750D02*
G01X5647436Y-7014210D01*
G01X5719318Y-6943090D02*
G01X5825998Y-6943090D01*
G01X5825998Y-6925310D01*
G01X5817108Y-6907530D01*
G01X5808218Y-6898640D01*
G01X5790438Y-6889750D01*
G01X5763768Y-6889750D01*
G01X5745988Y-6898640D01*
G01X5728208Y-6916420D01*
G01X5719318Y-6943090D01*
G01X5719318Y-6960870D01*
G01X5728208Y-6987540D01*
G01X5745988Y-7005320D01*
G01X5763768Y-7014210D01*
G01X5790438Y-7014210D01*
G01X5808218Y-7005320D01*
G01X5825998Y-6987540D01*
G01X5986780Y-6916420D02*
G01X5977890Y-6898640D01*
G01X5951220Y-6889750D01*
G01X5924550Y-6889750D01*
G01X5897880Y-6898640D01*
G01X5888990Y-6916420D01*
G01X5897880Y-6934200D01*
G01X5915660Y-6943090D01*
G01X5960110Y-6951980D01*
G01X5977890Y-6960870D01*
G01X5986780Y-6978650D01*
G01X5986780Y-6987540D01*
G01X5977890Y-7005320D01*
G01X5951220Y-7014210D01*
G01X5924550Y-7014210D01*
G01X5897880Y-7005320D01*
G01X5888990Y-6987540D01*
G01X6320028Y-6809740D02*
G01X6248908Y-6934200D01*
G01X6320028Y-6809740D02*
G01X6391148Y-6934200D01*
G01X6454140Y-7076440D02*
G01X6614160Y-7076440D01*
G01X6748272Y-6809740D02*
G01X6677152Y-6934200D01*
G01X6748272Y-6809740D02*
G01X6819392Y-6934200D01*
G54D10*
G01X2878328Y-5224018D02*
G01X2869692Y-5228336D01*
G01X2861056Y-5236718D01*
G01X2856992Y-5245354D01*
G01X2856992Y-5262626D01*
G01X2861056Y-5271008D01*
G01X2869692Y-5279644D01*
G01X2878328Y-5283962D01*
G01X2891282Y-5288280D01*
G01X2912618Y-5288280D01*
G01X2925572Y-5283962D01*
G01X2933954Y-5279644D01*
G01X2942590Y-5271008D01*
G01X2946908Y-5262626D01*
G01X2946908Y-5245354D01*
G01X2942590Y-5236718D01*
G01X2933954Y-5228336D01*
G01X2925572Y-5224018D01*
G01X2912618Y-5224018D01*
G01X2912618Y-5245354D02*
G01X2912618Y-5224018D01*
G01X2856992Y-5188204D02*
G01X2946908Y-5188204D01*
G01X2856992Y-5188204D02*
G01X2946908Y-5128260D01*
G01X2856992Y-5128260D02*
G01X2946908Y-5128260D01*
G01X2856992Y-5092446D02*
G01X2946908Y-5092446D01*
G01X2856992Y-5092446D02*
G01X2856992Y-5062474D01*
G01X2861056Y-5049520D01*
G01X2869692Y-5040884D01*
G01X2878328Y-5036820D01*
G01X2891282Y-5032502D01*
G01X2912618Y-5032502D01*
G01X2925572Y-5036820D01*
G01X2933954Y-5040884D01*
G01X2942590Y-5049520D01*
G01X2946908Y-5062474D01*
G01X2946908Y-5092446D01*
G01X2856992Y-5593080D02*
G01X2946908Y-5558790D01*
G01X2856992Y-5524500D02*
G01X2946908Y-5558790D01*
G01X2908300Y-5488686D02*
G01X2908300Y-5411470D01*
G01X2856992Y-4919980D02*
G01X2946908Y-4885690D01*
G01X2856992Y-4851400D02*
G01X2946908Y-4885690D01*
G01X2869692Y-4776978D02*
G01X2946908Y-4776978D01*
G01X2908300Y-4815586D02*
G01X2908300Y-4738370D01*
G54D12*
G01X6847586Y-5190236D02*
G01X6843014Y-5192776D01*
G01X6838188Y-5197348D01*
G01X6835902Y-5202174D01*
G01X6835902Y-5211826D01*
G01X6838188Y-5216398D01*
G01X6843014Y-5221224D01*
G01X6847586Y-5223764D01*
G01X6854952Y-5226050D01*
G01X6866636Y-5226050D01*
G01X6874002Y-5223764D01*
G01X6878574Y-5221224D01*
G01X6883400Y-5216398D01*
G01X6885686Y-5211826D01*
G01X6885686Y-5202174D01*
G01X6883400Y-5197348D01*
G01X6878574Y-5192776D01*
G01X6874002Y-5190236D01*
G01X6866636Y-5190236D01*
G01X6866636Y-5202174D02*
G01X6866636Y-5190236D01*
G01X6835902Y-5166106D02*
G01X6885686Y-5166106D01*
G01X6835902Y-5166106D02*
G01X6885686Y-5132832D01*
G01X6835902Y-5132832D02*
G01X6885686Y-5132832D01*
G01X6835902Y-5108702D02*
G01X6885686Y-5108702D01*
G01X6835902Y-5108702D02*
G01X6835902Y-5091938D01*
G01X6838188Y-5084826D01*
G01X6843014Y-5080000D01*
G01X6847586Y-5077714D01*
G01X6854952Y-5075428D01*
G01X6866636Y-5075428D01*
G01X6874002Y-5077714D01*
G01X6878574Y-5080000D01*
G01X6883400Y-5084826D01*
G01X6885686Y-5091938D01*
G01X6885686Y-5108702D01*
G54D10*
G01X3381502Y-4010660D02*
G01X3378454Y-4004310D01*
G01X3372104Y-3998214D01*
G01X3366008Y-3995166D01*
G01X3353562Y-3995166D01*
G01X3347466Y-3998214D01*
G01X3341116Y-4004310D01*
G01X3338068Y-4010660D01*
G01X3335020Y-4019804D01*
G01X3335020Y-4035298D01*
G01X3338068Y-4044696D01*
G01X3341116Y-4050792D01*
G01X3347466Y-4057142D01*
G01X3353562Y-4060190D01*
G01X3366008Y-4060190D01*
G01X3372104Y-4057142D01*
G01X3378454Y-4050792D01*
G01X3381502Y-4044696D01*
G01X3411728Y-4007612D02*
G01X3417824Y-4004310D01*
G01X3426968Y-3995166D01*
G01X3426968Y-4060190D01*
G01X3699002Y-4023360D02*
G01X3695954Y-4017010D01*
G01X3689604Y-4010914D01*
G01X3683508Y-4007866D01*
G01X3671062Y-4007866D01*
G01X3664966Y-4010914D01*
G01X3658616Y-4017010D01*
G01X3655568Y-4023360D01*
G01X3652520Y-4032504D01*
G01X3652520Y-4047998D01*
G01X3655568Y-4057396D01*
G01X3658616Y-4063492D01*
G01X3664966Y-4069842D01*
G01X3671062Y-4072890D01*
G01X3683508Y-4072890D01*
G01X3689604Y-4069842D01*
G01X3695954Y-4063492D01*
G01X3699002Y-4057396D01*
G01X3732276Y-4023360D02*
G01X3732276Y-4020312D01*
G01X3735324Y-4013962D01*
G01X3738372Y-4010914D01*
G01X3744468Y-4007866D01*
G01X3756914Y-4007866D01*
G01X3763264Y-4010914D01*
G01X3766312Y-4013962D01*
G01X3769360Y-4020312D01*
G01X3769360Y-4026408D01*
G01X3766312Y-4032504D01*
G01X3759962Y-4041902D01*
G01X3729228Y-4072890D01*
G01X3772408Y-4072890D01*
G01X4867402Y-3096260D02*
G01X4864354Y-3089910D01*
G01X4858004Y-3083814D01*
G01X4851908Y-3080766D01*
G01X4839462Y-3080766D01*
G01X4833366Y-3083814D01*
G01X4827016Y-3089910D01*
G01X4823968Y-3096260D01*
G01X4820920Y-3105404D01*
G01X4820920Y-3120898D01*
G01X4823968Y-3130296D01*
G01X4827016Y-3136392D01*
G01X4833366Y-3142742D01*
G01X4839462Y-3145790D01*
G01X4851908Y-3145790D01*
G01X4858004Y-3142742D01*
G01X4864354Y-3136392D01*
G01X4867402Y-3130296D01*
G01X4903724Y-3080766D02*
G01X4937760Y-3080766D01*
G01X4919218Y-3105404D01*
G01X4928362Y-3105404D01*
G01X4934712Y-3108452D01*
G01X4937760Y-3111754D01*
G01X4940808Y-3120898D01*
G01X4940808Y-3127248D01*
G01X4937760Y-3136392D01*
G01X4931664Y-3142742D01*
G01X4922266Y-3145790D01*
G01X4912868Y-3145790D01*
G01X4903724Y-3142742D01*
G01X4900676Y-3139440D01*
G01X4897628Y-3133344D01*
G01X4448302Y-3096260D02*
G01X4445254Y-3089910D01*
G01X4438904Y-3083814D01*
G01X4432808Y-3080766D01*
G01X4420362Y-3080766D01*
G01X4414266Y-3083814D01*
G01X4407916Y-3089910D01*
G01X4404868Y-3096260D01*
G01X4401820Y-3105404D01*
G01X4401820Y-3120898D01*
G01X4404868Y-3130296D01*
G01X4407916Y-3136392D01*
G01X4414266Y-3142742D01*
G01X4420362Y-3145790D01*
G01X4432808Y-3145790D01*
G01X4438904Y-3142742D01*
G01X4445254Y-3136392D01*
G01X4448302Y-3130296D01*
G01X4509262Y-3080766D02*
G01X4478528Y-3123946D01*
G01X4524756Y-3123946D01*
G01X4509262Y-3080766D02*
G01X4509262Y-3145790D01*
G01X6093460Y-4213098D02*
G01X6087110Y-4216146D01*
G01X6081014Y-4222496D01*
G01X6077966Y-4228592D01*
G01X6077966Y-4241038D01*
G01X6081014Y-4247134D01*
G01X6087110Y-4253484D01*
G01X6093460Y-4256532D01*
G01X6102604Y-4259580D01*
G01X6118098Y-4259580D01*
G01X6127496Y-4256532D01*
G01X6133592Y-4253484D01*
G01X6139942Y-4247134D01*
G01X6142990Y-4241038D01*
G01X6142990Y-4228592D01*
G01X6139942Y-4222496D01*
G01X6133592Y-4216146D01*
G01X6127496Y-4213098D01*
G01X6077966Y-4145788D02*
G01X6077966Y-4176776D01*
G01X6105652Y-4179824D01*
G01X6102604Y-4176776D01*
G01X6099556Y-4167632D01*
G01X6099556Y-4158234D01*
G01X6102604Y-4148836D01*
G01X6108954Y-4142740D01*
G01X6118098Y-4139692D01*
G01X6124448Y-4139692D01*
G01X6133592Y-4142740D01*
G01X6139942Y-4148836D01*
G01X6142990Y-4158234D01*
G01X6142990Y-4167632D01*
G01X6139942Y-4176776D01*
G01X6136640Y-4179824D01*
G01X6130544Y-4182872D01*
G01X5394960Y-4213098D02*
G01X5388610Y-4216146D01*
G01X5382514Y-4222496D01*
G01X5379466Y-4228592D01*
G01X5379466Y-4241038D01*
G01X5382514Y-4247134D01*
G01X5388610Y-4253484D01*
G01X5394960Y-4256532D01*
G01X5404104Y-4259580D01*
G01X5419598Y-4259580D01*
G01X5428996Y-4256532D01*
G01X5435092Y-4253484D01*
G01X5441442Y-4247134D01*
G01X5444490Y-4241038D01*
G01X5444490Y-4228592D01*
G01X5441442Y-4222496D01*
G01X5435092Y-4216146D01*
G01X5428996Y-4213098D01*
G01X5388610Y-4145788D02*
G01X5382514Y-4148836D01*
G01X5379466Y-4158234D01*
G01X5379466Y-4164330D01*
G01X5382514Y-4173728D01*
G01X5391912Y-4179824D01*
G01X5407152Y-4182872D01*
G01X5422646Y-4182872D01*
G01X5435092Y-4179824D01*
G01X5441442Y-4173728D01*
G01X5444490Y-4164330D01*
G01X5444490Y-4161282D01*
G01X5441442Y-4152138D01*
G01X5435092Y-4145788D01*
G01X5425948Y-4142740D01*
G01X5422646Y-4142740D01*
G01X5413502Y-4145788D01*
G01X5407152Y-4152138D01*
G01X5404104Y-4161282D01*
G01X5404104Y-4164330D01*
G01X5407152Y-4173728D01*
G01X5413502Y-4179824D01*
G01X5422646Y-4182872D01*
G01X5572760Y-3819398D02*
G01X5566410Y-3822446D01*
G01X5560314Y-3828796D01*
G01X5557266Y-3834892D01*
G01X5557266Y-3847338D01*
G01X5560314Y-3853434D01*
G01X5566410Y-3859784D01*
G01X5572760Y-3862832D01*
G01X5581904Y-3865880D01*
G01X5597398Y-3865880D01*
G01X5606796Y-3862832D01*
G01X5612892Y-3859784D01*
G01X5619242Y-3853434D01*
G01X5622290Y-3847338D01*
G01X5622290Y-3834892D01*
G01X5619242Y-3828796D01*
G01X5612892Y-3822446D01*
G01X5606796Y-3819398D01*
G01X5557266Y-3745992D02*
G01X5622290Y-3776980D01*
G01X5557266Y-3789172D02*
G01X5557266Y-3745992D01*
G01X5995568Y-3815690D02*
G01X5989218Y-3818738D01*
G01X5983122Y-3825088D01*
G01X5980074Y-3831184D01*
G01X5980074Y-3843630D01*
G01X5983122Y-3849726D01*
G01X5989218Y-3856076D01*
G01X5995568Y-3859124D01*
G01X6004712Y-3862172D01*
G01X6020206Y-3862172D01*
G01X6029604Y-3859124D01*
G01X6035700Y-3856076D01*
G01X6042050Y-3849726D01*
G01X6045098Y-3843630D01*
G01X6045098Y-3831184D01*
G01X6042050Y-3825088D01*
G01X6035700Y-3818738D01*
G01X6029604Y-3815690D01*
G01X5980074Y-3770224D02*
G01X5983122Y-3779368D01*
G01X5989218Y-3782416D01*
G01X5995568Y-3782416D01*
G01X6001664Y-3779368D01*
G01X6004712Y-3773272D01*
G01X6007760Y-3760826D01*
G01X6011062Y-3751428D01*
G01X6017158Y-3745332D01*
G01X6023254Y-3742284D01*
G01X6032652Y-3742284D01*
G01X6038748Y-3745332D01*
G01X6042050Y-3748380D01*
G01X6045098Y-3757778D01*
G01X6045098Y-3770224D01*
G01X6042050Y-3779368D01*
G01X6038748Y-3782416D01*
G01X6032652Y-3785464D01*
G01X6023254Y-3785464D01*
G01X6017158Y-3782416D01*
G01X6011062Y-3776320D01*
G01X6007760Y-3766922D01*
G01X6004712Y-3754730D01*
G01X6001664Y-3748380D01*
G01X5995568Y-3745332D01*
G01X5989218Y-3745332D01*
G01X5983122Y-3748380D01*
G01X5980074Y-3757778D01*
G01X5980074Y-3770224D01*
G01X4041902Y-4709160D02*
G01X4038854Y-4702810D01*
G01X4032504Y-4696714D01*
G01X4026408Y-4693666D01*
G01X4013962Y-4693666D01*
G01X4007866Y-4696714D01*
G01X4001516Y-4702810D01*
G01X3998468Y-4709160D01*
G01X3995420Y-4718304D01*
G01X3995420Y-4733798D01*
G01X3998468Y-4743196D01*
G01X4001516Y-4749292D01*
G01X4007866Y-4755642D01*
G01X4013962Y-4758690D01*
G01X4026408Y-4758690D01*
G01X4032504Y-4755642D01*
G01X4038854Y-4749292D01*
G01X4041902Y-4743196D01*
G01X4112260Y-4715256D02*
G01X4109212Y-4724654D01*
G01X4102862Y-4730750D01*
G01X4093718Y-4733798D01*
G01X4090670Y-4733798D01*
G01X4081272Y-4730750D01*
G01X4075176Y-4724654D01*
G01X4072128Y-4715256D01*
G01X4072128Y-4712208D01*
G01X4075176Y-4702810D01*
G01X4081272Y-4696714D01*
G01X4090670Y-4693666D01*
G01X4093718Y-4693666D01*
G01X4102862Y-4696714D01*
G01X4109212Y-4702810D01*
G01X4112260Y-4715256D01*
G01X4112260Y-4730750D01*
G01X4109212Y-4746244D01*
G01X4102862Y-4755642D01*
G01X4093718Y-4758690D01*
G01X4087368Y-4758690D01*
G01X4078224Y-4755642D01*
G01X4075176Y-4749292D01*
G01X4036775Y-5029365D02*
G01X4033727Y-5023015D01*
G01X4027377Y-5016919D01*
G01X4021281Y-5013871D01*
G01X4008835Y-5013871D01*
G01X4002739Y-5016919D01*
G01X3996389Y-5023015D01*
G01X3993341Y-5029365D01*
G01X3990293Y-5038509D01*
G01X3990293Y-5054003D01*
G01X3993341Y-5063401D01*
G01X3996389Y-5069497D01*
G01X4002739Y-5075847D01*
G01X4008835Y-5078895D01*
G01X4021281Y-5078895D01*
G01X4027377Y-5075847D01*
G01X4033727Y-5069497D01*
G01X4036775Y-5063401D01*
G01X4067001Y-5026317D02*
G01X4073097Y-5023015D01*
G01X4082241Y-5013871D01*
G01X4082241Y-5078895D01*
G01X4131009Y-5013871D02*
G01X4121611Y-5016919D01*
G01X4115515Y-5026317D01*
G01X4112467Y-5041557D01*
G01X4112467Y-5050955D01*
G01X4115515Y-5066449D01*
G01X4121611Y-5075847D01*
G01X4131009Y-5078895D01*
G01X4137105Y-5078895D01*
G01X4146503Y-5075847D01*
G01X4152599Y-5066449D01*
G01X4155647Y-5050955D01*
G01X4155647Y-5041557D01*
G01X4152599Y-5026317D01*
G01X4146503Y-5016919D01*
G01X4137105Y-5013871D01*
G01X4131009Y-5013871D01*
G01X2242820Y-2001266D02*
G01X2242820Y-2066290D01*
G01X2242820Y-2001266D02*
G01X2270760Y-2001266D01*
G01X2279904Y-2004314D01*
G01X2282952Y-2007362D01*
G01X2286254Y-2013712D01*
G01X2286254Y-2019808D01*
G01X2282952Y-2025904D01*
G01X2279904Y-2028952D01*
G01X2270760Y-2032254D01*
G01X2242820Y-2032254D01*
G01X2264410Y-2032254D02*
G01X2286254Y-2066290D01*
G01X2316480Y-2013712D02*
G01X2322576Y-2010410D01*
G01X2331720Y-2001266D01*
G01X2331720Y-2066290D01*
G01X2433320Y-2001266D02*
G01X2433320Y-2066290D01*
G01X2433320Y-2001266D02*
G01X2461260Y-2001266D01*
G01X2470404Y-2004314D01*
G01X2473452Y-2007362D01*
G01X2476754Y-2013712D01*
G01X2476754Y-2019808D01*
G01X2473452Y-2025904D01*
G01X2470404Y-2028952D01*
G01X2461260Y-2032254D01*
G01X2433320Y-2032254D01*
G01X2454910Y-2032254D02*
G01X2476754Y-2066290D01*
G01X2510028Y-2016760D02*
G01X2510028Y-2013712D01*
G01X2513076Y-2007362D01*
G01X2516124Y-2004314D01*
G01X2522220Y-2001266D01*
G01X2534666Y-2001266D01*
G01X2541016Y-2004314D01*
G01X2544064Y-2007362D01*
G01X2547112Y-2013712D01*
G01X2547112Y-2019808D01*
G01X2544064Y-2025904D01*
G01X2537714Y-2035302D01*
G01X2506980Y-2066290D01*
G01X2550160Y-2066290D01*
G01X1673911Y-1989430D02*
G01X1673911Y-2054454D01*
G01X1673911Y-1989430D02*
G01X1701851Y-1989430D01*
G01X1710995Y-1992478D01*
G01X1714043Y-1995526D01*
G01X1717345Y-2001876D01*
G01X1717345Y-2007972D01*
G01X1714043Y-2014068D01*
G01X1710995Y-2017116D01*
G01X1701851Y-2020418D01*
G01X1673911Y-2020418D01*
G01X1695501Y-2020418D02*
G01X1717345Y-2054454D01*
G01X1753667Y-1989430D02*
G01X1787703Y-1989430D01*
G01X1769161Y-2014068D01*
G01X1778305Y-2014068D01*
G01X1784655Y-2017116D01*
G01X1787703Y-2020418D01*
G01X1790751Y-2029562D01*
G01X1790751Y-2035912D01*
G01X1787703Y-2045056D01*
G01X1781607Y-2051406D01*
G01X1772209Y-2054454D01*
G01X1762811Y-2054454D01*
G01X1753667Y-2051406D01*
G01X1750619Y-2048104D01*
G01X1747571Y-2042008D01*
G01X1861820Y-2001266D02*
G01X1861820Y-2066290D01*
G01X1861820Y-2001266D02*
G01X1889760Y-2001266D01*
G01X1898904Y-2004314D01*
G01X1901952Y-2007362D01*
G01X1905254Y-2013712D01*
G01X1905254Y-2019808D01*
G01X1901952Y-2025904D01*
G01X1898904Y-2028952D01*
G01X1889760Y-2032254D01*
G01X1861820Y-2032254D01*
G01X1883410Y-2032254D02*
G01X1905254Y-2066290D01*
G01X1966214Y-2001266D02*
G01X1935480Y-2044446D01*
G01X1981708Y-2044446D01*
G01X1966214Y-2001266D02*
G01X1966214Y-2066290D01*
G01X1658620Y-3868166D02*
G01X1658620Y-3933190D01*
G01X1658620Y-3868166D02*
G01X1686560Y-3868166D01*
G01X1695704Y-3871214D01*
G01X1698752Y-3874262D01*
G01X1702054Y-3880612D01*
G01X1702054Y-3886708D01*
G01X1698752Y-3892804D01*
G01X1695704Y-3895852D01*
G01X1686560Y-3899154D01*
G01X1658620Y-3899154D01*
G01X1680210Y-3899154D02*
G01X1702054Y-3933190D01*
G01X1769364Y-3877310D02*
G01X1766316Y-3871214D01*
G01X1756918Y-3868166D01*
G01X1750822Y-3868166D01*
G01X1741424Y-3871214D01*
G01X1735328Y-3880612D01*
G01X1732280Y-3895852D01*
G01X1732280Y-3911346D01*
G01X1735328Y-3923792D01*
G01X1741424Y-3930142D01*
G01X1750822Y-3933190D01*
G01X1753870Y-3933190D01*
G01X1763014Y-3930142D01*
G01X1769364Y-3923792D01*
G01X1772412Y-3914648D01*
G01X1772412Y-3911346D01*
G01X1769364Y-3902202D01*
G01X1763014Y-3895852D01*
G01X1753870Y-3892804D01*
G01X1750822Y-3892804D01*
G01X1741424Y-3895852D01*
G01X1735328Y-3902202D01*
G01X1732280Y-3911346D01*
G01X2052320Y-2001266D02*
G01X2052320Y-2066290D01*
G01X2052320Y-2001266D02*
G01X2080260Y-2001266D01*
G01X2089404Y-2004314D01*
G01X2092452Y-2007362D01*
G01X2095754Y-2013712D01*
G01X2095754Y-2019808D01*
G01X2092452Y-2025904D01*
G01X2089404Y-2028952D01*
G01X2080260Y-2032254D01*
G01X2052320Y-2032254D01*
G01X2073910Y-2032254D02*
G01X2095754Y-2066290D01*
G01X2169160Y-2001266D02*
G01X2138172Y-2066290D01*
G01X2125980Y-2001266D02*
G01X2169160Y-2001266D01*
G01X1849120Y-3868166D02*
G01X1849120Y-3933190D01*
G01X1849120Y-3868166D02*
G01X1877060Y-3868166D01*
G01X1886204Y-3871214D01*
G01X1889252Y-3874262D01*
G01X1892554Y-3880612D01*
G01X1892554Y-3886708D01*
G01X1889252Y-3892804D01*
G01X1886204Y-3895852D01*
G01X1877060Y-3899154D01*
G01X1849120Y-3899154D01*
G01X1870710Y-3899154D02*
G01X1892554Y-3933190D01*
G01X1938020Y-3868166D02*
G01X1928876Y-3871214D01*
G01X1925828Y-3877310D01*
G01X1925828Y-3883660D01*
G01X1928876Y-3889756D01*
G01X1934972Y-3892804D01*
G01X1947418Y-3895852D01*
G01X1956816Y-3899154D01*
G01X1962912Y-3905250D01*
G01X1965960Y-3911346D01*
G01X1965960Y-3920744D01*
G01X1962912Y-3926840D01*
G01X1959864Y-3930142D01*
G01X1950466Y-3933190D01*
G01X1938020Y-3933190D01*
G01X1928876Y-3930142D01*
G01X1925828Y-3926840D01*
G01X1922780Y-3920744D01*
G01X1922780Y-3911346D01*
G01X1925828Y-3905250D01*
G01X1931924Y-3899154D01*
G01X1941322Y-3895852D01*
G01X1953514Y-3892804D01*
G01X1959864Y-3889756D01*
G01X1962912Y-3883660D01*
G01X1962912Y-3877310D01*
G01X1959864Y-3871214D01*
G01X1950466Y-3868166D01*
G01X1938020Y-3868166D01*
G01X2039620Y-3868166D02*
G01X2039620Y-3933190D01*
G01X2039620Y-3868166D02*
G01X2067560Y-3868166D01*
G01X2076704Y-3871214D01*
G01X2079752Y-3874262D01*
G01X2083054Y-3880612D01*
G01X2083054Y-3886708D01*
G01X2079752Y-3892804D01*
G01X2076704Y-3895852D01*
G01X2067560Y-3899154D01*
G01X2039620Y-3899154D01*
G01X2061210Y-3899154D02*
G01X2083054Y-3933190D01*
G01X2153412Y-3889756D02*
G01X2150364Y-3899154D01*
G01X2144014Y-3905250D01*
G01X2134870Y-3908298D01*
G01X2131822Y-3908298D01*
G01X2122424Y-3905250D01*
G01X2116328Y-3899154D01*
G01X2113280Y-3889756D01*
G01X2113280Y-3886708D01*
G01X2116328Y-3877310D01*
G01X2122424Y-3871214D01*
G01X2131822Y-3868166D01*
G01X2134870Y-3868166D01*
G01X2144014Y-3871214D01*
G01X2150364Y-3877310D01*
G01X2153412Y-3889756D01*
G01X2153412Y-3905250D01*
G01X2150364Y-3920744D01*
G01X2144014Y-3930142D01*
G01X2134870Y-3933190D01*
G01X2128520Y-3933190D01*
G01X2119376Y-3930142D01*
G01X2116328Y-3923792D01*
G01X3614420Y-1925066D02*
G01X3614420Y-1990090D01*
G01X3614420Y-1925066D02*
G01X3642360Y-1925066D01*
G01X3651504Y-1928114D01*
G01X3654552Y-1931162D01*
G01X3657854Y-1937512D01*
G01X3657854Y-1943608D01*
G01X3654552Y-1949704D01*
G01X3651504Y-1952752D01*
G01X3642360Y-1956054D01*
G01X3614420Y-1956054D01*
G01X3636010Y-1956054D02*
G01X3657854Y-1990090D01*
G01X3688080Y-1937512D02*
G01X3694176Y-1934210D01*
G01X3703320Y-1925066D01*
G01X3703320Y-1990090D01*
G01X3752088Y-1925066D02*
G01X3742690Y-1928114D01*
G01X3736594Y-1937512D01*
G01X3733546Y-1952752D01*
G01X3733546Y-1962150D01*
G01X3736594Y-1977644D01*
G01X3742690Y-1987042D01*
G01X3752088Y-1990090D01*
G01X3758184Y-1990090D01*
G01X3767582Y-1987042D01*
G01X3773678Y-1977644D01*
G01X3776726Y-1962150D01*
G01X3776726Y-1952752D01*
G01X3773678Y-1937512D01*
G01X3767582Y-1928114D01*
G01X3758184Y-1925066D01*
G01X3752088Y-1925066D01*
G01X3385820Y-1912366D02*
G01X3385820Y-1977390D01*
G01X3385820Y-1912366D02*
G01X3413760Y-1912366D01*
G01X3422904Y-1915414D01*
G01X3425952Y-1918462D01*
G01X3429254Y-1924812D01*
G01X3429254Y-1930908D01*
G01X3425952Y-1937004D01*
G01X3422904Y-1940052D01*
G01X3413760Y-1943354D01*
G01X3385820Y-1943354D01*
G01X3407410Y-1943354D02*
G01X3429254Y-1977390D01*
G01X3459480Y-1924812D02*
G01X3465576Y-1921510D01*
G01X3474720Y-1912366D01*
G01X3474720Y-1977390D01*
G01X3504946Y-1924812D02*
G01X3511042Y-1921510D01*
G01X3520186Y-1912366D01*
G01X3520186Y-1977390D01*
G01X4805012Y-2432815D02*
G01X4805012Y-2497839D01*
G01X4805012Y-2432815D02*
G01X4832952Y-2432815D01*
G01X4842096Y-2435863D01*
G01X4845144Y-2438911D01*
G01X4848446Y-2445261D01*
G01X4848446Y-2451357D01*
G01X4845144Y-2457453D01*
G01X4842096Y-2460501D01*
G01X4832952Y-2463803D01*
G01X4805012Y-2463803D01*
G01X4826602Y-2463803D02*
G01X4848446Y-2497839D01*
G01X4878672Y-2445261D02*
G01X4884768Y-2441959D01*
G01X4893912Y-2432815D01*
G01X4893912Y-2497839D01*
G01X4927186Y-2448309D02*
G01X4927186Y-2445261D01*
G01X4930234Y-2438911D01*
G01X4933282Y-2435863D01*
G01X4939378Y-2432815D01*
G01X4951824Y-2432815D01*
G01X4958174Y-2435863D01*
G01X4961222Y-2438911D01*
G01X4964270Y-2445261D01*
G01X4964270Y-2451357D01*
G01X4961222Y-2457453D01*
G01X4954872Y-2466851D01*
G01X4924138Y-2497839D01*
G01X4967318Y-2497839D01*
G01X4604992Y-2429064D02*
G01X4604992Y-2494088D01*
G01X4604992Y-2429064D02*
G01X4632932Y-2429064D01*
G01X4642076Y-2432112D01*
G01X4645124Y-2435160D01*
G01X4648426Y-2441510D01*
G01X4648426Y-2447606D01*
G01X4645124Y-2453702D01*
G01X4642076Y-2456750D01*
G01X4632932Y-2460052D01*
G01X4604992Y-2460052D01*
G01X4626582Y-2460052D02*
G01X4648426Y-2494088D01*
G01X4678652Y-2441510D02*
G01X4684748Y-2438208D01*
G01X4693892Y-2429064D01*
G01X4693892Y-2494088D01*
G01X4730214Y-2429064D02*
G01X4764250Y-2429064D01*
G01X4745708Y-2453702D01*
G01X4754852Y-2453702D01*
G01X4761202Y-2456750D01*
G01X4764250Y-2460052D01*
G01X4767298Y-2469196D01*
G01X4767298Y-2475546D01*
G01X4764250Y-2484690D01*
G01X4758154Y-2491040D01*
G01X4748756Y-2494088D01*
G01X4739358Y-2494088D01*
G01X4730214Y-2491040D01*
G01X4727166Y-2487738D01*
G01X4724118Y-2481642D01*
G01X4399476Y-2431951D02*
G01X4399476Y-2496975D01*
G01X4399476Y-2431951D02*
G01X4427416Y-2431951D01*
G01X4436560Y-2434999D01*
G01X4439608Y-2438047D01*
G01X4442910Y-2444397D01*
G01X4442910Y-2450493D01*
G01X4439608Y-2456589D01*
G01X4436560Y-2459637D01*
G01X4427416Y-2462939D01*
G01X4399476Y-2462939D01*
G01X4421066Y-2462939D02*
G01X4442910Y-2496975D01*
G01X4473136Y-2444397D02*
G01X4479232Y-2441095D01*
G01X4488376Y-2431951D01*
G01X4488376Y-2496975D01*
G01X4555686Y-2431951D02*
G01X4524698Y-2431951D01*
G01X4521650Y-2459637D01*
G01X4524698Y-2456589D01*
G01X4533842Y-2453541D01*
G01X4543240Y-2453541D01*
G01X4552638Y-2456589D01*
G01X4558734Y-2462939D01*
G01X4561782Y-2472083D01*
G01X4561782Y-2478433D01*
G01X4558734Y-2487577D01*
G01X4552638Y-2493927D01*
G01X4543240Y-2496975D01*
G01X4533842Y-2496975D01*
G01X4524698Y-2493927D01*
G01X4521650Y-2490625D01*
G01X4518602Y-2484529D01*
G01X6166866Y-4081780D02*
G01X6231890Y-4081780D01*
G01X6166866Y-4081780D02*
G01X6166866Y-4053840D01*
G01X6169914Y-4044696D01*
G01X6172962Y-4041648D01*
G01X6179312Y-4038346D01*
G01X6185408Y-4038346D01*
G01X6191504Y-4041648D01*
G01X6194552Y-4044696D01*
G01X6197854Y-4053840D01*
G01X6197854Y-4081780D01*
G01X6197854Y-4060190D02*
G01X6231890Y-4038346D01*
G01X6179312Y-4008120D02*
G01X6176010Y-4002024D01*
G01X6166866Y-3992880D01*
G01X6231890Y-3992880D01*
G01X6166866Y-3919474D02*
G01X6231890Y-3950462D01*
G01X6166866Y-3962654D02*
G01X6166866Y-3919474D01*
G01X5379466Y-4094480D02*
G01X5444490Y-4094480D01*
G01X5379466Y-4094480D02*
G01X5379466Y-4066540D01*
G01X5382514Y-4057396D01*
G01X5385562Y-4054348D01*
G01X5391912Y-4051046D01*
G01X5398008Y-4051046D01*
G01X5404104Y-4054348D01*
G01X5407152Y-4057396D01*
G01X5410454Y-4066540D01*
G01X5410454Y-4094480D01*
G01X5410454Y-4072890D02*
G01X5444490Y-4051046D01*
G01X5391912Y-4020820D02*
G01X5388610Y-4014724D01*
G01X5379466Y-4005580D01*
G01X5444490Y-4005580D01*
G01X5401056Y-3935222D02*
G01X5410454Y-3938270D01*
G01X5416550Y-3944620D01*
G01X5419598Y-3953764D01*
G01X5419598Y-3956812D01*
G01X5416550Y-3966210D01*
G01X5410454Y-3972306D01*
G01X5401056Y-3975354D01*
G01X5398008Y-3975354D01*
G01X5388610Y-3972306D01*
G01X5382514Y-3966210D01*
G01X5379466Y-3956812D01*
G01X5379466Y-3953764D01*
G01X5382514Y-3944620D01*
G01X5388610Y-3938270D01*
G01X5401056Y-3935222D01*
G01X5416550Y-3935222D01*
G01X5432044Y-3938270D01*
G01X5441442Y-3944620D01*
G01X5444490Y-3953764D01*
G01X5444490Y-3960114D01*
G01X5441442Y-3969258D01*
G01X5435092Y-3972306D01*
G01X5379466Y-4716780D02*
G01X5444490Y-4716780D01*
G01X5379466Y-4716780D02*
G01X5379466Y-4688840D01*
G01X5382514Y-4679696D01*
G01X5385562Y-4676648D01*
G01X5391912Y-4673346D01*
G01X5398008Y-4673346D01*
G01X5404104Y-4676648D01*
G01X5407152Y-4679696D01*
G01X5410454Y-4688840D01*
G01X5410454Y-4716780D01*
G01X5410454Y-4695190D02*
G01X5444490Y-4673346D01*
G01X5394960Y-4640072D02*
G01X5391912Y-4640072D01*
G01X5385562Y-4637024D01*
G01X5382514Y-4633976D01*
G01X5379466Y-4627880D01*
G01X5379466Y-4615434D01*
G01X5382514Y-4609084D01*
G01X5385562Y-4606036D01*
G01X5391912Y-4602988D01*
G01X5398008Y-4602988D01*
G01X5404104Y-4606036D01*
G01X5413502Y-4612386D01*
G01X5444490Y-4643120D01*
G01X5444490Y-4599940D01*
G01X5391912Y-4569714D02*
G01X5388610Y-4563618D01*
G01X5379466Y-4554474D01*
G01X5444490Y-4554474D01*
G01X6166866Y-4742180D02*
G01X6231890Y-4742180D01*
G01X6166866Y-4742180D02*
G01X6166866Y-4714240D01*
G01X6169914Y-4705096D01*
G01X6172962Y-4702048D01*
G01X6179312Y-4698746D01*
G01X6185408Y-4698746D01*
G01X6191504Y-4702048D01*
G01X6194552Y-4705096D01*
G01X6197854Y-4714240D01*
G01X6197854Y-4742180D01*
G01X6197854Y-4720590D02*
G01X6231890Y-4698746D01*
G01X6182360Y-4665472D02*
G01X6179312Y-4665472D01*
G01X6172962Y-4662424D01*
G01X6169914Y-4659376D01*
G01X6166866Y-4653280D01*
G01X6166866Y-4640834D01*
G01X6169914Y-4634484D01*
G01X6172962Y-4631436D01*
G01X6179312Y-4628388D01*
G01X6185408Y-4628388D01*
G01X6191504Y-4631436D01*
G01X6200902Y-4637786D01*
G01X6231890Y-4668520D01*
G01X6231890Y-4625340D01*
G01X6182360Y-4592066D02*
G01X6179312Y-4592066D01*
G01X6172962Y-4589018D01*
G01X6169914Y-4585970D01*
G01X6166866Y-4579874D01*
G01X6166866Y-4567428D01*
G01X6169914Y-4561078D01*
G01X6172962Y-4558030D01*
G01X6179312Y-4554982D01*
G01X6185408Y-4554982D01*
G01X6191504Y-4558030D01*
G01X6200902Y-4564380D01*
G01X6231890Y-4595114D01*
G01X6231890Y-4551934D01*
G01X6166866Y-4500880D02*
G01X6231890Y-4500880D01*
G01X6166866Y-4500880D02*
G01X6166866Y-4472940D01*
G01X6169914Y-4463796D01*
G01X6172962Y-4460748D01*
G01X6179312Y-4457446D01*
G01X6185408Y-4457446D01*
G01X6191504Y-4460748D01*
G01X6194552Y-4463796D01*
G01X6197854Y-4472940D01*
G01X6197854Y-4500880D01*
G01X6197854Y-4479290D02*
G01X6231890Y-4457446D01*
G01X6182360Y-4424172D02*
G01X6179312Y-4424172D01*
G01X6172962Y-4421124D01*
G01X6169914Y-4418076D01*
G01X6166866Y-4411980D01*
G01X6166866Y-4399534D01*
G01X6169914Y-4393184D01*
G01X6172962Y-4390136D01*
G01X6179312Y-4387088D01*
G01X6185408Y-4387088D01*
G01X6191504Y-4390136D01*
G01X6200902Y-4396486D01*
G01X6231890Y-4427220D01*
G01X6231890Y-4384040D01*
G01X6166866Y-4316730D02*
G01X6166866Y-4347718D01*
G01X6194552Y-4350766D01*
G01X6191504Y-4347718D01*
G01X6188456Y-4338574D01*
G01X6188456Y-4329176D01*
G01X6191504Y-4319778D01*
G01X6197854Y-4313682D01*
G01X6206998Y-4310634D01*
G01X6213348Y-4310634D01*
G01X6222492Y-4313682D01*
G01X6228842Y-4319778D01*
G01X6231890Y-4329176D01*
G01X6231890Y-4338574D01*
G01X6228842Y-4347718D01*
G01X6225540Y-4350766D01*
G01X6219444Y-4353814D01*
G01X5379466Y-4500880D02*
G01X5444490Y-4500880D01*
G01X5379466Y-4500880D02*
G01X5379466Y-4472940D01*
G01X5382514Y-4463796D01*
G01X5385562Y-4460748D01*
G01X5391912Y-4457446D01*
G01X5398008Y-4457446D01*
G01X5404104Y-4460748D01*
G01X5407152Y-4463796D01*
G01X5410454Y-4472940D01*
G01X5410454Y-4500880D01*
G01X5410454Y-4479290D02*
G01X5444490Y-4457446D01*
G01X5394960Y-4424172D02*
G01X5391912Y-4424172D01*
G01X5385562Y-4421124D01*
G01X5382514Y-4418076D01*
G01X5379466Y-4411980D01*
G01X5379466Y-4399534D01*
G01X5382514Y-4393184D01*
G01X5385562Y-4390136D01*
G01X5391912Y-4387088D01*
G01X5398008Y-4387088D01*
G01X5404104Y-4390136D01*
G01X5413502Y-4396486D01*
G01X5444490Y-4427220D01*
G01X5444490Y-4384040D01*
G01X5388610Y-4316730D02*
G01X5382514Y-4319778D01*
G01X5379466Y-4329176D01*
G01X5379466Y-4335272D01*
G01X5382514Y-4344670D01*
G01X5391912Y-4350766D01*
G01X5407152Y-4353814D01*
G01X5422646Y-4353814D01*
G01X5435092Y-4350766D01*
G01X5441442Y-4344670D01*
G01X5444490Y-4335272D01*
G01X5444490Y-4332224D01*
G01X5441442Y-4323080D01*
G01X5435092Y-4316730D01*
G01X5425948Y-4313682D01*
G01X5422646Y-4313682D01*
G01X5413502Y-4316730D01*
G01X5407152Y-4323080D01*
G01X5404104Y-4332224D01*
G01X5404104Y-4335272D01*
G01X5407152Y-4344670D01*
G01X5413502Y-4350766D01*
G01X5422646Y-4353814D01*
G01X1518920Y-7043166D02*
G01X1518920Y-7108190D01*
G01X1518920Y-7043166D02*
G01X1546860Y-7043166D01*
G01X1556004Y-7046214D01*
G01X1559052Y-7049262D01*
G01X1562354Y-7055612D01*
G01X1562354Y-7061708D01*
G01X1559052Y-7067804D01*
G01X1556004Y-7070852D01*
G01X1546860Y-7074154D01*
G01X1518920Y-7074154D01*
G01X1540510Y-7074154D02*
G01X1562354Y-7108190D01*
G01X1595628Y-7058660D02*
G01X1595628Y-7055612D01*
G01X1598676Y-7049262D01*
G01X1601724Y-7046214D01*
G01X1607820Y-7043166D01*
G01X1620266Y-7043166D01*
G01X1626616Y-7046214D01*
G01X1629664Y-7049262D01*
G01X1632712Y-7055612D01*
G01X1632712Y-7061708D01*
G01X1629664Y-7067804D01*
G01X1623314Y-7077202D01*
G01X1592580Y-7108190D01*
G01X1635760Y-7108190D01*
G01X1709166Y-7043166D02*
G01X1678178Y-7108190D01*
G01X1665986Y-7043166D02*
G01X1709166Y-7043166D01*
G01X1176020Y-7043166D02*
G01X1176020Y-7108190D01*
G01X1176020Y-7043166D02*
G01X1203960Y-7043166D01*
G01X1213104Y-7046214D01*
G01X1216152Y-7049262D01*
G01X1219454Y-7055612D01*
G01X1219454Y-7061708D01*
G01X1216152Y-7067804D01*
G01X1213104Y-7070852D01*
G01X1203960Y-7074154D01*
G01X1176020Y-7074154D01*
G01X1197610Y-7074154D02*
G01X1219454Y-7108190D01*
G01X1252728Y-7058660D02*
G01X1252728Y-7055612D01*
G01X1255776Y-7049262D01*
G01X1258824Y-7046214D01*
G01X1264920Y-7043166D01*
G01X1277366Y-7043166D01*
G01X1283716Y-7046214D01*
G01X1286764Y-7049262D01*
G01X1289812Y-7055612D01*
G01X1289812Y-7061708D01*
G01X1286764Y-7067804D01*
G01X1280414Y-7077202D01*
G01X1249680Y-7108190D01*
G01X1292860Y-7108190D01*
G01X1338326Y-7043166D02*
G01X1329182Y-7046214D01*
G01X1326134Y-7052310D01*
G01X1326134Y-7058660D01*
G01X1329182Y-7064756D01*
G01X1335278Y-7067804D01*
G01X1347724Y-7070852D01*
G01X1357122Y-7074154D01*
G01X1363218Y-7080250D01*
G01X1366266Y-7086346D01*
G01X1366266Y-7095744D01*
G01X1363218Y-7101840D01*
G01X1360170Y-7105142D01*
G01X1350772Y-7108190D01*
G01X1338326Y-7108190D01*
G01X1329182Y-7105142D01*
G01X1326134Y-7101840D01*
G01X1323086Y-7095744D01*
G01X1323086Y-7086346D01*
G01X1326134Y-7080250D01*
G01X1332230Y-7074154D01*
G01X1341628Y-7070852D01*
G01X1353820Y-7067804D01*
G01X1360170Y-7064756D01*
G01X1363218Y-7058660D01*
G01X1363218Y-7052310D01*
G01X1360170Y-7046214D01*
G01X1350772Y-7043166D01*
G01X1338326Y-7043166D01*
G01X833120Y-7043166D02*
G01X833120Y-7108190D01*
G01X833120Y-7043166D02*
G01X861060Y-7043166D01*
G01X870204Y-7046214D01*
G01X873252Y-7049262D01*
G01X876554Y-7055612D01*
G01X876554Y-7061708D01*
G01X873252Y-7067804D01*
G01X870204Y-7070852D01*
G01X861060Y-7074154D01*
G01X833120Y-7074154D01*
G01X854710Y-7074154D02*
G01X876554Y-7108190D01*
G01X909828Y-7058660D02*
G01X909828Y-7055612D01*
G01X912876Y-7049262D01*
G01X915924Y-7046214D01*
G01X922020Y-7043166D01*
G01X934466Y-7043166D01*
G01X940816Y-7046214D01*
G01X943864Y-7049262D01*
G01X946912Y-7055612D01*
G01X946912Y-7061708D01*
G01X943864Y-7067804D01*
G01X937514Y-7077202D01*
G01X906780Y-7108190D01*
G01X949960Y-7108190D01*
G01X1020318Y-7064756D02*
G01X1017270Y-7074154D01*
G01X1010920Y-7080250D01*
G01X1001776Y-7083298D01*
G01X998728Y-7083298D01*
G01X989330Y-7080250D01*
G01X983234Y-7074154D01*
G01X980186Y-7064756D01*
G01X980186Y-7061708D01*
G01X983234Y-7052310D01*
G01X989330Y-7046214D01*
G01X998728Y-7043166D01*
G01X1001776Y-7043166D01*
G01X1010920Y-7046214D01*
G01X1017270Y-7052310D01*
G01X1020318Y-7064756D01*
G01X1020318Y-7080250D01*
G01X1017270Y-7095744D01*
G01X1010920Y-7105142D01*
G01X1001776Y-7108190D01*
G01X995426Y-7108190D01*
G01X986282Y-7105142D01*
G01X983234Y-7098792D01*
G01X2518969Y-7043434D02*
G01X2518969Y-7108458D01*
G01X2518969Y-7043434D02*
G01X2546909Y-7043434D01*
G01X2556053Y-7046482D01*
G01X2559101Y-7049530D01*
G01X2562403Y-7055880D01*
G01X2562403Y-7061976D01*
G01X2559101Y-7068072D01*
G01X2556053Y-7071120D01*
G01X2546909Y-7074422D01*
G01X2518969Y-7074422D01*
G01X2540559Y-7074422D02*
G01X2562403Y-7108458D01*
G01X2598725Y-7043434D02*
G01X2632761Y-7043434D01*
G01X2614219Y-7068072D01*
G01X2623363Y-7068072D01*
G01X2629713Y-7071120D01*
G01X2632761Y-7074422D01*
G01X2635809Y-7083566D01*
G01X2635809Y-7089916D01*
G01X2632761Y-7099060D01*
G01X2626665Y-7105410D01*
G01X2617267Y-7108458D01*
G01X2607869Y-7108458D01*
G01X2598725Y-7105410D01*
G01X2595677Y-7102108D01*
G01X2592629Y-7096012D01*
G01X2684577Y-7043434D02*
G01X2675179Y-7046482D01*
G01X2669083Y-7055880D01*
G01X2666035Y-7071120D01*
G01X2666035Y-7080518D01*
G01X2669083Y-7096012D01*
G01X2675179Y-7105410D01*
G01X2684577Y-7108458D01*
G01X2690673Y-7108458D01*
G01X2700071Y-7105410D01*
G01X2706167Y-7096012D01*
G01X2709215Y-7080518D01*
G01X2709215Y-7071120D01*
G01X2706167Y-7055880D01*
G01X2700071Y-7046482D01*
G01X2690673Y-7043434D01*
G01X2684577Y-7043434D01*
G01X2194185Y-7045871D02*
G01X2194185Y-7110895D01*
G01X2194185Y-7045871D02*
G01X2222125Y-7045871D01*
G01X2231269Y-7048919D01*
G01X2234317Y-7051967D01*
G01X2237619Y-7058317D01*
G01X2237619Y-7064413D01*
G01X2234317Y-7070509D01*
G01X2231269Y-7073557D01*
G01X2222125Y-7076859D01*
G01X2194185Y-7076859D01*
G01X2215775Y-7076859D02*
G01X2237619Y-7110895D01*
G01X2273941Y-7045871D02*
G01X2307977Y-7045871D01*
G01X2289435Y-7070509D01*
G01X2298579Y-7070509D01*
G01X2304929Y-7073557D01*
G01X2307977Y-7076859D01*
G01X2311025Y-7086003D01*
G01X2311025Y-7092353D01*
G01X2307977Y-7101497D01*
G01X2301881Y-7107847D01*
G01X2292483Y-7110895D01*
G01X2283085Y-7110895D01*
G01X2273941Y-7107847D01*
G01X2270893Y-7104545D01*
G01X2267845Y-7098449D01*
G01X2344299Y-7061365D02*
G01X2344299Y-7058317D01*
G01X2347347Y-7051967D01*
G01X2350395Y-7048919D01*
G01X2356491Y-7045871D01*
G01X2368937Y-7045871D01*
G01X2375287Y-7048919D01*
G01X2378335Y-7051967D01*
G01X2381383Y-7058317D01*
G01X2381383Y-7064413D01*
G01X2378335Y-7070509D01*
G01X2371985Y-7079907D01*
G01X2341251Y-7110895D01*
G01X2384431Y-7110895D01*
G01X1861820Y-7043166D02*
G01X1861820Y-7108190D01*
G01X1861820Y-7043166D02*
G01X1889760Y-7043166D01*
G01X1898904Y-7046214D01*
G01X1901952Y-7049262D01*
G01X1905254Y-7055612D01*
G01X1905254Y-7061708D01*
G01X1901952Y-7067804D01*
G01X1898904Y-7070852D01*
G01X1889760Y-7074154D01*
G01X1861820Y-7074154D01*
G01X1883410Y-7074154D02*
G01X1905254Y-7108190D01*
G01X1941576Y-7043166D02*
G01X1975612Y-7043166D01*
G01X1957070Y-7067804D01*
G01X1966214Y-7067804D01*
G01X1972564Y-7070852D01*
G01X1975612Y-7074154D01*
G01X1978660Y-7083298D01*
G01X1978660Y-7089648D01*
G01X1975612Y-7098792D01*
G01X1969516Y-7105142D01*
G01X1960118Y-7108190D01*
G01X1950720Y-7108190D01*
G01X1941576Y-7105142D01*
G01X1938528Y-7101840D01*
G01X1935480Y-7095744D01*
G01X2039620Y-7043166D02*
G01X2008886Y-7086346D01*
G01X2055114Y-7086346D01*
G01X2039620Y-7043166D02*
G01X2039620Y-7108190D01*
G01X6954266Y-3967480D02*
G01X7019290Y-3967480D01*
G01X6954266Y-3967480D02*
G01X6954266Y-3939540D01*
G01X6957314Y-3930396D01*
G01X6960362Y-3927348D01*
G01X6966712Y-3924046D01*
G01X6972808Y-3924046D01*
G01X6978904Y-3927348D01*
G01X6981952Y-3930396D01*
G01X6985254Y-3939540D01*
G01X6985254Y-3967480D01*
G01X6985254Y-3945890D02*
G01X7019290Y-3924046D01*
G01X6966712Y-3893820D02*
G01X6963410Y-3887724D01*
G01X6954266Y-3878580D01*
G01X7019290Y-3878580D01*
G01X6954266Y-3833114D02*
G01X6957314Y-3842258D01*
G01X6963410Y-3845306D01*
G01X6969760Y-3845306D01*
G01X6975856Y-3842258D01*
G01X6978904Y-3836162D01*
G01X6981952Y-3823716D01*
G01X6985254Y-3814318D01*
G01X6991350Y-3808222D01*
G01X6997446Y-3805174D01*
G01X7006844Y-3805174D01*
G01X7012940Y-3808222D01*
G01X7016242Y-3811270D01*
G01X7019290Y-3820668D01*
G01X7019290Y-3833114D01*
G01X7016242Y-3842258D01*
G01X7012940Y-3845306D01*
G01X7006844Y-3848354D01*
G01X6997446Y-3848354D01*
G01X6991350Y-3845306D01*
G01X6985254Y-3839210D01*
G01X6981952Y-3829812D01*
G01X6978904Y-3817620D01*
G01X6975856Y-3811270D01*
G01X6969760Y-3808222D01*
G01X6963410Y-3808222D01*
G01X6957314Y-3811270D01*
G01X6954266Y-3820668D01*
G01X6954266Y-3833114D01*
G01X2240534Y-2496820D02*
G01X2175510Y-2496820D01*
G01X2240534Y-2496820D02*
G01X2240534Y-2524760D01*
G01X2237486Y-2533904D01*
G01X2234438Y-2536952D01*
G01X2228088Y-2540254D01*
G01X2221992Y-2540254D01*
G01X2215896Y-2536952D01*
G01X2212848Y-2533904D01*
G01X2209546Y-2524760D01*
G01X2209546Y-2496820D01*
G01X2209546Y-2518410D02*
G01X2175510Y-2540254D01*
G01X2240534Y-2607564D02*
G01X2240534Y-2576576D01*
G01X2212848Y-2573528D01*
G01X2215896Y-2576576D01*
G01X2218944Y-2585720D01*
G01X2218944Y-2595118D01*
G01X2215896Y-2604516D01*
G01X2209546Y-2610612D01*
G01X2200402Y-2613660D01*
G01X2194052Y-2613660D01*
G01X2184908Y-2610612D01*
G01X2178558Y-2604516D01*
G01X2175510Y-2595118D01*
G01X2175510Y-2585720D01*
G01X2178558Y-2576576D01*
G01X2181860Y-2573528D01*
G01X2187956Y-2570480D01*
G01X2240534Y-2713228D02*
G01X2175510Y-2713228D01*
G01X2240534Y-2743454D02*
G01X2175510Y-2743454D01*
G01X2240534Y-2743454D02*
G01X2175510Y-2786634D01*
G01X2240534Y-2786634D02*
G01X2175510Y-2786634D01*
G01X2240534Y-2841498D02*
G01X2175510Y-2816860D01*
G01X2240534Y-2841498D02*
G01X2175510Y-2866390D01*
G01X2197354Y-2826004D02*
G01X2197354Y-2856992D01*
G01X2225040Y-3012186D02*
G01X2231390Y-3009138D01*
G01X2237486Y-3003042D01*
G01X2240534Y-2996692D01*
G01X2240534Y-2984500D01*
G01X2237486Y-2978150D01*
G01X2231390Y-2972054D01*
G01X2225040Y-2969006D01*
G01X2215896Y-2965958D01*
G01X2200402Y-2965958D01*
G01X2191004Y-2969006D01*
G01X2184908Y-2972054D01*
G01X2178558Y-2978150D01*
G01X2175510Y-2984500D01*
G01X2175510Y-2996692D01*
G01X2178558Y-3003042D01*
G01X2184908Y-3009138D01*
G01X2191004Y-3012186D01*
G01X2200402Y-3012186D01*
G01X2200402Y-2996692D02*
G01X2200402Y-3012186D01*
G01X2240534Y-3067050D02*
G01X2175510Y-3042412D01*
G01X2240534Y-3067050D02*
G01X2175510Y-3091942D01*
G01X2197354Y-3051556D02*
G01X2197354Y-3082544D01*
G01X2240534Y-3122168D02*
G01X2175510Y-3122168D01*
G01X2240534Y-3152394D02*
G01X2175510Y-3152394D01*
G01X2240534Y-3152394D02*
G01X2175510Y-3195574D01*
G01X2240534Y-3195574D02*
G01X2175510Y-3195574D01*
G01X4310145Y-2243179D02*
G01X4310145Y-2308203D01*
G01X4310145Y-2243179D02*
G01X4338085Y-2243179D01*
G01X4347229Y-2246227D01*
G01X4350277Y-2249275D01*
G01X4353579Y-2255625D01*
G01X4353579Y-2261721D01*
G01X4350277Y-2267817D01*
G01X4347229Y-2270865D01*
G01X4338085Y-2274167D01*
G01X4310145Y-2274167D01*
G01X4331735Y-2274167D02*
G01X4353579Y-2308203D01*
G01X4383805Y-2255625D02*
G01X4389901Y-2252323D01*
G01X4399045Y-2243179D01*
G01X4399045Y-2308203D01*
G01X4460005Y-2243179D02*
G01X4429271Y-2286359D01*
G01X4475499Y-2286359D01*
G01X4460005Y-2243179D02*
G01X4460005Y-2308203D01*
G01X5392420Y-2242566D02*
G01X5392420Y-2307590D01*
G01X5392420Y-2242566D02*
G01X5420360Y-2242566D01*
G01X5429504Y-2245614D01*
G01X5432552Y-2248662D01*
G01X5435854Y-2255012D01*
G01X5435854Y-2261108D01*
G01X5432552Y-2267204D01*
G01X5429504Y-2270252D01*
G01X5420360Y-2273554D01*
G01X5392420Y-2273554D01*
G01X5414010Y-2273554D02*
G01X5435854Y-2307590D01*
G01X5466080Y-2255012D02*
G01X5472176Y-2251710D01*
G01X5481320Y-2242566D01*
G01X5481320Y-2307590D01*
G01X5548630Y-2251710D02*
G01X5545582Y-2245614D01*
G01X5536184Y-2242566D01*
G01X5530088Y-2242566D01*
G01X5520690Y-2245614D01*
G01X5514594Y-2255012D01*
G01X5511546Y-2270252D01*
G01X5511546Y-2285746D01*
G01X5514594Y-2298192D01*
G01X5520690Y-2304542D01*
G01X5530088Y-2307590D01*
G01X5533136Y-2307590D01*
G01X5542280Y-2304542D01*
G01X5548630Y-2298192D01*
G01X5551678Y-2289048D01*
G01X5551678Y-2285746D01*
G01X5548630Y-2276602D01*
G01X5542280Y-2270252D01*
G01X5533136Y-2267204D01*
G01X5530088Y-2267204D01*
G01X5520690Y-2270252D01*
G01X5514594Y-2276602D01*
G01X5511546Y-2285746D01*
G01X6966966Y-2887980D02*
G01X7031990Y-2887980D01*
G01X6966966Y-2887980D02*
G01X6966966Y-2860040D01*
G01X6970014Y-2850896D01*
G01X6973062Y-2847848D01*
G01X6979412Y-2844546D01*
G01X6985508Y-2844546D01*
G01X6991604Y-2847848D01*
G01X6994652Y-2850896D01*
G01X6997954Y-2860040D01*
G01X6997954Y-2887980D01*
G01X6997954Y-2866390D02*
G01X7031990Y-2844546D01*
G01X6982460Y-2811272D02*
G01X6979412Y-2811272D01*
G01X6973062Y-2808224D01*
G01X6970014Y-2805176D01*
G01X6966966Y-2799080D01*
G01X6966966Y-2786634D01*
G01X6970014Y-2780284D01*
G01X6973062Y-2777236D01*
G01X6979412Y-2774188D01*
G01X6985508Y-2774188D01*
G01X6991604Y-2777236D01*
G01X7001002Y-2783586D01*
G01X7031990Y-2814320D01*
G01X7031990Y-2771140D01*
G01X6966966Y-2722372D02*
G01X6970014Y-2731770D01*
G01X6979412Y-2737866D01*
G01X6994652Y-2740914D01*
G01X7004050Y-2740914D01*
G01X7019544Y-2737866D01*
G01X7028942Y-2731770D01*
G01X7031990Y-2722372D01*
G01X7031990Y-2716276D01*
G01X7028942Y-2706878D01*
G01X7019544Y-2700782D01*
G01X7004050Y-2697734D01*
G01X6994652Y-2697734D01*
G01X6979412Y-2700782D01*
G01X6970014Y-2706878D01*
G01X6966966Y-2716276D01*
G01X6966966Y-2722372D01*
G01X5326634Y-5392166D02*
G01X5326634Y-5457190D01*
G01X5326634Y-5392166D02*
G01X5354574Y-5392166D01*
G01X5363718Y-5395214D01*
G01X5366766Y-5398262D01*
G01X5370068Y-5404612D01*
G01X5370068Y-5410708D01*
G01X5366766Y-5416804D01*
G01X5363718Y-5419852D01*
G01X5354574Y-5423154D01*
G01X5326634Y-5423154D01*
G01X5348224Y-5423154D02*
G01X5370068Y-5457190D01*
G01X5403342Y-5407660D02*
G01X5403342Y-5404612D01*
G01X5406390Y-5398262D01*
G01X5409438Y-5395214D01*
G01X5415534Y-5392166D01*
G01X5427980Y-5392166D01*
G01X5434330Y-5395214D01*
G01X5437378Y-5398262D01*
G01X5440426Y-5404612D01*
G01X5440426Y-5410708D01*
G01X5437378Y-5416804D01*
G01X5431028Y-5426202D01*
G01X5400294Y-5457190D01*
G01X5443474Y-5457190D01*
G01X5479796Y-5392166D02*
G01X5513832Y-5392166D01*
G01X5495290Y-5416804D01*
G01X5504434Y-5416804D01*
G01X5510784Y-5419852D01*
G01X5513832Y-5423154D01*
G01X5516880Y-5432298D01*
G01X5516880Y-5438648D01*
G01X5513832Y-5447792D01*
G01X5507736Y-5454142D01*
G01X5498338Y-5457190D01*
G01X5488940Y-5457190D01*
G01X5479796Y-5454142D01*
G01X5476748Y-5450840D01*
G01X5473700Y-5444744D01*
G01X6954266Y-5034280D02*
G01X7019290Y-5034280D01*
G01X6954266Y-5034280D02*
G01X6954266Y-5006340D01*
G01X6957314Y-4997196D01*
G01X6960362Y-4994148D01*
G01X6966712Y-4990846D01*
G01X6972808Y-4990846D01*
G01X6978904Y-4994148D01*
G01X6981952Y-4997196D01*
G01X6985254Y-5006340D01*
G01X6985254Y-5034280D01*
G01X6985254Y-5012690D02*
G01X7019290Y-4990846D01*
G01X6969760Y-4957572D02*
G01X6966712Y-4957572D01*
G01X6960362Y-4954524D01*
G01X6957314Y-4951476D01*
G01X6954266Y-4945380D01*
G01X6954266Y-4932934D01*
G01X6957314Y-4926584D01*
G01X6960362Y-4923536D01*
G01X6966712Y-4920488D01*
G01X6972808Y-4920488D01*
G01X6978904Y-4923536D01*
G01X6988302Y-4929886D01*
G01X7019290Y-4960620D01*
G01X7019290Y-4917440D01*
G01X6954266Y-4856480D02*
G01X6997446Y-4887214D01*
G01X6997446Y-4840986D01*
G01X6954266Y-4856480D02*
G01X7019290Y-4856480D01*
G01X3148508Y-5920453D02*
G01X3148508Y-5985477D01*
G01X3148508Y-5920453D02*
G01X3176448Y-5920453D01*
G01X3185592Y-5923501D01*
G01X3188640Y-5926549D01*
G01X3191942Y-5932899D01*
G01X3191942Y-5938995D01*
G01X3188640Y-5945091D01*
G01X3185592Y-5948139D01*
G01X3176448Y-5951441D01*
G01X3148508Y-5951441D01*
G01X3170098Y-5951441D02*
G01X3191942Y-5985477D01*
G01X3228264Y-5920453D02*
G01X3262300Y-5920453D01*
G01X3243758Y-5945091D01*
G01X3252902Y-5945091D01*
G01X3259252Y-5948139D01*
G01X3262300Y-5951441D01*
G01X3265348Y-5960585D01*
G01X3265348Y-5966935D01*
G01X3262300Y-5976079D01*
G01X3256204Y-5982429D01*
G01X3246806Y-5985477D01*
G01X3237408Y-5985477D01*
G01X3228264Y-5982429D01*
G01X3225216Y-5979127D01*
G01X3222168Y-5973031D01*
G01X3295574Y-5932899D02*
G01X3301670Y-5929597D01*
G01X3310814Y-5920453D01*
G01X3310814Y-5985477D01*
G01X3796221Y-5920466D02*
G01X3796221Y-5985490D01*
G01X3796221Y-5920466D02*
G01X3824161Y-5920466D01*
G01X3833305Y-5923514D01*
G01X3836353Y-5926562D01*
G01X3839655Y-5932912D01*
G01X3839655Y-5939008D01*
G01X3836353Y-5945104D01*
G01X3833305Y-5948152D01*
G01X3824161Y-5951454D01*
G01X3796221Y-5951454D01*
G01X3817811Y-5951454D02*
G01X3839655Y-5985490D01*
G01X3875977Y-5920466D02*
G01X3910013Y-5920466D01*
G01X3891471Y-5945104D01*
G01X3900615Y-5945104D01*
G01X3906965Y-5948152D01*
G01X3910013Y-5951454D01*
G01X3913061Y-5960598D01*
G01X3913061Y-5966948D01*
G01X3910013Y-5976092D01*
G01X3903917Y-5982442D01*
G01X3894519Y-5985490D01*
G01X3885121Y-5985490D01*
G01X3875977Y-5982442D01*
G01X3872929Y-5979140D01*
G01X3869881Y-5973044D01*
G01X3949383Y-5920466D02*
G01X3983419Y-5920466D01*
G01X3964877Y-5945104D01*
G01X3974021Y-5945104D01*
G01X3980371Y-5948152D01*
G01X3983419Y-5951454D01*
G01X3986467Y-5960598D01*
G01X3986467Y-5966948D01*
G01X3983419Y-5976092D01*
G01X3977323Y-5982442D01*
G01X3967925Y-5985490D01*
G01X3958527Y-5985490D01*
G01X3949383Y-5982442D01*
G01X3946335Y-5979140D01*
G01X3943287Y-5973044D01*
G01X3632402Y-5026571D02*
G01X3632402Y-5091595D01*
G01X3632402Y-5026571D02*
G01X3660342Y-5026571D01*
G01X3669486Y-5029619D01*
G01X3672534Y-5032667D01*
G01X3675836Y-5039017D01*
G01X3675836Y-5045113D01*
G01X3672534Y-5051209D01*
G01X3669486Y-5054257D01*
G01X3660342Y-5057559D01*
G01X3632402Y-5057559D01*
G01X3653992Y-5057559D02*
G01X3675836Y-5091595D01*
G01X3712158Y-5026571D02*
G01X3746194Y-5026571D01*
G01X3727652Y-5051209D01*
G01X3736796Y-5051209D01*
G01X3743146Y-5054257D01*
G01X3746194Y-5057559D01*
G01X3749242Y-5066703D01*
G01X3749242Y-5073053D01*
G01X3746194Y-5082197D01*
G01X3740098Y-5088547D01*
G01X3730700Y-5091595D01*
G01X3721302Y-5091595D01*
G01X3712158Y-5088547D01*
G01X3709110Y-5085245D01*
G01X3706062Y-5079149D01*
G01X3816552Y-5035715D02*
G01X3813504Y-5029619D01*
G01X3804106Y-5026571D01*
G01X3798010Y-5026571D01*
G01X3788612Y-5029619D01*
G01X3782516Y-5039017D01*
G01X3779468Y-5054257D01*
G01X3779468Y-5069751D01*
G01X3782516Y-5082197D01*
G01X3788612Y-5088547D01*
G01X3798010Y-5091595D01*
G01X3801058Y-5091595D01*
G01X3810202Y-5088547D01*
G01X3816552Y-5082197D01*
G01X3819600Y-5073053D01*
G01X3819600Y-5069751D01*
G01X3816552Y-5060607D01*
G01X3810202Y-5054257D01*
G01X3801058Y-5051209D01*
G01X3798010Y-5051209D01*
G01X3788612Y-5054257D01*
G01X3782516Y-5060607D01*
G01X3779468Y-5069751D01*
G01X3627120Y-4719066D02*
G01X3627120Y-4784090D01*
G01X3627120Y-4719066D02*
G01X3655060Y-4719066D01*
G01X3664204Y-4722114D01*
G01X3667252Y-4725162D01*
G01X3670554Y-4731512D01*
G01X3670554Y-4737608D01*
G01X3667252Y-4743704D01*
G01X3664204Y-4746752D01*
G01X3655060Y-4750054D01*
G01X3627120Y-4750054D01*
G01X3648710Y-4750054D02*
G01X3670554Y-4784090D01*
G01X3706876Y-4719066D02*
G01X3740912Y-4719066D01*
G01X3722370Y-4743704D01*
G01X3731514Y-4743704D01*
G01X3737864Y-4746752D01*
G01X3740912Y-4750054D01*
G01X3743960Y-4759198D01*
G01X3743960Y-4765548D01*
G01X3740912Y-4774692D01*
G01X3734816Y-4781042D01*
G01X3725418Y-4784090D01*
G01X3716020Y-4784090D01*
G01X3706876Y-4781042D01*
G01X3703828Y-4777740D01*
G01X3700780Y-4771644D01*
G01X3811270Y-4719066D02*
G01X3780282Y-4719066D01*
G01X3777234Y-4746752D01*
G01X3780282Y-4743704D01*
G01X3789426Y-4740656D01*
G01X3798824Y-4740656D01*
G01X3808222Y-4743704D01*
G01X3814318Y-4750054D01*
G01X3817366Y-4759198D01*
G01X3817366Y-4765548D01*
G01X3814318Y-4774692D01*
G01X3808222Y-4781042D01*
G01X3798824Y-4784090D01*
G01X3789426Y-4784090D01*
G01X3780282Y-4781042D01*
G01X3777234Y-4777740D01*
G01X3774186Y-4771644D01*
G01X3284220Y-4719066D02*
G01X3284220Y-4784090D01*
G01X3284220Y-4719066D02*
G01X3312160Y-4719066D01*
G01X3321304Y-4722114D01*
G01X3324352Y-4725162D01*
G01X3327654Y-4731512D01*
G01X3327654Y-4737608D01*
G01X3324352Y-4743704D01*
G01X3321304Y-4746752D01*
G01X3312160Y-4750054D01*
G01X3284220Y-4750054D01*
G01X3305810Y-4750054D02*
G01X3327654Y-4784090D01*
G01X3363976Y-4719066D02*
G01X3398012Y-4719066D01*
G01X3379470Y-4743704D01*
G01X3388614Y-4743704D01*
G01X3394964Y-4746752D01*
G01X3398012Y-4750054D01*
G01X3401060Y-4759198D01*
G01X3401060Y-4765548D01*
G01X3398012Y-4774692D01*
G01X3391916Y-4781042D01*
G01X3382518Y-4784090D01*
G01X3373120Y-4784090D01*
G01X3363976Y-4781042D01*
G01X3360928Y-4777740D01*
G01X3357880Y-4771644D01*
G01X3474466Y-4719066D02*
G01X3443478Y-4784090D01*
G01X3431286Y-4719066D02*
G01X3474466Y-4719066D01*
G01X806238Y-2332081D02*
G01X871262Y-2332081D01*
G01X871262Y-2332081D02*
G01X871262Y-2294997D01*
G01X806238Y-2240133D02*
G01X871262Y-2264771D01*
G01X806238Y-2240133D02*
G01X871262Y-2215241D01*
G01X849418Y-2255627D02*
G01X849418Y-2224639D01*
G01X1988820Y-1848866D02*
G01X1988820Y-1913890D01*
G01X1988820Y-1848866D02*
G01X2016760Y-1848866D01*
G01X2025904Y-1851914D01*
G01X2028952Y-1854962D01*
G01X2032254Y-1861312D01*
G01X2032254Y-1867408D01*
G01X2028952Y-1873504D01*
G01X2025904Y-1876552D01*
G01X2016760Y-1879854D01*
G01X1988820Y-1879854D01*
G01X2010410Y-1879854D02*
G01X2032254Y-1913890D01*
G01X2062480Y-1848866D02*
G01X2062480Y-1913890D01*
G01X2062480Y-1913890D02*
G01X2099564Y-1913890D01*
G01X2129790Y-1848866D02*
G01X2129790Y-1913890D01*
G01X2129790Y-1848866D02*
G01X2151380Y-1848866D01*
G01X2160524Y-1851914D01*
G01X2166874Y-1858010D01*
G01X2169922Y-1864360D01*
G01X2172970Y-1873504D01*
G01X2172970Y-1888998D01*
G01X2169922Y-1898396D01*
G01X2166874Y-1904492D01*
G01X2160524Y-1910842D01*
G01X2151380Y-1913890D01*
G01X2129790Y-1913890D01*
G01X2471420Y-3639566D02*
G01X2471420Y-3704590D01*
G01X2526284Y-3639566D02*
G01X2501646Y-3704590D01*
G01X2526284Y-3639566D02*
G01X2551176Y-3704590D01*
G01X2510790Y-3682746D02*
G01X2541778Y-3682746D01*
G01X807838Y-3400287D02*
G01X872862Y-3400287D01*
G01X807838Y-3400287D02*
G01X807838Y-3372347D01*
G01X810886Y-3363203D01*
G01X813934Y-3360155D01*
G01X820284Y-3356853D01*
G01X826380Y-3356853D01*
G01X832476Y-3360155D01*
G01X835524Y-3363203D01*
G01X838826Y-3372347D01*
G01X838826Y-3400287D01*
G01X838826Y-3378697D02*
G01X872862Y-3356853D01*
G01X807838Y-3301989D02*
G01X872862Y-3326627D01*
G01X807838Y-3301989D02*
G01X872862Y-3277097D01*
G01X851018Y-3317483D02*
G01X851018Y-3286495D01*
G01X3970020Y-3639566D02*
G01X3970020Y-3704590D01*
G01X4013454Y-3639566D02*
G01X4013454Y-3704590D01*
G01X3970020Y-3670554D02*
G01X4013454Y-3670554D01*
G01X4043680Y-3639566D02*
G01X4043680Y-3704590D01*
G01X4043680Y-3639566D02*
G01X4071366Y-3639566D01*
G01X4080764Y-3642614D01*
G01X4083812Y-3645662D01*
G01X4086860Y-3652012D01*
G01X4086860Y-3661156D01*
G01X4083812Y-3667252D01*
G01X4080764Y-3670554D01*
G01X4071366Y-3673602D01*
G01X4043680Y-3673602D01*
G01X6573520Y-5354066D02*
G01X6573520Y-5419090D01*
G01X6573520Y-5354066D02*
G01X6616954Y-5419090D01*
G01X6616954Y-5354066D02*
G01X6616954Y-5419090D01*
G01X6662420Y-5375656D02*
G01X6656324Y-5378704D01*
G01X6650228Y-5385054D01*
G01X6647180Y-5394198D01*
G01X6647180Y-5400548D01*
G01X6650228Y-5409692D01*
G01X6656324Y-5416042D01*
G01X6662420Y-5419090D01*
G01X6671818Y-5419090D01*
G01X6677914Y-5416042D01*
G01X6684264Y-5409692D01*
G01X6687312Y-5400548D01*
G01X6687312Y-5394198D01*
G01X6684264Y-5385054D01*
G01X6677914Y-5378704D01*
G01X6671818Y-5375656D01*
G01X6662420Y-5375656D01*
G01X6726682Y-5354066D02*
G01X6726682Y-5406644D01*
G01X6729730Y-5416042D01*
G01X6736080Y-5419090D01*
G01X6742176Y-5419090D01*
G01X6717538Y-5375656D02*
G01X6739128Y-5375656D01*
G01X6809486Y-5385054D02*
G01X6803136Y-5378704D01*
G01X6797040Y-5375656D01*
G01X6787642Y-5375656D01*
G01X6781546Y-5378704D01*
G01X6775450Y-5385054D01*
G01X6772402Y-5394198D01*
G01X6772402Y-5400548D01*
G01X6775450Y-5409692D01*
G01X6781546Y-5416042D01*
G01X6787642Y-5419090D01*
G01X6797040Y-5419090D01*
G01X6803136Y-5416042D01*
G01X6809486Y-5409692D01*
G01X6839712Y-5354066D02*
G01X6839712Y-5419090D01*
G01X6839712Y-5388102D02*
G01X6848856Y-5378704D01*
G01X6854952Y-5375656D01*
G01X6864350Y-5375656D01*
G01X6870446Y-5378704D01*
G01X6873748Y-5388102D01*
G01X6873748Y-5419090D01*
G01X2909062Y-6624066D02*
G01X2902966Y-6627114D01*
G01X2896616Y-6633210D01*
G01X2893568Y-6639560D01*
G01X2890520Y-6648704D01*
G01X2890520Y-6664198D01*
G01X2893568Y-6673596D01*
G01X2896616Y-6679692D01*
G01X2902966Y-6686042D01*
G01X2909062Y-6689090D01*
G01X2921508Y-6689090D01*
G01X2927604Y-6686042D01*
G01X2933954Y-6679692D01*
G01X2937002Y-6673596D01*
G01X2940050Y-6664198D01*
G01X2940050Y-6648704D01*
G01X2937002Y-6639560D01*
G01X2933954Y-6633210D01*
G01X2927604Y-6627114D01*
G01X2921508Y-6624066D01*
G01X2909062Y-6624066D01*
G01X2970276Y-6624066D02*
G01X2970276Y-6670548D01*
G01X2973324Y-6679692D01*
G01X2979420Y-6686042D01*
G01X2988818Y-6689090D01*
G01X2994914Y-6689090D01*
G01X3004312Y-6686042D01*
G01X3010408Y-6679692D01*
G01X3013456Y-6670548D01*
G01X3013456Y-6624066D01*
G01X3065272Y-6624066D02*
G01X3065272Y-6689090D01*
G01X3043682Y-6624066D02*
G01X3086862Y-6624066D01*
G01X795020Y-2496566D02*
G01X795020Y-2543048D01*
G01X798068Y-2552192D01*
G01X804418Y-2558542D01*
G01X813562Y-2561590D01*
G01X819912Y-2561590D01*
G01X829056Y-2558542D01*
G01X835152Y-2552192D01*
G01X838454Y-2543048D01*
G01X838454Y-2496566D01*
G01X868680Y-2509012D02*
G01X874776Y-2505710D01*
G01X883920Y-2496566D01*
G01X883920Y-2561590D01*
G01X2865120Y-2852166D02*
G01X2865120Y-2898648D01*
G01X2868168Y-2907792D01*
G01X2874518Y-2914142D01*
G01X2883662Y-2917190D01*
G01X2890012Y-2917190D01*
G01X2899156Y-2914142D01*
G01X2905252Y-2907792D01*
G01X2908554Y-2898648D01*
G01X2908554Y-2852166D01*
G01X2941828Y-2867660D02*
G01X2941828Y-2864612D01*
G01X2944876Y-2858262D01*
G01X2947924Y-2855214D01*
G01X2954020Y-2852166D01*
G01X2966466Y-2852166D01*
G01X2972816Y-2855214D01*
G01X2975864Y-2858262D01*
G01X2978912Y-2864612D01*
G01X2978912Y-2870708D01*
G01X2975864Y-2876804D01*
G01X2969514Y-2886202D01*
G01X2938780Y-2917190D01*
G01X2981960Y-2917190D01*
G01X795020Y-3550666D02*
G01X795020Y-3597148D01*
G01X798068Y-3606292D01*
G01X804418Y-3612642D01*
G01X813562Y-3615690D01*
G01X819912Y-3615690D01*
G01X829056Y-3612642D01*
G01X835152Y-3606292D01*
G01X838454Y-3597148D01*
G01X838454Y-3550666D01*
G01X874776Y-3550666D02*
G01X908812Y-3550666D01*
G01X890270Y-3575304D01*
G01X899414Y-3575304D01*
G01X905764Y-3578352D01*
G01X908812Y-3581654D01*
G01X911860Y-3590798D01*
G01X911860Y-3597148D01*
G01X908812Y-3606292D01*
G01X902716Y-3612642D01*
G01X893318Y-3615690D01*
G01X883920Y-3615690D01*
G01X874776Y-3612642D01*
G01X871728Y-3609340D01*
G01X868680Y-3603244D01*
G01X3868420Y-2788666D02*
G01X3868420Y-2835148D01*
G01X3871468Y-2844292D01*
G01X3877818Y-2850642D01*
G01X3886962Y-2853690D01*
G01X3893312Y-2853690D01*
G01X3902456Y-2850642D01*
G01X3908552Y-2844292D01*
G01X3911854Y-2835148D01*
G01X3911854Y-2788666D01*
G01X3972814Y-2788666D02*
G01X3942080Y-2831846D01*
G01X3988308Y-2831846D01*
G01X3972814Y-2788666D02*
G01X3972814Y-2853690D01*
G01X4976782Y-3474717D02*
G01X4976782Y-3521199D01*
G01X4979830Y-3530343D01*
G01X4986180Y-3536693D01*
G01X4995324Y-3539741D01*
G01X5001674Y-3539741D01*
G01X5010818Y-3536693D01*
G01X5016914Y-3530343D01*
G01X5020216Y-3521199D01*
G01X5020216Y-3474717D01*
G01X5087526Y-3474717D02*
G01X5056538Y-3474717D01*
G01X5053490Y-3502403D01*
G01X5056538Y-3499355D01*
G01X5065682Y-3496307D01*
G01X5075080Y-3496307D01*
G01X5084478Y-3499355D01*
G01X5090574Y-3505705D01*
G01X5093622Y-3514849D01*
G01X5093622Y-3521199D01*
G01X5090574Y-3530343D01*
G01X5084478Y-3536693D01*
G01X5075080Y-3539741D01*
G01X5065682Y-3539741D01*
G01X5056538Y-3536693D01*
G01X5053490Y-3533391D01*
G01X5050442Y-3527295D01*
G01X5317475Y-3538742D02*
G01X5363957Y-3538742D01*
G01X5373101Y-3535694D01*
G01X5379451Y-3529344D01*
G01X5382499Y-3520200D01*
G01X5382499Y-3513850D01*
G01X5379451Y-3504706D01*
G01X5373101Y-3498610D01*
G01X5363957Y-3495308D01*
G01X5317475Y-3495308D01*
G01X5326619Y-3427998D02*
G01X5320523Y-3431046D01*
G01X5317475Y-3440444D01*
G01X5317475Y-3446540D01*
G01X5320523Y-3455938D01*
G01X5329921Y-3462034D01*
G01X5345161Y-3465082D01*
G01X5360655Y-3465082D01*
G01X5373101Y-3462034D01*
G01X5379451Y-3455938D01*
G01X5382499Y-3446540D01*
G01X5382499Y-3443492D01*
G01X5379451Y-3434348D01*
G01X5373101Y-3427998D01*
G01X5363957Y-3424950D01*
G01X5360655Y-3424950D01*
G01X5351511Y-3427998D01*
G01X5345161Y-3434348D01*
G01X5342113Y-3443492D01*
G01X5342113Y-3446540D01*
G01X5345161Y-3455938D01*
G01X5351511Y-3462034D01*
G01X5360655Y-3465082D01*
G01X5317475Y-2903742D02*
G01X5363957Y-2903742D01*
G01X5373101Y-2900694D01*
G01X5379451Y-2894344D01*
G01X5382499Y-2885200D01*
G01X5382499Y-2878850D01*
G01X5379451Y-2869706D01*
G01X5373101Y-2863610D01*
G01X5363957Y-2860308D01*
G01X5317475Y-2860308D01*
G01X5317475Y-2786902D02*
G01X5382499Y-2817890D01*
G01X5317475Y-2830082D02*
G01X5317475Y-2786902D01*
G01X842758Y-5901675D02*
G01X842758Y-5948157D01*
G01X845806Y-5957301D01*
G01X852156Y-5963651D01*
G01X861300Y-5966699D01*
G01X867650Y-5966699D01*
G01X876794Y-5963651D01*
G01X882890Y-5957301D01*
G01X886192Y-5948157D01*
G01X886192Y-5901675D01*
G01X931658Y-5901675D02*
G01X922514Y-5904723D01*
G01X919466Y-5910819D01*
G01X919466Y-5917169D01*
G01X922514Y-5923265D01*
G01X928610Y-5926313D01*
G01X941056Y-5929361D01*
G01X950454Y-5932663D01*
G01X956550Y-5938759D01*
G01X959598Y-5944855D01*
G01X959598Y-5954253D01*
G01X956550Y-5960349D01*
G01X953502Y-5963651D01*
G01X944104Y-5966699D01*
G01X931658Y-5966699D01*
G01X922514Y-5963651D01*
G01X919466Y-5960349D01*
G01X916418Y-5954253D01*
G01X916418Y-5944855D01*
G01X919466Y-5938759D01*
G01X925562Y-5932663D01*
G01X934960Y-5929361D01*
G01X947152Y-5926313D01*
G01X953502Y-5923265D01*
G01X956550Y-5917169D01*
G01X956550Y-5910819D01*
G01X953502Y-5904723D01*
G01X944104Y-5901675D01*
G01X931658Y-5901675D01*
G01X1503158Y-5901675D02*
G01X1503158Y-5948157D01*
G01X1506206Y-5957301D01*
G01X1512556Y-5963651D01*
G01X1521700Y-5966699D01*
G01X1528050Y-5966699D01*
G01X1537194Y-5963651D01*
G01X1543290Y-5957301D01*
G01X1546592Y-5948157D01*
G01X1546592Y-5901675D01*
G01X1616950Y-5923265D02*
G01X1613902Y-5932663D01*
G01X1607552Y-5938759D01*
G01X1598408Y-5941807D01*
G01X1595360Y-5941807D01*
G01X1585962Y-5938759D01*
G01X1579866Y-5932663D01*
G01X1576818Y-5923265D01*
G01X1576818Y-5920217D01*
G01X1579866Y-5910819D01*
G01X1585962Y-5904723D01*
G01X1595360Y-5901675D01*
G01X1598408Y-5901675D01*
G01X1607552Y-5904723D01*
G01X1613902Y-5910819D01*
G01X1616950Y-5923265D01*
G01X1616950Y-5938759D01*
G01X1613902Y-5954253D01*
G01X1607552Y-5963651D01*
G01X1598408Y-5966699D01*
G01X1592058Y-5966699D01*
G01X1582914Y-5963651D01*
G01X1579866Y-5957301D01*
G01X2150858Y-5901675D02*
G01X2150858Y-5948157D01*
G01X2153906Y-5957301D01*
G01X2160256Y-5963651D01*
G01X2169400Y-5966699D01*
G01X2175750Y-5966699D01*
G01X2184894Y-5963651D01*
G01X2190990Y-5957301D01*
G01X2194292Y-5948157D01*
G01X2194292Y-5901675D01*
G01X2224518Y-5914121D02*
G01X2230614Y-5910819D01*
G01X2239758Y-5901675D01*
G01X2239758Y-5966699D01*
G01X2288526Y-5901675D02*
G01X2279128Y-5904723D01*
G01X2273032Y-5914121D01*
G01X2269984Y-5929361D01*
G01X2269984Y-5938759D01*
G01X2273032Y-5954253D01*
G01X2279128Y-5963651D01*
G01X2288526Y-5966699D01*
G01X2294622Y-5966699D01*
G01X2304020Y-5963651D01*
G01X2310116Y-5954253D01*
G01X2313164Y-5938759D01*
G01X2313164Y-5929361D01*
G01X2310116Y-5914121D01*
G01X2304020Y-5904723D01*
G01X2294622Y-5901675D01*
G01X2288526Y-5901675D01*
G01X4973320Y-4896866D02*
G01X4973320Y-4943348D01*
G01X4976368Y-4952492D01*
G01X4982718Y-4958842D01*
G01X4991862Y-4961890D01*
G01X4998212Y-4961890D01*
G01X5007356Y-4958842D01*
G01X5013452Y-4952492D01*
G01X5016754Y-4943348D01*
G01X5016754Y-4896866D01*
G01X5046980Y-4909312D02*
G01X5053076Y-4906010D01*
G01X5062220Y-4896866D01*
G01X5062220Y-4961890D01*
G01X5092446Y-4909312D02*
G01X5098542Y-4906010D01*
G01X5107686Y-4896866D01*
G01X5107686Y-4961890D01*
G01X2519934Y-4629912D02*
G01X2454910Y-4605020D01*
G01X2519934Y-4629912D02*
G01X2454910Y-4654550D01*
G01X2476754Y-4614418D02*
G01X2476754Y-4645152D01*
G01X2519934Y-4684776D02*
G01X2473452Y-4684776D01*
G01X2464308Y-4687824D01*
G01X2457958Y-4693920D01*
G01X2454910Y-4703318D01*
G01X2454910Y-4709414D01*
G01X2457958Y-4718812D01*
G01X2464308Y-4724908D01*
G01X2473452Y-4727956D01*
G01X2519934Y-4727956D01*
G01X2519934Y-4758182D02*
G01X2454910Y-4758182D01*
G01X2519934Y-4758182D02*
G01X2519934Y-4779772D01*
G01X2516886Y-4788916D01*
G01X2510790Y-4795266D01*
G01X2504440Y-4798314D01*
G01X2495296Y-4801362D01*
G01X2479802Y-4801362D01*
G01X2470404Y-4798314D01*
G01X2464308Y-4795266D01*
G01X2457958Y-4788916D01*
G01X2454910Y-4779772D01*
G01X2454910Y-4758182D01*
G01X2519934Y-4831588D02*
G01X2454910Y-4831588D01*
G01X2519934Y-4880356D02*
G01X2516886Y-4874006D01*
G01X2510790Y-4867910D01*
G01X2504440Y-4864862D01*
G01X2495296Y-4861814D01*
G01X2479802Y-4861814D01*
G01X2470404Y-4864862D01*
G01X2464308Y-4867910D01*
G01X2457958Y-4874006D01*
G01X2454910Y-4880356D01*
G01X2454910Y-4892548D01*
G01X2457958Y-4898898D01*
G01X2464308Y-4904994D01*
G01X2470404Y-4908042D01*
G01X2479802Y-4911344D01*
G01X2495296Y-4911344D01*
G01X2504440Y-4908042D01*
G01X2510790Y-4904994D01*
G01X2516886Y-4898898D01*
G01X2519934Y-4892548D01*
G01X2519934Y-4880356D01*
G01X2507488Y-4941570D02*
G01X2510790Y-4947666D01*
G01X2519934Y-4956810D01*
G01X2454910Y-4956810D01*
G01X3144520Y-5354066D02*
G01X3144520Y-5419090D01*
G01X3144520Y-5354066D02*
G01X3172460Y-5354066D01*
G01X3181604Y-5357114D01*
G01X3184652Y-5360162D01*
G01X3187954Y-5366512D01*
G01X3187954Y-5372608D01*
G01X3184652Y-5378704D01*
G01X3181604Y-5381752D01*
G01X3172460Y-5385054D01*
G01X3144520Y-5385054D01*
G01X3166110Y-5385054D02*
G01X3187954Y-5419090D01*
G01X3224276Y-5354066D02*
G01X3258312Y-5354066D01*
G01X3239770Y-5378704D01*
G01X3248914Y-5378704D01*
G01X3255264Y-5381752D01*
G01X3258312Y-5385054D01*
G01X3261360Y-5394198D01*
G01X3261360Y-5400548D01*
G01X3258312Y-5409692D01*
G01X3252216Y-5416042D01*
G01X3242818Y-5419090D01*
G01X3233420Y-5419090D01*
G01X3224276Y-5416042D01*
G01X3221228Y-5412740D01*
G01X3218180Y-5406644D01*
G01X3331718Y-5375656D02*
G01X3328670Y-5385054D01*
G01X3322320Y-5391150D01*
G01X3313176Y-5394198D01*
G01X3310128Y-5394198D01*
G01X3300730Y-5391150D01*
G01X3294634Y-5385054D01*
G01X3291586Y-5375656D01*
G01X3291586Y-5372608D01*
G01X3294634Y-5363210D01*
G01X3300730Y-5357114D01*
G01X3310128Y-5354066D01*
G01X3313176Y-5354066D01*
G01X3322320Y-5357114D01*
G01X3328670Y-5363210D01*
G01X3331718Y-5375656D01*
G01X3331718Y-5391150D01*
G01X3328670Y-5406644D01*
G01X3322320Y-5416042D01*
G01X3313176Y-5419090D01*
G01X3306826Y-5419090D01*
G01X3297682Y-5416042D01*
G01X3294634Y-5409692D01*
G01X3398520Y-5354066D02*
G01X3398520Y-5419090D01*
G01X3398520Y-5354066D02*
G01X3426460Y-5354066D01*
G01X3435604Y-5357114D01*
G01X3438652Y-5360162D01*
G01X3441954Y-5366512D01*
G01X3441954Y-5372608D01*
G01X3438652Y-5378704D01*
G01X3435604Y-5381752D01*
G01X3426460Y-5385054D01*
G01X3398520Y-5385054D01*
G01X3420110Y-5385054D02*
G01X3441954Y-5419090D01*
G01X3502914Y-5354066D02*
G01X3472180Y-5397246D01*
G01X3518408Y-5397246D01*
G01X3502914Y-5354066D02*
G01X3502914Y-5419090D01*
G01X3567176Y-5354066D02*
G01X3557778Y-5357114D01*
G01X3551682Y-5366512D01*
G01X3548634Y-5381752D01*
G01X3548634Y-5391150D01*
G01X3551682Y-5406644D01*
G01X3557778Y-5416042D01*
G01X3567176Y-5419090D01*
G01X3573272Y-5419090D01*
G01X3582670Y-5416042D01*
G01X3588766Y-5406644D01*
G01X3591814Y-5391150D01*
G01X3591814Y-5381752D01*
G01X3588766Y-5366512D01*
G01X3582670Y-5357114D01*
G01X3573272Y-5354066D01*
G01X3567176Y-5354066D01*
G01X3517108Y-7054063D02*
G01X3517108Y-7119087D01*
G01X3495518Y-7054063D02*
G01X3538952Y-7054063D01*
G01X3569178Y-7054063D02*
G01X3569178Y-7119087D01*
G01X3569178Y-7054063D02*
G01X3596864Y-7054063D01*
G01X3606262Y-7057111D01*
G01X3609310Y-7060159D01*
G01X3612358Y-7066509D01*
G01X3612358Y-7075653D01*
G01X3609310Y-7081749D01*
G01X3606262Y-7085051D01*
G01X3596864Y-7088099D01*
G01X3569178Y-7088099D01*
G01X3673318Y-7054063D02*
G01X3642584Y-7097243D01*
G01X3688812Y-7097243D01*
G01X3673318Y-7054063D02*
G01X3673318Y-7119087D01*
G04 Text End*

G04 PolygonModel Start*
G54D13*
G01X3035300Y-4235602D02*
G01X3035300Y-4559300D01*
G01X4140200Y-4254500D02*
G01X4140200Y-4546600D01*
G01X4127500Y-4559300D01*
G54D10*
G01X3533719Y-3935938D02*
G01X3533719Y-3787440D01*
G01X3315198Y-3787440D02*
G01X3315198Y-3935938D01*
G01X3330438Y-3951178D02*
G01X3518479Y-3951178D01*
G01X3533719Y-3453699D02*
G01X3533719Y-3602198D01*
G01X3315198Y-3602198D02*
G01X3315198Y-3453699D01*
G01X3330438Y-3438459D02*
G01X3518479Y-3438459D01*
G01X3315198Y-3935938D02*
G03X3330438Y-3951178I15240J0D01*
G01X3518479Y-3951178D02*
G03X3533719Y-3935938I0J15240D01*
G01X3315198Y-3453699D02*
G02X3330438Y-3438459I15240J0D01*
G01X3518479Y-3438459D02*
G02X3533719Y-3453699I0J-15240D01*
G01X3639157Y-3454715D02*
G01X3639157Y-3603214D01*
G01X3857678Y-3603214D02*
G01X3857678Y-3454715D01*
G01X3842438Y-3439475D02*
G01X3654397Y-3439475D01*
G01X3639157Y-3936954D02*
G01X3639157Y-3788456D01*
G01X3857678Y-3788456D02*
G01X3857678Y-3936954D01*
G01X3842438Y-3952194D02*
G01X3654397Y-3952194D01*
G01X3857678Y-3454715D02*
G03X3842438Y-3439475I-15240J0D01*
G01X3654397Y-3439475D02*
G03X3639157Y-3454715I0J-15240D01*
G01X3857678Y-3936954D02*
G02X3842438Y-3952194I-15240J0D01*
G01X3654397Y-3952194D02*
G02X3639157Y-3936954I0J15240D01*
G01X4771461Y-3038069D02*
G01X4850470Y-3038069D01*
G01X4850470Y-2938348D02*
G01X4771461Y-2938348D01*
G01X4756221Y-2953588D02*
G01X4756221Y-3022829D01*
G01X4974722Y-3038069D02*
G01X4895713Y-3038069D01*
G01X4895713Y-2938348D02*
G01X4974722Y-2938348D01*
G01X4989962Y-2953588D02*
G01X4989962Y-3022829D01*
G01X4771461Y-2938348D02*
G03X4756221Y-2953588I0J-15240D01*
G01X4756221Y-3022829D02*
G03X4771461Y-3038069I15240J0D01*
G01X4974722Y-2938348D02*
G02X4989962Y-2953588I0J-15240D01*
G01X4989962Y-3022829D02*
G02X4974722Y-3038069I-15240J0D01*
G01X4581268Y-2947088D02*
G01X4502259Y-2947088D01*
G01X4502259Y-3046809D02*
G01X4581268Y-3046809D01*
G01X4596508Y-3031569D02*
G01X4596508Y-2962328D01*
G01X4378008Y-2947088D02*
G01X4457017Y-2947088D01*
G01X4457017Y-3046809D02*
G01X4378008Y-3046809D01*
G01X4362768Y-3031569D02*
G01X4362768Y-2962328D01*
G01X4581268Y-3046809D02*
G03X4596508Y-3031569I0J15240D01*
G01X4596508Y-2962328D02*
G03X4581268Y-2947088I-15240J0D01*
G01X4378008Y-3046809D02*
G02X4362768Y-3031569I0J15240D01*
G01X4362768Y-2962328D02*
G02X4378008Y-2947088I15240J0D01*
G01X6032530Y-4153840D02*
G01X5953521Y-4153840D01*
G01X5953521Y-4253560D02*
G01X6032530Y-4253560D01*
G01X6047770Y-4238320D02*
G01X6047770Y-4169080D01*
G01X5829270Y-4153840D02*
G01X5908279Y-4153840D01*
G01X5908279Y-4253560D02*
G01X5829270Y-4253560D01*
G01X5814030Y-4238320D02*
G01X5814030Y-4169080D01*
G01X6032530Y-4253560D02*
G03X6047770Y-4238320I0J15240D01*
G01X6047770Y-4169080D02*
G03X6032530Y-4153840I-15240J0D01*
G01X5829270Y-4253560D02*
G02X5814030Y-4238320I0J15240D01*
G01X5814030Y-4169080D02*
G02X5829270Y-4153840I15240J0D01*
G01X5715030Y-4153840D02*
G01X5636021Y-4153840D01*
G01X5636021Y-4253560D02*
G01X5715030Y-4253560D01*
G01X5730270Y-4238320D02*
G01X5730270Y-4169080D01*
G01X5511770Y-4153840D02*
G01X5590779Y-4153840D01*
G01X5590779Y-4253560D02*
G01X5511770Y-4253560D01*
G01X5496530Y-4238320D02*
G01X5496530Y-4169080D01*
G01X5715030Y-4253560D02*
G03X5730270Y-4238320I0J15240D01*
G01X5730270Y-4169080D02*
G03X5715030Y-4153840I-15240J0D01*
G01X5511770Y-4253560D02*
G02X5496530Y-4238320I0J15240D01*
G01X5496530Y-4169080D02*
G02X5511770Y-4153840I15240J0D01*
G01X5777560Y-3860830D02*
G01X5777560Y-3781821D01*
G01X5677840Y-3781821D02*
G01X5677840Y-3860830D01*
G01X5693080Y-3876070D02*
G01X5762320Y-3876070D01*
G01X5777560Y-3657570D02*
G01X5777560Y-3736579D01*
G01X5677840Y-3736579D02*
G01X5677840Y-3657570D01*
G01X5693080Y-3642330D02*
G01X5762320Y-3642330D01*
G01X5677840Y-3860830D02*
G03X5693080Y-3876070I15240J0D01*
G01X5762320Y-3876070D02*
G03X5777560Y-3860830I0J15240D01*
G01X5677840Y-3657570D02*
G02X5693080Y-3642330I15240J0D01*
G01X5762320Y-3642330D02*
G02X5777560Y-3657570I0J-15240D01*
G01X5929960Y-3860830D02*
G01X5929960Y-3781821D01*
G01X5830240Y-3781821D02*
G01X5830240Y-3860830D01*
G01X5845480Y-3876070D02*
G01X5914720Y-3876070D01*
G01X5929960Y-3657570D02*
G01X5929960Y-3736579D01*
G01X5830240Y-3736579D02*
G01X5830240Y-3657570D01*
G01X5845480Y-3642330D02*
G01X5914720Y-3642330D01*
G01X5830240Y-3860830D02*
G03X5845480Y-3876070I15240J0D01*
G01X5914720Y-3876070D02*
G03X5929960Y-3860830I0J15240D01*
G01X5830240Y-3657570D02*
G02X5845480Y-3642330I15240J0D01*
G01X5914720Y-3642330D02*
G02X5929960Y-3657570I0J-15240D01*
G54D13*
G01X4107147Y-4945052D02*
G01X4027150Y-4945052D01*
G01X4163192Y-4945098D02*
G01X4243189Y-4945098D01*
G01X4107147Y-4803084D02*
G01X4027150Y-4803084D01*
G01X4163192Y-4803132D02*
G01X4243189Y-4803132D01*
G01X3996174Y-4914069D02*
G01X3996174Y-4834064D01*
G01X4274167Y-4834118D02*
G01X4274167Y-4914120D01*
G01X4243184Y-4803132D02*
G02X4274167Y-4834118I0J-30983D01*
G01X4274167Y-4914115D02*
G02X4243184Y-4945098I-30983J0D01*
G01X4027155Y-4945052D02*
G02X3996174Y-4914069I3J30983D01*
G01X3996174Y-4834072D02*
G02X4027155Y-4803084I30983J5D01*
G01X4112181Y-5265257D02*
G01X4032184Y-5265257D01*
G01X4168226Y-5265303D02*
G01X4248224Y-5265303D01*
G01X4112181Y-5123289D02*
G01X4032184Y-5123289D01*
G01X4168226Y-5123337D02*
G01X4248224Y-5123337D01*
G01X4001209Y-5234275D02*
G01X4001209Y-5154270D01*
G01X4279202Y-5154323D02*
G01X4279202Y-5234325D01*
G01X4248219Y-5123337D02*
G02X4279202Y-5154323I0J-30983D01*
G01X4279202Y-5234320D02*
G02X4248219Y-5265303I-30983J0D01*
G01X4032189Y-5265257D02*
G02X4001209Y-5234275I3J30983D01*
G01X4001209Y-5154277D02*
G02X4032189Y-5123289I30983J5D01*
G54D10*
G01X2364760Y-2217979D02*
G01X2364760Y-2122091D01*
G01X2364760Y-2122091D02*
G01X2232640Y-2122091D01*
G01X2232640Y-2122091D02*
G01X2232640Y-2217979D01*
G01X2364760Y-2303221D02*
G01X2364760Y-2399109D01*
G01X2364760Y-2399109D02*
G01X2232640Y-2399109D01*
G01X2232640Y-2399109D02*
G01X2232640Y-2303221D01*
G01X2423140Y-2303221D02*
G01X2423140Y-2399109D01*
G01X2423140Y-2399109D02*
G01X2555260Y-2399109D01*
G01X2555260Y-2399109D02*
G01X2555260Y-2303221D01*
G01X2423140Y-2217979D02*
G01X2423140Y-2122091D01*
G01X2423140Y-2122091D02*
G01X2555260Y-2122091D01*
G01X2555260Y-2122091D02*
G01X2555260Y-2217979D01*
G01X1793260Y-2217979D02*
G01X1793260Y-2122091D01*
G01X1793260Y-2122091D02*
G01X1661140Y-2122091D01*
G01X1661140Y-2122091D02*
G01X1661140Y-2217979D01*
G01X1793260Y-2303221D02*
G01X1793260Y-2399109D01*
G01X1793260Y-2399109D02*
G01X1661140Y-2399109D01*
G01X1661140Y-2399109D02*
G01X1661140Y-2303221D01*
G01X1852503Y-2304085D02*
G01X1852503Y-2399972D01*
G01X1852503Y-2399972D02*
G01X1984624Y-2399972D01*
G01X1984624Y-2399972D02*
G01X1984624Y-2304085D01*
G01X1852503Y-2218842D02*
G01X1852503Y-2122955D01*
G01X1852503Y-2122955D02*
G01X1984624Y-2122955D01*
G01X1984624Y-2122955D02*
G01X1984624Y-2218842D01*
G01X1647576Y-3712058D02*
G01X1647576Y-3807945D01*
G01X1647576Y-3807945D02*
G01X1779697Y-3807945D01*
G01X1779697Y-3807945D02*
G01X1779697Y-3712058D01*
G01X1647576Y-3626815D02*
G01X1647576Y-3530928D01*
G01X1647576Y-3530928D02*
G01X1779697Y-3530928D01*
G01X1779697Y-3530928D02*
G01X1779697Y-3626815D01*
G01X2174043Y-2214536D02*
G01X2174043Y-2118648D01*
G01X2174043Y-2118648D02*
G01X2041923Y-2118648D01*
G01X2041923Y-2118648D02*
G01X2041923Y-2214536D01*
G01X2174043Y-2299778D02*
G01X2174043Y-2395666D01*
G01X2174043Y-2395666D02*
G01X2041923Y-2395666D01*
G01X2041923Y-2395666D02*
G01X2041923Y-2299778D01*
G01X1970201Y-3624236D02*
G01X1970201Y-3528348D01*
G01X1970201Y-3528348D02*
G01X1838080Y-3528348D01*
G01X1838080Y-3528348D02*
G01X1838080Y-3624236D01*
G01X1970201Y-3709478D02*
G01X1970201Y-3805366D01*
G01X1970201Y-3805366D02*
G01X1838080Y-3805366D01*
G01X1838080Y-3805366D02*
G01X1838080Y-3709478D01*
G01X2029440Y-3712921D02*
G01X2029440Y-3808809D01*
G01X2029440Y-3808809D02*
G01X2161560Y-3808809D01*
G01X2161560Y-3808809D02*
G01X2161560Y-3712921D01*
G01X2029440Y-3627679D02*
G01X2029440Y-3531791D01*
G01X2029440Y-3531791D02*
G01X2161560Y-3531791D01*
G01X2161560Y-3531791D02*
G01X2161560Y-3627679D01*
G01X3749060Y-2154479D02*
G01X3749060Y-2058591D01*
G01X3749060Y-2058591D02*
G01X3616940Y-2058591D01*
G01X3616940Y-2058591D02*
G01X3616940Y-2154479D01*
G01X3749060Y-2239721D02*
G01X3749060Y-2335609D01*
G01X3749060Y-2335609D02*
G01X3616940Y-2335609D01*
G01X3616940Y-2335609D02*
G01X3616940Y-2239721D01*
G01X3386460Y-2242163D02*
G01X3386460Y-2338051D01*
G01X3386460Y-2338051D02*
G01X3518581Y-2338051D01*
G01X3518581Y-2338051D02*
G01X3518581Y-2242163D01*
G01X3386460Y-2156921D02*
G01X3386460Y-2061033D01*
G01X3386460Y-2061033D02*
G01X3518581Y-2061033D01*
G01X3518581Y-2061033D02*
G01X3518581Y-2156921D01*
G01X4964527Y-2655005D02*
G01X4964527Y-2559117D01*
G01X4964527Y-2559117D02*
G01X4832406Y-2559117D01*
G01X4832406Y-2559117D02*
G01X4832406Y-2655005D01*
G01X4964527Y-2740247D02*
G01X4964527Y-2836135D01*
G01X4964527Y-2836135D02*
G01X4832406Y-2836135D01*
G01X4832406Y-2836135D02*
G01X4832406Y-2740247D01*
G01X4629478Y-2734770D02*
G01X4629478Y-2830657D01*
G01X4629478Y-2830657D02*
G01X4761598Y-2830657D01*
G01X4761598Y-2830657D02*
G01X4761598Y-2734770D01*
G01X4629478Y-2649527D02*
G01X4629478Y-2553640D01*
G01X4629478Y-2553640D02*
G01X4761598Y-2553640D01*
G01X4761598Y-2553640D02*
G01X4761598Y-2649527D01*
G01X4558398Y-2649527D02*
G01X4558398Y-2553640D01*
G01X4558398Y-2553640D02*
G01X4426278Y-2553640D01*
G01X4426278Y-2553640D02*
G01X4426278Y-2649527D01*
G01X4558398Y-2734770D02*
G01X4558398Y-2830657D01*
G01X4558398Y-2830657D02*
G01X4426278Y-2830657D01*
G01X4426278Y-2830657D02*
G01X4426278Y-2734770D01*
G01X6026631Y-4074292D02*
G01X6122519Y-4074292D01*
G01X6122519Y-4074292D02*
G01X6122519Y-3942171D01*
G01X6122519Y-3942171D02*
G01X6026631Y-3942171D01*
G01X5941389Y-4074292D02*
G01X5845501Y-4074292D01*
G01X5845501Y-4074292D02*
G01X5845501Y-3942171D01*
G01X5845501Y-3942171D02*
G01X5941389Y-3942171D01*
G01X5679694Y-4079260D02*
G01X5775582Y-4079260D01*
G01X5775582Y-4079260D02*
G01X5775582Y-3947140D01*
G01X5775582Y-3947140D02*
G01X5679694Y-3947140D01*
G01X5594452Y-4079260D02*
G01X5498564Y-4079260D01*
G01X5498564Y-4079260D02*
G01X5498564Y-3947140D01*
G01X5498564Y-3947140D02*
G01X5594452Y-3947140D01*
G01X5678136Y-4702786D02*
G01X5774023Y-4702786D01*
G01X5774023Y-4702786D02*
G01X5774023Y-4570665D01*
G01X5774023Y-4570665D02*
G01X5678136Y-4570665D01*
G01X5592893Y-4702786D02*
G01X5497006Y-4702786D01*
G01X5497006Y-4702786D02*
G01X5497006Y-4570665D01*
G01X5497006Y-4570665D02*
G01X5592893Y-4570665D01*
G01X6024321Y-4701560D02*
G01X6120209Y-4701560D01*
G01X6120209Y-4701560D02*
G01X6120209Y-4569440D01*
G01X6120209Y-4569440D02*
G01X6024321Y-4569440D01*
G01X5939079Y-4701560D02*
G01X5843191Y-4701560D01*
G01X5843191Y-4701560D02*
G01X5843191Y-4569440D01*
G01X5843191Y-4569440D02*
G01X5939079Y-4569440D01*
G01X5939079Y-4353540D02*
G01X5843191Y-4353540D01*
G01X5843191Y-4353540D02*
G01X5843191Y-4485660D01*
G01X5843191Y-4485660D02*
G01X5939079Y-4485660D01*
G01X6024321Y-4353540D02*
G01X6120209Y-4353540D01*
G01X6120209Y-4353540D02*
G01X6120209Y-4485660D01*
G01X6120209Y-4485660D02*
G01X6024321Y-4485660D01*
G01X5596179Y-4353540D02*
G01X5500291Y-4353540D01*
G01X5500291Y-4353540D02*
G01X5500291Y-4485660D01*
G01X5500291Y-4485660D02*
G01X5596179Y-4485660D01*
G01X5681421Y-4353540D02*
G01X5777309Y-4353540D01*
G01X5777309Y-4353540D02*
G01X5777309Y-4485660D01*
G01X5777309Y-4485660D02*
G01X5681421Y-4485660D01*
G01X1693621Y-7000260D02*
G01X1789509Y-7000260D01*
G01X1789509Y-7000260D02*
G01X1789509Y-6868140D01*
G01X1789509Y-6868140D02*
G01X1693621Y-6868140D01*
G01X1608379Y-7000260D02*
G01X1512491Y-7000260D01*
G01X1512491Y-7000260D02*
G01X1512491Y-6868140D01*
G01X1512491Y-6868140D02*
G01X1608379Y-6868140D01*
G01X1265479Y-6868140D02*
G01X1169591Y-6868140D01*
G01X1169591Y-6868140D02*
G01X1169591Y-7000260D01*
G01X1169591Y-7000260D02*
G01X1265479Y-7000260D01*
G01X1350721Y-6868140D02*
G01X1446609Y-6868140D01*
G01X1446609Y-6868140D02*
G01X1446609Y-7000260D01*
G01X1446609Y-7000260D02*
G01X1350721Y-7000260D01*
G01X922579Y-6868140D02*
G01X826691Y-6868140D01*
G01X826691Y-6868140D02*
G01X826691Y-7000260D01*
G01X826691Y-7000260D02*
G01X922579Y-7000260D01*
G01X1007821Y-6868140D02*
G01X1103709Y-6868140D01*
G01X1103709Y-6868140D02*
G01X1103709Y-7000260D01*
G01X1103709Y-7000260D02*
G01X1007821Y-7000260D01*
G01X2696921Y-7000260D02*
G01X2792809Y-7000260D01*
G01X2792809Y-7000260D02*
G01X2792809Y-6868140D01*
G01X2792809Y-6868140D02*
G01X2696921Y-6868140D01*
G01X2611679Y-7000260D02*
G01X2515791Y-7000260D01*
G01X2515791Y-7000260D02*
G01X2515791Y-6868140D01*
G01X2515791Y-6868140D02*
G01X2611679Y-6868140D01*
G01X2281479Y-6868140D02*
G01X2185591Y-6868140D01*
G01X2185591Y-6868140D02*
G01X2185591Y-7000260D01*
G01X2185591Y-7000260D02*
G01X2281479Y-7000260D01*
G01X2366721Y-6868140D02*
G01X2462609Y-6868140D01*
G01X2462609Y-6868140D02*
G01X2462609Y-7000260D01*
G01X2462609Y-7000260D02*
G01X2366721Y-7000260D01*
G01X2032555Y-7002750D02*
G01X2128443Y-7002750D01*
G01X2128443Y-7002750D02*
G01X2128443Y-6870629D01*
G01X2128443Y-6870629D02*
G01X2032555Y-6870629D01*
G01X1947313Y-7002750D02*
G01X1851425Y-7002750D01*
G01X1851425Y-7002750D02*
G01X1851425Y-6870629D01*
G01X1851425Y-6870629D02*
G01X1947313Y-6870629D01*
G54D13*
G01X6819346Y-3124675D02*
G01X6819346Y-3086575D01*
G01X6819346Y-3086575D02*
G01X6819346Y-3048475D01*
G01X6819346Y-3048475D02*
G01X6819346Y-3086575D01*
G54D10*
G01X6907411Y-3962428D02*
G01X6407168Y-3962428D01*
G01X6407168Y-3962428D02*
G01X6407168Y-2997197D01*
G01X6407168Y-2997197D02*
G01X6907411Y-2997197D01*
G01X6907411Y-2997197D02*
G01X6907411Y-3962428D01*
G54D14*
G01X6451600Y-3848097D02*
G01X6464300Y-3848097D01*
G01X6464300Y-3848097D02*
G01X6464300Y-3107101D01*
G01X6464300Y-3107101D02*
G01X6407168Y-3107101D01*
G01X6407168Y-3849710D02*
G01X6407168Y-3848097D01*
G01X6407168Y-3848097D02*
G01X6451600Y-3848097D01*
G54D13*
G01X6819346Y-3032727D02*
G03X6819854Y-3140487I508J-53879D01*
G03X6820362Y-3032727I0J53881D01*
G01X1993900Y-2678697D02*
G01X2032000Y-2678697D01*
G01X2032000Y-2678697D02*
G01X2070100Y-2678697D01*
G01X2070100Y-2678697D02*
G01X2032000Y-2678697D01*
G01X2111903Y-2484100D02*
G01X2111903Y-3434100D01*
G01X2111903Y-2484100D02*
G01X1621897Y-2484100D01*
G01X1621897Y-2484100D02*
G01X1616901Y-2484100D01*
G01X1616901Y-2484100D02*
G01X1616901Y-2533599D01*
G01X1616901Y-2533599D02*
G01X1666900Y-2533599D01*
G01X1666900Y-2533599D02*
G01X1666900Y-3384601D01*
G01X1666900Y-3384601D02*
G01X1616901Y-3384601D01*
G01X1616901Y-3384601D02*
G01X1616901Y-3434634D01*
G01X1616901Y-3434634D02*
G01X1621897Y-3434634D01*
G01X1621897Y-3434634D02*
G01X2111903Y-3434634D01*
G01X2085848Y-2678697D02*
G03X1978088Y-2679205I-53879J-508D01*
G03X2085848Y-2679713I53881J0D01*
G01X4405897Y-1866900D02*
G01X4405897Y-1828800D01*
G01X4405897Y-1828800D02*
G01X4405897Y-1790700D01*
G01X4405897Y-1790700D02*
G01X4405897Y-1828800D01*
G01X4211300Y-1748897D02*
G01X5161300Y-1748897D01*
G01X4211300Y-1748897D02*
G01X4211300Y-2238903D01*
G01X4211300Y-2238903D02*
G01X4211300Y-2243899D01*
G01X4211300Y-2243899D02*
G01X4260799Y-2243899D01*
G01X4260799Y-2243899D02*
G01X4260799Y-2193900D01*
G01X4260799Y-2193900D02*
G01X5111801Y-2193900D01*
G01X5111801Y-2193900D02*
G01X5111801Y-2243899D01*
G01X5111801Y-2243899D02*
G01X5161834Y-2243899D01*
G01X5161834Y-2243899D02*
G01X5161834Y-2238903D01*
G01X5161834Y-2238903D02*
G01X5161834Y-1748897D01*
G01X4405897Y-1774952D02*
G03X4406405Y-1882712I508J-53879D01*
G03X4406913Y-1774952I0J53881D01*
G01X5498097Y-1866900D02*
G01X5498097Y-1828800D01*
G01X5498097Y-1828800D02*
G01X5498097Y-1790700D01*
G01X5498097Y-1790700D02*
G01X5498097Y-1828800D01*
G01X5303500Y-1748897D02*
G01X6253500Y-1748897D01*
G01X5303500Y-1748897D02*
G01X5303500Y-2238903D01*
G01X5303500Y-2238903D02*
G01X5303500Y-2243899D01*
G01X5303500Y-2243899D02*
G01X5352999Y-2243899D01*
G01X5352999Y-2243899D02*
G01X5352999Y-2193900D01*
G01X5352999Y-2193900D02*
G01X6204001Y-2193900D01*
G01X6204001Y-2193900D02*
G01X6204001Y-2243899D01*
G01X6204001Y-2243899D02*
G01X6254034Y-2243899D01*
G01X6254034Y-2243899D02*
G01X6254034Y-2238903D01*
G01X6254034Y-2238903D02*
G01X6254034Y-1748897D01*
G01X5498097Y-1774952D02*
G03X5498605Y-1882712I508J-53879D01*
G03X5499113Y-1774952I0J53881D01*
G01X6787799Y-2119884D02*
G01X6825899Y-2119884D01*
G01X6825899Y-2119884D02*
G01X6863999Y-2119884D01*
G01X6863999Y-2119884D02*
G01X6825899Y-2119884D01*
G01X6381399Y-1917700D02*
G01X6914799Y-1917700D01*
G01X6914799Y-2882900D01*
G01X6381399Y-2882900D01*
G01X6381399Y-1917700D01*
G01X6396792Y-1925295D02*
G01X6416782Y-1925295D01*
G01X6416782Y-2001495D01*
G01X6396792Y-2001495D01*
G01X6396792Y-1925295D01*
G01X6396792Y-2799080D02*
G01X6416782Y-2799080D01*
G01X6416782Y-2875280D01*
G01X6396792Y-2875280D01*
G01X6396792Y-2799080D01*
G01X6879867Y-2119884D02*
G03X6771869Y-2120392I-53998J-508D01*
G03X6879867Y-2120900I54000J0D01*
G01X5448775Y-4915454D02*
G01X5410675Y-4915454D01*
G01X5410675Y-4915454D02*
G01X5372575Y-4915454D01*
G01X5372575Y-4915454D02*
G01X5410675Y-4915454D01*
G54D10*
G01X6286528Y-4827389D02*
G01X6286528Y-5327632D01*
G01X6286528Y-5327632D02*
G01X5321297Y-5327632D01*
G01X5321297Y-5327632D02*
G01X5321297Y-4827389D01*
G01X5321297Y-4827389D02*
G01X6286528Y-4827389D01*
G54D14*
G01X6172197Y-5283200D02*
G01X6172197Y-5270500D01*
G01X6172197Y-5270500D02*
G01X5431201Y-5270500D01*
G01X5431201Y-5270500D02*
G01X5431201Y-5327632D01*
G01X6173810Y-5327632D02*
G01X6172197Y-5327632D01*
G01X6172197Y-5327632D02*
G01X6172197Y-5283200D01*
G54D13*
G01X5356827Y-4915454D02*
G03X5464587Y-4914946I53879J508D01*
G03X5356827Y-4914438I-53881J0D01*
G01X6819346Y-4191475D02*
G01X6819346Y-4153375D01*
G01X6819346Y-4153375D02*
G01X6819346Y-4115275D01*
G01X6819346Y-4115275D02*
G01X6819346Y-4153375D01*
G54D10*
G01X6907411Y-5029228D02*
G01X6407168Y-5029228D01*
G01X6407168Y-5029228D02*
G01X6407168Y-4063997D01*
G01X6407168Y-4063997D02*
G01X6907411Y-4063997D01*
G01X6907411Y-4063997D02*
G01X6907411Y-5029228D01*
G54D14*
G01X6451600Y-4914897D02*
G01X6464300Y-4914897D01*
G01X6464300Y-4914897D02*
G01X6464300Y-4173901D01*
G01X6464300Y-4173901D02*
G01X6407168Y-4173901D01*
G01X6407168Y-4916510D02*
G01X6407168Y-4914897D01*
G01X6407168Y-4914897D02*
G01X6451600Y-4914897D01*
G54D13*
G01X6819346Y-4099527D02*
G03X6819854Y-4207287I508J-53879D01*
G03X6820362Y-4099527I0J53881D01*
G01X3530587Y-6234684D02*
G01X3568687Y-6234684D01*
G01X3568687Y-6234684D02*
G01X3606787Y-6234684D01*
G01X3606787Y-6234684D02*
G01X3568687Y-6234684D01*
G01X3648591Y-6040087D02*
G01X3648591Y-6990088D01*
G01X3648591Y-6040087D02*
G01X3158584Y-6040087D01*
G01X3158584Y-6040087D02*
G01X3153588Y-6040087D01*
G01X3153588Y-6040087D02*
G01X3153588Y-6089586D01*
G01X3153588Y-6089586D02*
G01X3203588Y-6089586D01*
G01X3203588Y-6089586D02*
G01X3203588Y-6940588D01*
G01X3203588Y-6940588D02*
G01X3153588Y-6940588D01*
G01X3153588Y-6940588D02*
G01X3153588Y-6990621D01*
G01X3153588Y-6990621D02*
G01X3158584Y-6990621D01*
G01X3158584Y-6990621D02*
G01X3648591Y-6990621D01*
G01X3622535Y-6234684D02*
G03X3514775Y-6235192I-53879J-508D01*
G03X3622535Y-6235700I53881J0D01*
G01X4178300Y-6234697D02*
G01X4216400Y-6234697D01*
G01X4216400Y-6234697D02*
G01X4254500Y-6234697D01*
G01X4254500Y-6234697D02*
G01X4216400Y-6234697D01*
G01X4296303Y-6040100D02*
G01X4296303Y-6990100D01*
G01X4296303Y-6040100D02*
G01X3806297Y-6040100D01*
G01X3806297Y-6040100D02*
G01X3801301Y-6040100D01*
G01X3801301Y-6040100D02*
G01X3801301Y-6089599D01*
G01X3801301Y-6089599D02*
G01X3851300Y-6089599D01*
G01X3851300Y-6089599D02*
G01X3851300Y-6940601D01*
G01X3851300Y-6940601D02*
G01X3801301Y-6940601D01*
G01X3801301Y-6940601D02*
G01X3801301Y-6990634D01*
G01X3801301Y-6990634D02*
G01X3806297Y-6990634D01*
G01X3806297Y-6990634D02*
G01X4296303Y-6990634D01*
G01X4270248Y-6234697D02*
G03X4162488Y-6235205I-53879J-508D01*
G03X4270248Y-6235713I53881J0D01*
G54D10*
G01X3814521Y-5260360D02*
G01X3910409Y-5260360D01*
G01X3910409Y-5260360D02*
G01X3910409Y-5128240D01*
G01X3910409Y-5128240D02*
G01X3814521Y-5128240D01*
G01X3729279Y-5260360D02*
G01X3633391Y-5260360D01*
G01X3633391Y-5260360D02*
G01X3633391Y-5128240D01*
G01X3633391Y-5128240D02*
G01X3729279Y-5128240D01*
G01X3809239Y-4951573D02*
G01X3905127Y-4951573D01*
G01X3905127Y-4951573D02*
G01X3905127Y-4819452D01*
G01X3905127Y-4819452D02*
G01X3809239Y-4819452D01*
G01X3723997Y-4951573D02*
G01X3628109Y-4951573D01*
G01X3628109Y-4951573D02*
G01X3628109Y-4819452D01*
G01X3628109Y-4819452D02*
G01X3723997Y-4819452D01*
G01X3386379Y-4823440D02*
G01X3290491Y-4823440D01*
G01X3290491Y-4823440D02*
G01X3290491Y-4955560D01*
G01X3290491Y-4955560D02*
G01X3386379Y-4955560D01*
G01X3471621Y-4823440D02*
G01X3567509Y-4823440D01*
G01X3567509Y-4823440D02*
G01X3567509Y-4955560D01*
G01X3567509Y-4955560D02*
G01X3471621Y-4955560D01*
G01X1459121Y-2286259D02*
G01X1459121Y-2590541D01*
G01X1459121Y-2590541D02*
G01X953879Y-2590541D01*
G01X953879Y-2590541D02*
G01X953879Y-2286259D01*
G01X953879Y-2286259D02*
G01X1459121Y-2286259D01*
G01X2818021Y-2832359D02*
G01X2818021Y-3136641D01*
G01X2818021Y-3136641D02*
G01X2312779Y-3136641D01*
G01X2312779Y-3136641D02*
G01X2312779Y-2832359D01*
G01X2312779Y-2832359D02*
G01X2818021Y-2832359D01*
G01X955369Y-3640334D02*
G01X955369Y-3336053D01*
G01X955369Y-3336053D02*
G01X1460610Y-3336053D01*
G01X1460610Y-3336053D02*
G01X1460610Y-3640334D01*
G01X1460610Y-3640334D02*
G01X955369Y-3640334D01*
G01X3808621Y-2768859D02*
G01X3808621Y-3073141D01*
G01X3808621Y-3073141D02*
G01X3303379Y-3073141D01*
G01X3303379Y-3073141D02*
G01X3303379Y-2768859D01*
G01X3303379Y-2768859D02*
G01X3808621Y-2768859D01*
G01X4938921Y-3480059D02*
G01X4938921Y-3784341D01*
G01X4938921Y-3784341D02*
G01X4433679Y-3784341D01*
G01X4433679Y-3784341D02*
G01X4433679Y-3480059D01*
G01X4433679Y-3480059D02*
G01X4938921Y-3480059D01*
G01X5956041Y-3503821D02*
G01X5651759Y-3503821D01*
G01X5651759Y-3503821D02*
G01X5651759Y-2998579D01*
G01X5651759Y-2998579D02*
G01X5956041Y-2998579D01*
G01X5956041Y-2998579D02*
G01X5956041Y-3503821D01*
G01X5956041Y-2868821D02*
G01X5651759Y-2868821D01*
G01X5651759Y-2868821D02*
G01X5651759Y-2363579D01*
G01X5651759Y-2363579D02*
G01X5956041Y-2363579D01*
G01X5956041Y-2363579D02*
G01X5956041Y-2868821D01*
G01X877679Y-6540241D02*
G01X877679Y-6235959D01*
G01X877679Y-6235959D02*
G01X1382921Y-6235959D01*
G01X1382921Y-6235959D02*
G01X1382921Y-6540241D01*
G01X1382921Y-6540241D02*
G01X877679Y-6540241D01*
G01X1538079Y-6540241D02*
G01X1538079Y-6235959D01*
G01X1538079Y-6235959D02*
G01X2043321Y-6235959D01*
G01X2043321Y-6235959D02*
G01X2043321Y-6540241D01*
G01X2043321Y-6540241D02*
G01X1538079Y-6540241D01*
G01X2185779Y-6540241D02*
G01X2185779Y-6235959D01*
G01X2185779Y-6235959D02*
G01X2691021Y-6235959D01*
G01X2691021Y-6235959D02*
G01X2691021Y-6540241D01*
G01X2691021Y-6540241D02*
G01X2185779Y-6540241D01*
G01X4926221Y-4877059D02*
G01X4926221Y-5181341D01*
G01X4926221Y-5181341D02*
G01X4420979Y-5181341D01*
G01X4420979Y-5181341D02*
G01X4420979Y-4877059D01*
G01X4420979Y-4877059D02*
G01X4926221Y-4877059D01*
G54D13*
G01X954151Y-5738505D02*
G01X954151Y-4588495D01*
G01X954151Y-4588495D02*
G01X2374138Y-4588495D01*
G01X2374138Y-4588495D02*
G01X2374138Y-5738505D01*
G01X954151Y-5473507D02*
G01X623951Y-5473507D01*
G01X623951Y-5473507D02*
G01X623951Y-4853493D01*
G01X954151Y-4853493D02*
G01X623951Y-4853493D01*
G01X954151Y-5738505D02*
G01X1466296Y-5738505D01*
G01X1662222Y-5738505D02*
G01X2200877Y-5738505D01*
G01X2307369Y-5738505D02*
G01X2374138Y-5738505D01*
G54D10*
G01X3198160Y-5218351D02*
G01X3198160Y-5314239D01*
G01X3198160Y-5314239D02*
G01X3330280Y-5314239D01*
G01X3330280Y-5314239D02*
G01X3330280Y-5218351D01*
G01X3198160Y-5133109D02*
G01X3198160Y-5037221D01*
G01X3198160Y-5037221D02*
G01X3330280Y-5037221D01*
G01X3330280Y-5037221D02*
G01X3330280Y-5133109D01*
G01X3523150Y-5128997D02*
G01X3523150Y-5033109D01*
G01X3523150Y-5033109D02*
G01X3391030Y-5033109D01*
G01X3391030Y-5033109D02*
G01X3391030Y-5128997D01*
G01X3523150Y-5214239D02*
G01X3523150Y-5310127D01*
G01X3523150Y-5310127D02*
G01X3391030Y-5310127D01*
G01X3391030Y-5310127D02*
G01X3391030Y-5214239D01*

G04 Rect Start*
G54D13*
G01X647700Y-4229100D02*
G01X647700Y-1701800D01*
G02X673100Y-1676400I25400J0D01*
G01X3009900Y-1676400D01*
G02X3035300Y-1701800I0J-25400D01*
G01X3035300Y-4229100D01*
G02X3009900Y-4254500I-25400J0D01*
G01X673100Y-4254500D01*
G02X647700Y-4229100I0J25400D01*
G01X3035300Y-4229100D02*
G01X3035300Y-1701800D01*
G02X3060700Y-1676400I25400J0D01*
G01X4114800Y-1676400D01*
G02X4140200Y-1701800I0J-25400D01*
G01X4140200Y-4229100D01*
G02X4114800Y-4254500I-25400J0D01*
G01X3060700Y-4254500D01*
G02X3035300Y-4229100I0J25400D01*
G01X4140200Y-4229100D02*
G01X4140200Y-1701800D01*
G02X4165600Y-1676400I25400J0D01*
G01X5207000Y-1676400D01*
G02X5232400Y-1701800I0J-25400D01*
G01X5232400Y-4229100D01*
G02X5207000Y-4254500I-25400J0D01*
G01X4165600Y-4254500D01*
G02X4140200Y-4229100I0J25400D01*
G01X5232400Y-5486400D02*
G01X5232400Y-1701800D01*
G02X5257800Y-1676400I25400J0D01*
G01X7112000Y-1676400D01*
G02X7137400Y-1701800I0J-25400D01*
G01X7137400Y-5486400D01*
G02X7112000Y-5511800I-25400J0D01*
G01X5257800Y-5511800D01*
G02X5232400Y-5486400I0J25400D01*
G01X3035300Y-5486400D02*
G01X3035300Y-4584700D01*
G02X3060700Y-4559300I25400J0D01*
G01X5207000Y-4559300D01*
G02X5232400Y-4584700I0J-25400D01*
G01X5232400Y-5486400D01*
G02X5207000Y-5511800I-25400J0D01*
G01X3060700Y-5511800D01*
G02X3035300Y-5486400I0J25400D01*
G01X647700Y-4533900D02*
G01X647700Y-4279900D01*
G02X673100Y-4254500I25400J0D01*
G01X3009900Y-4254500D01*
G02X3035300Y-4279900I0J-25400D01*
G01X3035300Y-4533900D01*
G02X3009900Y-4559300I-25400J0D01*
G01X673100Y-4559300D01*
G02X647700Y-4533900I0J25400D01*
G01X647700Y-5740400D02*
G01X647700Y-4584700D01*
G02X673100Y-4559300I25400J0D01*
G01X3009900Y-4559300D01*
G02X3035300Y-4584700I0J-25400D01*
G01X3035300Y-5740400D01*
G02X3009900Y-5765800I-25400J0D01*
G01X673100Y-5765800D01*
G02X647700Y-5740400I0J25400D01*
G01X3035300Y-5740400D02*
G01X3035300Y-5537200D01*
G02X3060700Y-5511800I25400J0D01*
G01X5207000Y-5511800D01*
G02X5232400Y-5537200I0J-25400D01*
G01X5232400Y-5740400D01*
G02X5207000Y-5765800I-25400J0D01*
G01X3060700Y-5765800D01*
G02X3035300Y-5740400I0J25400D01*
G01X5232400Y-5740400D02*
G01X5232400Y-5537200D01*
G02X5257800Y-5511800I25400J0D01*
G01X7112000Y-5511800D01*
G02X7137400Y-5537200I0J-25400D01*
G01X7137400Y-5740400D01*
G02X7112000Y-5765800I-25400J0D01*
G01X5257800Y-5765800D01*
G02X5232400Y-5740400I0J25400D01*
G01X647700Y-7289800D02*
G01X647700Y-5791200D01*
G02X673100Y-5765800I25400J0D01*
G01X7112000Y-5765800D01*
G02X7137400Y-5791200I0J-25400D01*
G01X7137400Y-7289800D01*
G02X7112000Y-7315200I-25400J0D01*
G01X673100Y-7315200D01*
G02X647700Y-7289800I0J25400D01*
G01X4369217Y-7289800D02*
G01X4369217Y-5791200D01*
G02X4394617Y-5765800I25400J0D01*
G01X4610100Y-5765800D01*
G02X4635500Y-5791200I0J-25400D01*
G01X4635500Y-7289800D01*
G02X4610100Y-7315200I-25400J0D01*
G01X4394617Y-7315200D01*
G02X4369217Y-7289800I0J25400D01*
G01X5054600Y-6527800D02*
G01X5054600Y-6057900D01*
G02X5080000Y-6032500I25400J0D01*
G01X6718300Y-6032500D01*
G02X6743700Y-6057900I0J-25400D01*
G01X6743700Y-6527800D01*
G02X6718300Y-6553200I-25400J0D01*
G01X5080000Y-6553200D01*
G02X5054600Y-6527800I0J25400D01*
G04 Rect End*

G04 Circle Start*
G54D16*
G01X1381989Y-2361489D02*
G03X1412011Y-2361489I15011J0D01*
G03X1381989Y-2361489I-15011J0D01*
G01X1456639Y-2161159D02*
G03X1486662Y-2161159I15011J0D01*
G03X1456639Y-2161159I-15011J0D01*
G01X2740889Y-2907589D02*
G03X2770911Y-2907589I15011J0D01*
G03X2740889Y-2907589I-15011J0D01*
G01X2815539Y-2707259D02*
G03X2845562Y-2707259I15011J0D01*
G03X2815539Y-2707259I-15011J0D01*
G01X1002478Y-3565105D02*
G03X1032501Y-3565105I15011J0D01*
G03X1002478Y-3565105I-15011J0D01*
G01X927828Y-3765434D02*
G03X957851Y-3765434I15011J0D01*
G03X927828Y-3765434I-15011J0D01*
G01X3731489Y-2844089D02*
G03X3761511Y-2844089I15011J0D01*
G03X3731489Y-2844089I-15011J0D01*
G01X3806139Y-2643759D02*
G03X3836162Y-2643759I15011J0D01*
G03X3806139Y-2643759I-15011J0D01*
G01X4861789Y-3555289D02*
G03X4891811Y-3555289I15011J0D01*
G03X4861789Y-3555289I-15011J0D01*
G01X4936439Y-3354959D02*
G03X4966462Y-3354959I15011J0D01*
G03X4936439Y-3354959I-15011J0D01*
G01X5865800Y-3441700D02*
G03X5895823Y-3441700I15011J0D01*
G03X5865800Y-3441700I-15011J0D01*
G01X6066130Y-3516351D02*
G03X6096152Y-3516351I15011J0D01*
G03X6066130Y-3516351I-15011J0D01*
G01X5865800Y-2806700D02*
G03X5895823Y-2806700I15011J0D01*
G03X5865800Y-2806700I-15011J0D01*
G01X6066130Y-2881351D02*
G03X6096152Y-2881351I15011J0D01*
G03X6066130Y-2881351I-15011J0D01*
G01X924789Y-6465011D02*
G03X954811Y-6465011I15011J0D01*
G03X924789Y-6465011I-15011J0D01*
G01X850138Y-6665341D02*
G03X880161Y-6665341I15011J0D01*
G03X850138Y-6665341I-15011J0D01*
G01X1585189Y-6465011D02*
G03X1615211Y-6465011I15011J0D01*
G03X1585189Y-6465011I-15011J0D01*
G01X1510538Y-6665341D02*
G03X1540561Y-6665341I15011J0D01*
G03X1510538Y-6665341I-15011J0D01*
G01X2232889Y-6465011D02*
G03X2262911Y-6465011I15011J0D01*
G03X2232889Y-6465011I-15011J0D01*
G01X2158238Y-6665341D02*
G03X2188261Y-6665341I15011J0D01*
G03X2158238Y-6665341I-15011J0D01*
G01X4849089Y-4952289D02*
G03X4879111Y-4952289I15011J0D01*
G03X4849089Y-4952289I-15011J0D01*
G01X4923739Y-4751959D02*
G03X4953762Y-4751959I15011J0D01*
G03X4923739Y-4751959I-15011J0D01*
G04 Circle End*

M02*

